G04 ================== begin FILE IDENTIFICATION RECORD ==================*
G04 Layout Name:  SMARTSLEEVESYSTEM.brd*
G04 Film Name:    BOTTOM*
G04 File Format:  Gerber RS274X*
G04 File Origin:  Cadence Allegro 17.2-P019*
G04 Origin Date:  Fri Feb 03 11:10:52 2017*
G04 *
G04 Layer:  ETCH/BOTTOM*
G04 Layer:  PIN/BOTTOM*
G04 Layer:  VIA CLASS/BOTTOM*
G04 *
G04 Offset:    (0.0 0.0)*
G04 Mirror:    No*
G04 Mode:      Positive*
G04 Rotation:  0*
G04 FullContactRelief:  No*
G04 UndefLineWidth:     0.0*
G04 ================== end FILE IDENTIFICATION RECORD ====================*
%FSLAX25Y25*MOIN*%
%IR0*IPPOS*OFA0.00000B0.00000*MIA0B0*SFA1.00000B1.00000*%
%ADD10C,.135*%
%AMMACRO20*
4,1,5,-.1378,-.1181,
-.1181,-.1378,
.1378,-.1378,
.1378,.1378,
-.1378,.1378,
-.1378,-.1181,
0.0*
%
%ADD20MACRO20*%
%ADD24R,.2126X.0709*%
%ADD12R,.0579X.1171*%
%ADD19C,.06*%
%ADD18C,.024*%
%ADD14C,.065*%
%ADD25C,.058*%
%ADD17R,.0571X.0423*%
%ADD15R,.0423X.0571*%
%ADD27R,.055X.055*%
%ADD23O,.0738X.0118*%
%ADD16R,.0394X.0531*%
%ADD13R,.065X.065*%
%ADD21R,.0118X.0738*%
%ADD26R,.058X.058*%
%ADD22R,.0738X.0118*%
%ADD11R,.4181X.3685*%
%ADD28C,.007*%
%ADD29C,.02*%
%ADD30C,.012*%
%ADD31C,.03*%
%ADD32C,.04*%
%ADD33C,.05*%
%ADD34C,.015*%
%ADD35C,.035*%
%ADD38C,.1494*%
%ADD37C,.0724*%
%ADD36C,.0794*%
G75*
%LPD*%
G75*
G36*
G01X94970Y167250D02*
Y171750D01*
X95000Y171800D01*
G03X95090Y172140I-623J347D01*
G01Y177860D01*
G03X94380Y178570I-715J-5D01*
G01X90140D01*
G03X89440Y177900I9J-711D01*
G01X89420Y177710D01*
X82560D01*
X82290Y177440D01*
X81620D01*
Y193160D01*
G03X80900Y193870I-715J-5D01*
G01X62710D01*
Y205080D01*
G02X62910Y205280I198J2D01*
G03X63610Y206000I-14J713D01*
G01Y217700D01*
G03X62900Y218420I-715J5D01*
G01X57100D01*
G03X56390Y217700I5J-715D01*
G01Y206000D01*
G03X57090Y205280I714J-7D01*
G02X57290Y205080I2J-198D01*
G01Y193870D01*
X39100D01*
G03X38380Y193160I-5J-715D01*
G01Y156300D01*
G03X39100Y155590I715J5D01*
G01X80900D01*
G03X81620Y156300I5J715D01*
G01Y172020D01*
X84530D01*
X84800Y172290D01*
X89420D01*
X89440Y172100D01*
G03X89520Y171800I710J29D01*
G01X89550Y171750D01*
Y167250D01*
X89520Y167200D01*
G03X89430Y166860I623J-347D01*
G01Y161140D01*
G03X89710Y160580I713J6D01*
G01X89790Y160520D01*
Y147080D01*
X91190Y145680D01*
G02X90910Y145000I-283J-281D01*
G01X32000D01*
Y288000D01*
X128000D01*
Y213460D01*
X112570D01*
Y214860D01*
G03X111860Y215570I-715J-5D01*
G01X107620D01*
G03X106910Y214860I5J-715D01*
G01Y209140D01*
G03X107620Y208430I715J5D01*
G01X108030D01*
Y204170D01*
X108290Y203910D01*
G02X108150Y203570I-138J-142D01*
G01X108140D01*
G03X107430Y202860I5J-715D01*
G01Y197140D01*
G03X108140Y196430I715J5D01*
G01X108550D01*
Y194760D01*
X107660Y193870D01*
Y192370D01*
X107400D01*
G03X106690Y191660I0J-710D01*
G01Y186340D01*
G03X107400Y185630I710J0D01*
G01X111340D01*
G03X112050Y186340I0J710D01*
G01Y191660D01*
G03X111660Y192290I-711J-4D01*
G02X111560Y192930I181J356D01*
G01X111970Y193340D01*
Y196430D01*
X112380D01*
G03X113090Y197140I-5J715D01*
G01Y202860D01*
G03X112380Y203570I-715J-5D01*
G01X111970D01*
Y205070D01*
X111450Y205590D01*
Y208430D01*
X111860D01*
G03X112570Y209140I-5J715D01*
G01Y210540D01*
X128000D01*
Y145000D01*
X98130D01*
X94210Y148920D01*
Y158460D01*
X94470Y158720D01*
Y160430D01*
X94610Y160470D01*
G03X95090Y161140I-233J674D01*
G01Y166860D01*
G03X95000Y167200I-713J-7D01*
G01X94970Y167250D01*
G37*
G36*
G01X199000Y144000D02*
Y298000D01*
X374000D01*
Y144000D01*
X372460D01*
Y269600D01*
X370920Y271150D01*
X370910Y271220D01*
G03X368780Y269090I-1910J-220D01*
G01X368850Y269080D01*
X369540Y268400D01*
Y144000D01*
X264460D01*
Y169600D01*
X252720Y181340D01*
Y204430D01*
X253380D01*
G03X254090Y205140I-5J715D01*
G01Y210860D01*
G03X253380Y211570I-715J-5D01*
G01X249140D01*
G03X248430Y210860I5J-715D01*
G01Y205140D01*
G03X249140Y204430I715J5D01*
G01X249800D01*
Y180140D01*
X261540Y168400D01*
Y144000D01*
X229290D01*
Y194230D01*
X251720Y216660D01*
Y218430D01*
X252380D01*
G03X253090Y219140I-5J715D01*
G01Y224860D01*
G03X252380Y225570I-715J-5D01*
G01X248140D01*
G03X247430Y224860I5J-715D01*
G01Y219140D01*
G03X248140Y218430I715J5D01*
G01X248800D01*
Y217860D01*
X226370Y195430D01*
Y144000D01*
X221460D01*
Y214400D01*
X246600Y239540D01*
X257400D01*
X268130Y228800D01*
G02X267990Y228460I-140J-141D01*
G01X267600D01*
X262600Y233460D01*
X260570D01*
Y234860D01*
G03X259860Y235570I-715J-5D01*
G01X255620D01*
G03X254910Y234860I5J-715D01*
G01Y229140D01*
G03X255620Y228430I715J5D01*
G01X259860D01*
G03X260570Y229140I-5J715D01*
G01Y230540D01*
X261400D01*
X266400Y225540D01*
X270660D01*
G02X270970Y224890I-2J-400D01*
G03X270810Y224440I553J-450D01*
G01Y223260D01*
G03X270970Y222810I713J0D01*
G02X270660Y222160I-312J-250D01*
G01X263020D01*
X261720Y223460D01*
X260570D01*
Y224860D01*
G03X259860Y225570I-715J-5D01*
G01X255620D01*
G03X254910Y224860I5J-715D01*
G01Y219140D01*
G03X255620Y218430I715J5D01*
G01X259860D01*
G03X260570Y219140I-5J715D01*
G01Y219520D01*
G02X261250Y219810I399J6D01*
G01X261820Y219240D01*
X266210D01*
G02X266490Y218560I-3J-399D01*
G01X259500Y211570D01*
X256620D01*
G03X255910Y210860I5J-715D01*
G01Y205140D01*
G03X256620Y204430I715J5D01*
G01X260860D01*
G03X261570Y205140I-5J715D01*
G01Y209500D01*
X268150Y216090D01*
X270660D01*
G02X270970Y215440I-2J-400D01*
G03X270810Y214990I553J-450D01*
G01Y213810D01*
G03X271520Y213100I710J0D01*
G01X278900D01*
G03X279610Y213810I0J710D01*
G01Y214990D01*
G03X278900Y215700I-710J0D01*
G01X275200D01*
Y216080D01*
X275380Y216100D01*
G03X275840Y216230I-162J1452D01*
G01X275880Y216250D01*
X278900D01*
G03X279610Y216960I0J710D01*
G01Y218140D01*
G03X278900Y218850I-710J0D01*
G01X275880D01*
X275840Y218870D01*
G03X275670Y218940I-641J-1315D01*
G02Y219310I65J185D01*
G03X275840Y219380I-471J1385D01*
G01X275880Y219400D01*
X278900D01*
G03X279610Y220110I0J710D01*
G01Y221290D01*
G03X278900Y222000I-710J0D01*
G01X275880D01*
X275840Y222020D01*
G03X275380Y222150I-622J-1322D01*
G01X275200Y222170D01*
Y222550D01*
X278900D01*
G03X279610Y223260I0J710D01*
G01Y224440D01*
G03X278900Y225150I-710J0D01*
G01X275200D01*
Y225530D01*
X275380Y225550D01*
G03X275840Y225680I-162J1452D01*
G01X275880Y225700D01*
X278900D01*
G03X279610Y226410I0J710D01*
G01Y227590D01*
G03X278900Y228300I-710J0D01*
G01X275880D01*
X275840Y228320D01*
G03X275670Y228390I-641J-1315D01*
G02Y228760I65J185D01*
G03X275840Y228830I-471J1385D01*
G01X275880Y228850D01*
X278900D01*
G03X279610Y229560I0J710D01*
G01Y230740D01*
G03X278900Y231450I-710J0D01*
G01X275880D01*
X275840Y231470D01*
G03X275380Y231600I-622J-1322D01*
G01X275200Y231620D01*
Y232000D01*
X278900D01*
G03X279610Y232710I0J710D01*
G01Y233890D01*
G03X278900Y234600I-710J0D01*
G01X275200D01*
Y234980D01*
X275380Y235000D01*
G03X275840Y235130I-162J1452D01*
G01X275880Y235150D01*
X278900D01*
G03X279610Y235860I0J710D01*
G01Y237040D01*
G03X278900Y237750I-710J0D01*
G01X275880D01*
X275840Y237770D01*
G03X275670Y237840I-641J-1315D01*
G02Y238210I65J185D01*
G03X275840Y238280I-471J1385D01*
G01X275880Y238300D01*
X278900D01*
G03X279610Y239010I0J710D01*
G01Y240190D01*
G03X278900Y240900I-710J0D01*
G01X275880D01*
X275840Y240920D01*
G03X275670Y240990I-641J-1315D01*
G02Y241360I65J185D01*
G03X275840Y241430I-471J1385D01*
G01X275880Y241450D01*
X278900D01*
G03X279610Y242160I0J710D01*
G01Y243340D01*
G03X278900Y244050I-710J0D01*
G01X275880D01*
X275840Y244070D01*
G03X275210Y244210I-624J-1321D01*
G01X272710D01*
X269460Y247460D01*
Y249750D01*
G03X266540I-1460J1250D01*
G01Y246260D01*
X270840Y241960D01*
X270850Y241920D01*
G03X271280Y241490I670J240D01*
G01X271320Y241480D01*
X271390Y241400D01*
G02X271250Y241060I-140J-141D01*
G01X270860D01*
X251460Y260460D01*
X236250D01*
G03Y257540I-1250J-1460D01*
G01X250260D01*
X269200Y238590D01*
G02X268920Y237910I-283J-281D01*
G01X268150D01*
X257600Y248460D01*
X254250D01*
G03Y245540I-1250J-1460D01*
G01X256400D01*
X266950Y234990D01*
X270660D01*
G02X270970Y234340I-2J-400D01*
G03X270810Y233890I553J-450D01*
G01Y232710D01*
G03X270970Y232260I713J0D01*
G02X270660Y231610I-312J-250D01*
G01X269450D01*
X258600Y242460D01*
X245400D01*
X218540Y215600D01*
Y144000D01*
X199000D01*
G37*
%LPC*%
G75*
G36*
G01X114910Y197140D02*
Y202860D01*
G02X115620Y203570I715J-5D01*
G01X119860D01*
G02X120570Y202860I-5J-715D01*
G01Y197140D01*
G02X119860Y196430I-715J5D01*
G01X115620D01*
G02X114910Y197140I5J715D01*
G37*
G36*
G01X115950Y186340D02*
Y191660D01*
G02X116660Y192370I710J0D01*
G01X120600D01*
G02X121310Y191660I0J-710D01*
G01Y186340D01*
G02X120600Y185630I-710J0D01*
G01X116660D01*
G02X115950Y186340I0J710D01*
G37*
G36*
G01X85430Y217620D02*
Y221860D01*
G02X86140Y222570I715J-5D01*
G01X91860D01*
G02X92570Y221860I-5J-715D01*
G01Y217620D01*
G02X91860Y216910I-715J5D01*
G01X86140D01*
G02X85430Y217620I5J715D01*
G37*
G36*
G01X96910Y172140D02*
Y177860D01*
G02X97620Y178570I715J-5D01*
G01X101860D01*
G02X102570Y177860I-5J-715D01*
G01Y172140D01*
G02X101860Y171430I-715J5D01*
G01X97620D01*
G02X96910Y172140I5J715D01*
G37*
G36*
G01Y161140D02*
Y166860D01*
G02X97620Y167570I715J-5D01*
G01X101860D01*
G02X102570Y166860I-5J-715D01*
G01Y161140D01*
G02X101860Y160430I-715J5D01*
G01X97620D01*
G02X96910Y161140I5J715D01*
G37*
G36*
G01X46390Y206000D02*
Y217700D01*
G02X47100Y218420I715J5D01*
G01X52900D01*
G02X53610Y217700I-5J-715D01*
G01Y206000D01*
G02X52900Y205280I-715J-5D01*
G01X47100D01*
G02X46390Y206000I5J715D01*
G37*
G36*
G01X106870Y260320D02*
X97650Y269540D01*
X58850D01*
X51970Y262660D01*
X52100Y262520D01*
G02X46710Y262960I-2932J-2679D01*
G01Y264360D01*
X56810Y274460D01*
X99690D01*
X110350Y263800D01*
X114080D01*
G02X114790Y263090I0J-710D01*
G01Y256590D01*
G02X114080Y255880I-710J0D01*
G01X107580D01*
G02X106870Y256590I0J710D01*
G01Y260320D01*
G37*
G36*
G01X67540Y226980D02*
X56980Y237540D01*
X53820D01*
X53660Y237700D01*
X53130D01*
Y236910D01*
G02X52420Y236200I-710J0D01*
G01X45920D01*
G02X45210Y236910I0J710D01*
G01Y243410D01*
G02X45920Y244120I710J0D01*
G01X52420D01*
G02X53130Y243410I0J-710D01*
G01Y242620D01*
X55700D01*
X55860Y242460D01*
X59020D01*
X72460Y229020D01*
Y221350D01*
G02X72710Y220210I-2461J-1137D01*
G01Y218620D01*
G03X72910Y218420I198J-2D01*
G02X73610Y217700I-14J-713D01*
G01Y214560D01*
X82110D01*
X82520Y214970D01*
X85750D01*
X85800Y215000D01*
G02X86140Y215090I347J-623D01*
G01X91860D01*
G02X92570Y214380I-5J-715D01*
G01Y213970D01*
X99090D01*
G03X99430Y214110I142J138D01*
G01Y214860D01*
G02X100140Y215570I715J-5D01*
G01X104380D01*
G02X105090Y214860I-5J-715D01*
G01Y209140D01*
G02X104380Y208430I-715J5D01*
G01X100140D01*
G02X99430Y209140I5J715D01*
G01Y210290D01*
X97930D01*
X97670Y210550D01*
X92570D01*
Y210140D01*
G02X91860Y209430I-715J5D01*
G01X86140D01*
G02X85800Y209520I7J713D01*
G01X85750Y209550D01*
X84760D01*
X84350Y209140D01*
X73610D01*
Y206000D01*
G02X72900Y205280I-715J-5D01*
G01X67100D01*
G02X66390Y206000I5J715D01*
G01Y217700D01*
G02X67090Y218420I714J7D01*
G03X67290Y218620I2J198D01*
G01Y220210D01*
G02X67540Y221350I2711J3D01*
G01Y226980D01*
G37*
G36*
G01X360910Y222830D02*
Y228330D01*
G02X361620Y229040I710J0D01*
G01X367120D01*
G02X367830Y228330I0J-710D01*
G01Y222830D01*
G02X367120Y222120I-710J0D01*
G01X361620D01*
G02X360910Y222830I0J710D01*
G37*
G36*
G01Y230700D02*
Y236200D01*
G02X361620Y236910I710J0D01*
G01X367120D01*
G02X367830Y236200I0J-710D01*
G01Y230700D01*
G02X367120Y229990I-710J0D01*
G01X361620D01*
G02X360910Y230700I0J710D01*
G37*
G36*
G01Y199210D02*
Y204710D01*
G02X361620Y205420I710J0D01*
G01X367120D01*
G02X367830Y204710I0J-710D01*
G01Y199210D01*
G02X367120Y198500I-710J0D01*
G01X361620D01*
G02X360910Y199210I0J710D01*
G37*
G36*
G01Y207080D02*
Y212580D01*
G02X361620Y213290I710J0D01*
G01X367120D01*
G02X367830Y212580I0J-710D01*
G01Y207080D01*
G02X367120Y206370I-710J0D01*
G01X361620D01*
G02X360910Y207080I0J710D01*
G37*
G36*
G01Y183460D02*
Y188960D01*
G02X361620Y189670I710J0D01*
G01X367120D01*
G02X367830Y188960I0J-710D01*
G01Y183460D01*
G02X367120Y182750I-710J0D01*
G01X361620D01*
G02X360910Y183460I0J710D01*
G37*
G36*
G01Y151960D02*
Y157460D01*
G02X361620Y158170I710J0D01*
G01X367120D01*
G02X367830Y157460I0J-710D01*
G01Y151960D01*
G02X367120Y151250I-710J0D01*
G01X361620D01*
G02X360910Y151960I0J710D01*
G37*
G36*
G01Y159840D02*
Y165340D01*
G02X361620Y166050I710J0D01*
G01X367120D01*
G02X367830Y165340I0J-710D01*
G01Y159840D01*
G02X367120Y159130I-710J0D01*
G01X361620D01*
G02X360910Y159840I0J710D01*
G37*
G36*
G01X336910Y237140D02*
Y242860D01*
G02X337620Y243570I715J-5D01*
G01X341860D01*
G02X342570Y242860I-5J-715D01*
G01Y237140D01*
G02X341860Y236430I-715J5D01*
G01X337620D01*
G02X336910Y237140I5J715D01*
G37*
G36*
G01X303430Y287140D02*
Y292860D01*
G02X304140Y293570I715J-5D01*
G01X308380D01*
G02X309090Y292860I-5J-715D01*
G01Y287140D01*
G02X308380Y286430I-715J5D01*
G01X304140D01*
G02X303430Y287140I5J715D01*
G37*
G36*
G01X305150Y201520D02*
Y208900D01*
G02X305860Y209610I710J0D01*
G01X307040D01*
G02X307750Y208900I0J-710D01*
G01Y201520D01*
G02X307040Y200810I-710J0D01*
G01X305860D01*
G02X305150Y201520I0J710D01*
G37*
G36*
G01X302000D02*
Y208900D01*
G02X302710Y209610I710J0D01*
G01X303890D01*
G02X304600Y208900I0J-710D01*
G01Y201520D01*
G02X303890Y200810I-710J0D01*
G01X302710D01*
G02X302000Y201520I0J710D01*
G37*
G36*
G01X298850D02*
Y208900D01*
G02X299560Y209610I710J0D01*
G01X300740D01*
G02X301450Y208900I0J-710D01*
G01Y201520D01*
G02X300740Y200810I-710J0D01*
G01X299560D01*
G02X298850Y201520I0J710D01*
G37*
G36*
G01X283910Y287140D02*
Y292860D01*
G02X284620Y293570I715J-5D01*
G01X288860D01*
G02X289570Y292860I-5J-715D01*
G01Y287140D01*
G02X288860Y286430I-715J5D01*
G01X284620D01*
G02X283910Y287140I5J715D01*
G37*
G36*
G01X272110Y209950D02*
G02Y212550I0J1300D01*
G01X278310D01*
G02Y209950I0J-1300D01*
G01X272110D01*
G37*
G36*
G01X276430Y189140D02*
Y194860D01*
G02X277140Y195570I715J-5D01*
G01X281380D01*
G02X282090Y194860I-5J-715D01*
G01Y189140D01*
G02X281380Y188430I-715J5D01*
G01X277140D01*
G02X276430Y189140I5J715D01*
G37*
G36*
G01X247430Y229140D02*
Y234860D01*
G02X248140Y235570I715J-5D01*
G01X252380D01*
G02X253090Y234860I-5J-715D01*
G01Y229140D01*
G02X252380Y228430I-715J5D01*
G01X248140D01*
G02X247430Y229140I5J715D01*
G37*
G36*
G01X346540Y243400D02*
X338280Y251660D01*
Y263430D01*
X337620D01*
G02X336910Y264140I5J715D01*
G01Y269860D01*
G02X337620Y270570I715J-5D01*
G01X341860D01*
G02X342570Y269860I-5J-715D01*
G01Y264140D01*
G02X341860Y263430I-715J5D01*
G01X341200D01*
Y252860D01*
X349460Y244600D01*
Y229600D01*
X359900Y219160D01*
X360910D01*
Y220450D01*
G02X361620Y221160I710J0D01*
G01X367120D01*
G02X367830Y220450I0J-710D01*
G01Y214950D01*
G02X367120Y214240I-710J0D01*
G01X361620D01*
G02X360910Y214950I0J710D01*
G01Y216240D01*
X358700D01*
X346540Y228400D01*
Y243400D01*
G37*
G36*
G01X355420Y184650D02*
X360270Y179790D01*
X360910D01*
Y181080D01*
G02X361620Y181790I710J0D01*
G01X367120D01*
G02X367830Y181080I0J-710D01*
G01Y175580D01*
G02X367120Y174870I-710J0D01*
G01X361620D01*
G02X360910Y175580I0J710D01*
G01Y176870D01*
X359070D01*
X353350Y182580D01*
X353280Y182590D01*
G02X355410Y184720I220J1910D01*
G01X355420Y184650D01*
G37*
G36*
G01X337750Y168540D02*
X325310D01*
G02Y171460I-3310J1460D01*
G01X337750D01*
G02Y168540I1250J-1460D01*
G37*
G36*
G01X319390Y152530D02*
X319530Y152570D01*
Y154780D01*
X319790Y155040D01*
Y157130D01*
G02X324210I2210J2870D01*
G01Y153200D01*
X323950Y152940D01*
Y152570D01*
X324090Y152530D01*
G02X324570Y151860I-233J-674D01*
G01Y146140D01*
G02X323860Y145430I-715J5D01*
G01X319620D01*
G02X318910Y146140I5J715D01*
G01Y151860D01*
G02X319390Y152530I713J-4D01*
G37*
G36*
G01X303890Y244390D02*
X302710D01*
G02X302000Y245100I0J710D01*
G01Y252480D01*
G02X302710Y253190I710J0D01*
G01X303890D01*
G02X304590Y252590I0J-708D01*
G01X304620Y252420D01*
X304990D01*
Y253140D01*
X301540Y256590D01*
Y262750D01*
G02X304460I1460J1250D01*
G01Y257790D01*
X307460Y254800D01*
G03X308140Y255080I281J283D01*
G01Y258200D01*
X312400Y262460D01*
X326400D01*
X329430Y265500D01*
Y269860D01*
G02X330140Y270570I715J-5D01*
G01X334380D01*
G02X335090Y269860I-5J-715D01*
G01Y264140D01*
G02X334380Y263430I-715J5D01*
G01X331500D01*
X327600Y259540D01*
X313600D01*
X311060Y257000D01*
Y253340D01*
G03X311710Y253030I400J2D01*
G02X312160Y253190I450J-553D01*
G01X313340D01*
G02X314050Y252480I0J-710D01*
G01Y251080D01*
G03X314730Y250800I399J3D01*
G01X320080Y256150D01*
X320090Y256220D01*
G02X322220Y254090I1910J-220D01*
G01X322150Y254080D01*
X315390Y247330D01*
X314050D01*
Y245100D01*
G02X313340Y244390I-710J0D01*
G01X312160D01*
G02X311450Y245100I0J710D01*
G01Y248120D01*
X311430Y248160D01*
G02X311360Y248330I1315J641D01*
G03X310990I-185J-65D01*
G02X310920Y248160I-1385J471D01*
G01X310900Y248120D01*
Y245100D01*
G02X310190Y244390I-710J0D01*
G01X309010D01*
G02X308300Y245100I0J710D01*
G01Y248120D01*
X308280Y248160D01*
G02X308210Y248330I1315J641D01*
G03X307840I-185J-65D01*
G02X307770Y248160I-1385J471D01*
G01X307750Y248120D01*
Y245100D01*
G02X307040Y244390I-710J0D01*
G01X305860D01*
G02X305150Y245100I0J710D01*
G01Y248120D01*
X305130Y248160D01*
G02X305000Y248620I1322J622D01*
G01X304980Y248800D01*
X304600D01*
Y245100D01*
G02X303890Y244390I-710J0D01*
G37*
G36*
G01X281840D02*
X280660D01*
G02X279950Y245100I0J710D01*
G01Y252480D01*
G02X280660Y253190I710J0D01*
G01X281840D01*
G02X282290Y253030I0J-713D01*
G03X282940Y253340I250J312D01*
G01Y253880D01*
X282790Y254020D01*
X282720Y254030D01*
G02X284850Y256160I220J1910D01*
G01X284860Y256090D01*
X285410Y255540D01*
G03X286090Y255820I281J283D01*
G01Y258850D01*
X285850Y259080D01*
X285780Y259090D01*
G02X287910Y261220I220J1910D01*
G01X287920Y261150D01*
X289010Y260050D01*
Y253340D01*
G03X289660Y253030I400J2D01*
G02X290110Y253190I450J-553D01*
G01X291290D01*
G02X291580Y253130I4J-711D01*
G03X292140Y253490I161J366D01*
G01Y266100D01*
X287500Y270740D01*
X267950D01*
G02X267240Y271460I0J710D01*
G01Y278540D01*
G02X267950Y279260I710J10D01*
G01X276120D01*
Y281830D01*
X276800Y282510D01*
Y286520D01*
X276720Y286580D01*
G02X276430Y287140I421J573D01*
G01Y292860D01*
G02X277140Y293570I715J-5D01*
G01X281380D01*
G02X282090Y292860I-5J-715D01*
G01Y287140D01*
G02X281800Y286580I-711J13D01*
G01X281720Y286520D01*
Y280470D01*
X281040Y279790D01*
Y279260D01*
X289210D01*
G02X289920Y278540I0J-710D01*
G01Y273160D01*
X295560Y267520D01*
Y267120D01*
G03X295900Y266980I200J2D01*
G01X302080Y273160D01*
Y278540D01*
G02X302790Y279260I710J10D01*
G01X310960D01*
Y281830D01*
X311280Y282150D01*
Y286520D01*
X311200Y286580D01*
G02X310910Y287140I421J573D01*
G01Y292860D01*
G02X311620Y293570I715J-5D01*
G01X315860D01*
G02X316570Y292860I-5J-715D01*
G01Y287140D01*
G02X316280Y286580I-711J13D01*
G01X316200Y286520D01*
Y280110D01*
X315880Y279790D01*
Y279260D01*
X324050D01*
G02X324760Y278540I0J-710D01*
G01Y271460D01*
G02X324050Y270740I-710J-10D01*
G01X304500D01*
X298710Y264950D01*
Y253490D01*
G03X299270Y253130I399J6D01*
G02X299560Y253190I286J-651D01*
G01X300740D01*
G02X301450Y252480I0J-710D01*
G01Y245100D01*
G02X300740Y244390I-710J0D01*
G01X299560D01*
G02X298850Y245100I0J710D01*
G01Y247830D01*
X298480Y247930D01*
G02X298300Y247680I-1473J870D01*
G01Y245100D01*
G02X297590Y244390I-710J0D01*
G01X296410D01*
G02X295700Y245100I0J710D01*
G01Y247680D01*
G02X295590Y247820I1288J1125D01*
G03X295260I-165J-111D01*
G02X295150Y247680I-1398J985D01*
G01Y245100D01*
G02X294440Y244390I-710J0D01*
G01X293260D01*
G02X292550Y245100I0J710D01*
G01Y247680D01*
G02X292370Y247930I1293J1120D01*
G01X292000Y247830D01*
Y245100D01*
G02X291290Y244390I-710J0D01*
G01X290110D01*
G02X289400Y245100I0J710D01*
G01Y248800D01*
X289020D01*
X289000Y248620D01*
G02X288870Y248160I-1452J162D01*
G01X288850Y248120D01*
Y245100D01*
G02X288140Y244390I-710J0D01*
G01X286960D01*
G02X286250Y245100I0J710D01*
G01Y248120D01*
X286230Y248160D01*
G02X286160Y248330I1315J641D01*
G03X285790I-185J-65D01*
G02X285720Y248160I-1385J471D01*
G01X285700Y248120D01*
Y245100D01*
G02X284990Y244390I-710J0D01*
G01X283810D01*
G02X283100Y245100I0J710D01*
G01Y248120D01*
X283080Y248160D01*
G02X282950Y248620I1322J622D01*
G01X282930Y248800D01*
X282550D01*
Y245100D01*
G02X281840Y244390I-710J0D01*
G37*
G36*
G01X293460Y163250D02*
G02X290540I-1460J-1250D01*
G01Y196570D01*
X289240Y197870D01*
Y198920D01*
G03X288560Y199200I-399J-3D01*
G01X288200Y198850D01*
Y195570D01*
X288860D01*
G02X289570Y194860I-5J-715D01*
G01Y189140D01*
G02X288860Y188430I-715J5D01*
G01X284620D01*
G02X283910Y189140I5J715D01*
G01Y194860D01*
G02X284620Y195570I715J-5D01*
G01X285280D01*
Y200050D01*
X286090Y200860D01*
Y201580D01*
X285720D01*
X285690Y201410D01*
G02X284990Y200810I-700J108D01*
G01X283810D01*
G02X283100Y201520I0J710D01*
G01Y203450D01*
G03X282760Y203600I-201J5D01*
G02X282550Y203420I-1540J1584D01*
G01Y201520D01*
G02X281840Y200810I-710J0D01*
G01X280660D01*
G02X279950Y201520I0J710D01*
G01Y203000D01*
X276130D01*
X266210Y193080D01*
Y184000D01*
G02X261790I-2210J0D01*
G01Y194920D01*
X274290Y207420D01*
X279950D01*
Y208900D01*
G02X280660Y209610I710J0D01*
G01X281840D01*
G02X282550Y208900I0J-710D01*
G01Y207000D01*
G02X282760Y206820I-1330J-1764D01*
G03X283100Y206970I139J145D01*
G01Y208900D01*
G02X283810Y209610I710J0D01*
G01X284990D01*
G02X285700Y208900I0J-710D01*
G01Y205200D01*
X286080D01*
X286100Y205380D01*
G02X286230Y205840I1452J-162D01*
G01X286250Y205880D01*
Y208900D01*
G02X286960Y209610I710J0D01*
G01X288140D01*
G02X288850Y208900I0J-710D01*
G01Y205880D01*
X288870Y205840D01*
G02X288940Y205670I-1315J-641D01*
G03X289310I185J65D01*
G02X289380Y205840I1385J-471D01*
G01X289400Y205880D01*
Y208900D01*
G02X290110Y209610I710J0D01*
G01X291290D01*
G02X292000Y208900I0J-710D01*
G01Y205880D01*
X292020Y205840D01*
G02X292090Y205670I-1315J-641D01*
G03X292460I185J65D01*
G02X292530Y205840I1385J-471D01*
G01X292550Y205880D01*
Y208900D01*
G02X293260Y209610I710J0D01*
G01X294440D01*
G02X295150Y208900I0J-710D01*
G01Y205880D01*
X295170Y205840D01*
G02X295300Y205380I-1322J-622D01*
G01X295320Y205200D01*
X295700D01*
Y208900D01*
G02X296410Y209610I710J0D01*
G01X297590D01*
G02X298300Y208900I0J-710D01*
G01Y201520D01*
G02X297590Y200810I-710J0D01*
G01X296410D01*
G02X295960Y200970I0J713D01*
G03X295310Y200660I-250J-312D01*
G01Y200560D01*
X298460Y197410D01*
Y185250D01*
G02X295540I-1460J-1250D01*
G01Y196210D01*
X294140Y197600D01*
G03X293460Y197320I-281J-283D01*
G01Y163250D01*
G37*
G36*
G01X316380Y145430D02*
X312140D01*
G02X311430Y146140I5J715D01*
G01Y147540D01*
X306400D01*
X300540Y153400D01*
Y167750D01*
G02X300500Y170190I1461J1244D01*
G01X300540Y170250D01*
Y170600D01*
X308630Y178690D01*
G02X310540Y183310I3372J1311D01*
G01Y184760D01*
X311290Y185510D01*
Y200660D01*
G03X310640Y200970I-400J-2D01*
G02X310190Y200810I-450J553D01*
G01X309010D01*
G02X308300Y201520I0J710D01*
G01Y208900D01*
G02X309010Y209610I710J0D01*
G01X310190D01*
G02X310900Y208900I0J-710D01*
G01Y205200D01*
X311280D01*
X311300Y205380D01*
G02X311420Y205820I1452J-160D01*
G01X311440Y205860D01*
Y209460D01*
X309900Y211000D01*
X310720Y211830D01*
G03X310440Y212510I-282J282D01*
G01X284900D01*
X282510Y214900D01*
Y241490D01*
X311490D01*
Y239910D01*
G03X312170Y239630I398J2D01*
G01X313460Y240910D01*
X318140D01*
X318180Y240930D01*
G02X318620Y241050I600J-1332D01*
G01X318800Y241070D01*
Y241450D01*
X315100D01*
G02X314390Y242160I0J710D01*
G01Y243340D01*
G02X315100Y244050I710J0D01*
G01X322480D01*
G02X323190Y243340I0J-710D01*
G01Y242160D01*
G02X323030Y241710I-713J0D01*
G03X323340Y241060I312J-250D01*
G01X327880D01*
X328280Y241460D01*
X329430D01*
Y242860D01*
G02X330140Y243570I715J-5D01*
G01X330800D01*
Y244140D01*
X329850Y245080D01*
X329780Y245090D01*
G02X331910Y247220I220J1910D01*
G01X331920Y247150D01*
X333720Y245340D01*
Y243570D01*
X334380D01*
G02X335090Y242860I-5J-715D01*
G01Y237140D01*
G02X334380Y236430I-715J5D01*
G01X331600D01*
G03X331310Y235750I-6J-399D01*
G01X358460Y208600D01*
Y198040D01*
X360230Y196280D01*
G03X360910Y196560I281J283D01*
G01Y196830D01*
G02X361620Y197540I710J0D01*
G01X367120D01*
G02X367830Y196830I0J-710D01*
G01Y191330D01*
G02X367120Y190620I-710J0D01*
G01X361620D01*
G02X360910Y191330I0J710D01*
G01Y192620D01*
X359760D01*
X355540Y196840D01*
Y207400D01*
X327950Y234990D01*
X327550D01*
G03X327410Y234650I0J-199D01*
G01X347460Y214590D01*
Y182600D01*
X351650Y178420D01*
X351720Y178410D01*
G02X349590Y176280I-220J-1910D01*
G01X349580Y176350D01*
X344540Y181400D01*
Y213390D01*
X326090Y231840D01*
X325190D01*
G03X324910Y231160I3J-399D01*
G01X342460Y213600D01*
Y180590D01*
X351130Y171920D01*
X360910D01*
Y173210D01*
G02X361620Y173920I710J0D01*
G01X367120D01*
G02X367830Y173210I0J-710D01*
G01Y167710D01*
G02X367120Y167000I-710J0D01*
G01X361620D01*
G02X360910Y167710I0J710D01*
G01Y169000D01*
X349930D01*
X339540Y179390D01*
Y212400D01*
X323250Y228690D01*
X322420D01*
Y228320D01*
X322590Y228290D01*
G02X323190Y227590I-108J-700D01*
G01Y226410D01*
G02X322480Y225700I-710J0D01*
G01X315100D01*
G02X314850Y225740I-14J712D01*
G03X314310Y225370I-142J-372D01*
G01Y225130D01*
X314640Y224980D01*
G02X315100Y225150I460J-537D01*
G01X322480D01*
G02X323190Y224440I0J-710D01*
G01Y223260D01*
G02X322480Y222550I-710J0D01*
G01X315100D01*
G02X314850Y222590I-14J712D01*
G03X314310Y222220I-142J-372D01*
G01Y221980D01*
X314640Y221830D01*
G02X315100Y222000I460J-537D01*
G01X322480D01*
G02X323190Y221290I0J-710D01*
G01Y220110D01*
G02X322480Y219400I-710J0D01*
G01X315100D01*
G02X314850Y219440I-14J712D01*
G03X314310Y219070I-142J-372D01*
G01Y218830D01*
X314640Y218680D01*
G02X315100Y218850I460J-537D01*
G01X322480D01*
G02X323190Y218140I0J-710D01*
G01Y216960D01*
G02X322480Y216250I-710J0D01*
G01X315100D01*
G02X314850Y216290I-14J712D01*
G03X314310Y215920I-142J-372D01*
G01Y215680D01*
X314640Y215530D01*
G02X315100Y215700I460J-537D01*
G01X322480D01*
G02X323190Y214990I0J-710D01*
G01Y213810D01*
G02X322480Y213100I-710J0D01*
G01X315100D01*
G02X314850Y213140I-14J712D01*
G03X314310Y212770I-142J-372D01*
G01Y212530D01*
X314640Y212380D01*
G02X315100Y212550I460J-537D01*
G01X322480D01*
G02X323190Y211840I0J-710D01*
G01Y210660D01*
G02X322480Y209950I-710J0D01*
G01X315100D01*
G02X314690Y210080I0J712D01*
G03X314060Y209750I-230J-327D01*
G01Y205860D01*
X314080Y205820D01*
G02X314210Y205210I-1332J-603D01*
G01Y184310D01*
X313460Y183560D01*
Y183310D01*
X313570Y183260D01*
G02X314830Y182260I-1564J-3265D01*
G03X315540Y182510I311J251D01*
G01Y184600D01*
X326400Y195460D01*
X334750D01*
G02Y192540I1250J-1460D01*
G01X327600D01*
X319360Y184290D01*
G03X319640Y183610I283J-281D01*
G01X324900D01*
G02X325610Y182900I0J-710D01*
G01Y177100D01*
G02X324900Y176390I-710J0D01*
G01X319100D01*
G02X318950Y176410I18J708D01*
G03X318460Y176020I-89J-391D01*
G01Y174400D01*
X315370Y171310D01*
G02X313310Y173370I-3370J-1310D01*
G01X315540Y175600D01*
Y177490D01*
G03X314830Y177740I-399J-1D01*
G02X310810Y176580I-2829J2260D01*
G01X310690Y176620D01*
X303780Y169720D01*
X303820Y169600D01*
G02X303460Y167750I-1821J-606D01*
G01Y154600D01*
X307600Y150460D01*
X311430D01*
Y151860D01*
G02X312140Y152570I715J-5D01*
G01X316380D01*
G02X317090Y151860I-5J-715D01*
G01Y146140D01*
G02X316380Y145430I-715J5D01*
G37*
G54D38*
X357850Y257350D03*
G54D37*
X312000Y160000D03*
G54D36*
X70830Y240160D03*
Y259840D03*
X89170Y240160D03*
X110830D03*
X89170Y259840D03*
%LPD*%
G75*
G54D10*
X18850Y132350D03*
Y257350D03*
X357850Y132350D03*
Y257350D03*
G54D11*
X60000Y174730D03*
G54D20*
X297000Y227000D03*
G54D30*
G01X312750Y205210D02*
Y210000D01*
X311750Y211000D01*
X313000Y212250D01*
Y238600D01*
X314000Y239600D01*
X318790D01*
G54D21*
X281250Y205210D03*
X284400D03*
X287550D03*
Y248790D03*
X284400D03*
X281250D03*
X290700Y205210D03*
X293850D03*
X297000D03*
X300150D03*
X303300D03*
X306450D03*
X309600D03*
X312750D03*
Y248790D03*
X309600D03*
X306450D03*
X303300D03*
X300150D03*
X297000D03*
X293850D03*
X290700D03*
G54D12*
X50000Y211850D03*
X70000D03*
X60000D03*
G54D31*
G01X92260Y164000D02*
Y159640D01*
X92000Y159380D01*
Y148000D01*
X130000Y110000D01*
G01D02*
X138000Y102000D01*
Y43000D01*
G01X336000Y133740D02*
X331140D01*
X326000Y128600D01*
Y123000D01*
X300000Y97000D01*
X285670D01*
X275830Y106840D01*
G01X264000Y184000D02*
Y194000D01*
X275210Y205210D01*
X281250D01*
G01X322000Y160000D02*
Y154120D01*
X321740Y153860D01*
Y149000D01*
G54D22*
X275210Y217550D03*
Y214400D03*
Y242750D03*
Y239600D03*
Y236450D03*
Y233300D03*
Y230150D03*
Y227000D03*
Y223850D03*
Y220700D03*
X318790Y211250D03*
Y214400D03*
Y217550D03*
Y220700D03*
Y223850D03*
Y227000D03*
Y230150D03*
Y233300D03*
Y236450D03*
Y239600D03*
Y242750D03*
G54D13*
X49170Y240160D03*
X110830Y259840D03*
X227830Y104840D03*
X275830Y106840D03*
X321830D03*
G54D32*
G01X70000Y220210D02*
Y211850D01*
G01X60000Y174730D02*
X83410D01*
X83680Y175000D01*
X92260D01*
G01X60000Y211850D02*
Y174730D01*
G01X70000Y211850D02*
X83230D01*
X83640Y212260D01*
X89000D01*
G01X92260Y175000D02*
Y164000D01*
G54D23*
X275210Y211250D03*
G54D14*
X49170Y259840D03*
X70830Y240160D03*
Y259840D03*
X89170Y240160D03*
X110830D03*
X89170Y259840D03*
X206170Y85160D03*
X227830D03*
X206170Y104840D03*
X254170Y87160D03*
Y106840D03*
X275830Y87160D03*
X300170D03*
X321830D03*
X300170Y106840D03*
G54D33*
G01X336000Y126260D02*
Y113000D01*
G01Y133740D02*
Y145000D01*
G54D15*
X99740Y164000D03*
X92260D03*
Y175000D03*
X99740D03*
X102260Y212000D03*
X109740D03*
X110260Y200000D03*
X117740D03*
X257740Y222000D03*
X250260D03*
X258740Y208000D03*
X251260D03*
X257740Y232000D03*
X250260D03*
X286740Y192000D03*
X279260D03*
Y290000D03*
X286740D03*
X321740Y149000D03*
X314260D03*
X313740Y290000D03*
X306260D03*
X332260Y240000D03*
X339740D03*
Y267000D03*
X332260D03*
G54D24*
X278580Y275000D03*
X313420D03*
G54D34*
G01X141000Y212000D02*
X109740D01*
G01X176000Y8120D02*
X171880D01*
X167000Y13000D01*
Y51000D01*
X161000Y57000D01*
G01X200000Y16260D02*
Y26000D01*
X164000Y62000D01*
G01X369000Y271000D02*
X371000Y269000D01*
Y18000D01*
X361000Y8000D01*
X235000D01*
X214000Y29000D01*
X207000D01*
G01X275210Y230150D02*
X268850D01*
X258000Y241000D01*
X246000D01*
X220000Y215000D01*
Y92990D01*
X227830Y85160D01*
G01Y104840D02*
Y194830D01*
X250260Y217260D01*
Y222000D01*
G01X251260Y208000D02*
Y180740D01*
X263000Y169000D01*
Y99990D01*
X275830Y87160D01*
G01X258740Y208000D02*
Y208740D01*
X267550Y217550D01*
X275210D01*
G01Y220700D02*
X262420D01*
X261120Y222000D01*
X257740D01*
G01Y232000D02*
X262000D01*
X267000Y227000D01*
X275210D01*
G01X235000Y259000D02*
X250860D01*
X270260Y239600D01*
X275210D01*
G01Y236450D02*
X267550D01*
X257000Y247000D01*
X253000D01*
G01X286740Y192000D02*
Y199450D01*
X287550Y200260D01*
Y205210D01*
G01X292000Y162000D02*
Y197170D01*
X290700Y198470D01*
Y205210D01*
G01X268000Y251000D02*
Y246860D01*
X272110Y242750D01*
X275210D01*
G01X284400Y248790D02*
Y254480D01*
X282940Y255940D01*
G01X287550Y248790D02*
Y259450D01*
X286000Y261000D01*
G01X302000Y169000D02*
Y154000D01*
X307000Y149000D01*
X314260D01*
G01X312000Y170000D02*
X317000Y175000D01*
Y184000D01*
X327000Y194000D01*
X336000D01*
G01X297000Y184000D02*
Y196810D01*
X293850Y199960D01*
Y205210D01*
G01X312000Y180000D02*
X302000Y170000D01*
Y169000D01*
G01X312750Y205210D02*
Y184910D01*
X312000Y184160D01*
Y180000D01*
G01X332260Y267000D02*
Y266260D01*
X327000Y261000D01*
X313000D01*
X309600Y257600D01*
Y248790D01*
G01X318790Y236450D02*
X328550D01*
X357000Y208000D01*
Y197440D01*
X360360Y194080D01*
X364370D01*
G01X312750Y248790D02*
X314790D01*
X322000Y256000D01*
G01X351500Y176500D02*
X346000Y182000D01*
Y213990D01*
X326690Y233300D01*
X318790D01*
G01Y230150D02*
X323850D01*
X341000Y213000D01*
Y179990D01*
X350530Y170460D01*
X364370D01*
G01X303000Y264000D02*
Y257190D01*
X306450Y253740D01*
Y248790D01*
G01X318790Y239600D02*
X328480D01*
X328880Y240000D01*
X332260D01*
G01X339000Y170000D02*
X322000D01*
G01X339740Y267000D02*
Y252260D01*
X348000Y244000D01*
Y229000D01*
X359300Y217700D01*
X364370D01*
G01X332260Y240000D02*
Y244740D01*
X330000Y247000D01*
G01X353500Y184500D02*
X359670Y178330D01*
X364370D01*
G54D16*
X109370Y189000D03*
X118630D03*
G54D25*
X312000Y160000D03*
X322000D03*
X312000Y180000D03*
Y170000D03*
X322000D03*
G54D35*
G01X49170Y240160D02*
X54680D01*
X54840Y240000D01*
X58000D01*
X70000Y228000D01*
Y220210D01*
G01X110830Y259840D02*
X98670Y272000D01*
X57830D01*
X49170Y263340D01*
Y259840D01*
G01X279260Y290000D02*
Y281490D01*
X278580Y280810D01*
Y275000D01*
G01X313740Y290000D02*
Y281130D01*
X313420Y280810D01*
Y275000D01*
G54D26*
X322000Y180000D03*
G54D17*
X89000Y219740D03*
Y212260D03*
X336000Y126260D03*
Y133740D03*
G54D27*
X364370Y162590D03*
Y154710D03*
Y186210D03*
Y178330D03*
Y170460D03*
Y217700D03*
Y209830D03*
Y201960D03*
Y194080D03*
Y233450D03*
Y225580D03*
G54D18*
X138000Y43000D03*
X130000Y110000D03*
X141000Y212000D03*
X161000Y57000D03*
X164000Y62000D03*
X176000Y8120D03*
X200000Y16260D03*
X207000Y29000D03*
X253000Y247000D03*
X235000Y259000D03*
X292000Y162000D03*
X264000Y184000D03*
X268000Y251000D03*
X282940Y255940D03*
X286000Y261000D03*
X297000Y184000D03*
X302000Y169000D03*
X322000Y256000D03*
X303000Y264000D03*
X336000Y113000D03*
X351500Y176500D03*
X339000Y170000D03*
X336000Y194000D03*
X330000Y247000D03*
X353500Y184500D03*
X369000Y271000D03*
G54D28*
G01X50000Y205080D02*
Y211850D01*
G01D02*
Y218620D01*
G01X46190Y211850D02*
X50000D01*
G01D02*
X53810D01*
G01X99740Y160230D02*
Y164000D01*
G01Y171230D02*
Y175000D01*
G01D02*
Y178770D01*
G01X96710Y175000D02*
X99740D01*
G01D02*
X102770D01*
G01X99740Y164000D02*
Y167770D01*
G01X96710Y164000D02*
X99740D01*
G01D02*
X102770D01*
G01X89000Y216710D02*
Y219740D01*
G01D02*
Y222770D01*
G01X85230Y219740D02*
X89000D01*
G01D02*
X92770D01*
G01X106670Y240160D02*
X110830D01*
G01X118630Y185430D02*
Y189000D01*
G01D02*
Y192570D01*
G01X115750Y189000D02*
X118630D01*
G01D02*
X121510D01*
G01X117740Y196230D02*
Y200000D01*
G01D02*
Y203770D01*
G01X114710Y200000D02*
X117740D01*
G01D02*
X120770D01*
G01X110830Y236000D02*
Y240160D01*
G01D02*
Y244320D01*
G01Y240160D02*
X114990D01*
G01X250260Y228230D02*
Y232000D01*
G01D02*
Y235770D01*
G01X247230Y232000D02*
X250260D01*
G01D02*
X253290D01*
G01X279260Y188230D02*
Y192000D01*
G01X284400Y200610D02*
Y205210D01*
G01D02*
Y209810D01*
G01Y205210D02*
X285900D01*
G01X279260Y192000D02*
Y195770D01*
G01X276230Y192000D02*
X279260D01*
G01D02*
X282290D01*
G01X289200Y248790D02*
X290700D01*
G01X275210Y222350D02*
Y223850D01*
G01D02*
Y225350D01*
G01X270610Y223850D02*
X275210D01*
G01D02*
X279810D01*
G01X286740Y286230D02*
Y290000D01*
G01D02*
Y293770D01*
G01X283710Y290000D02*
X286740D01*
G01D02*
X289770D01*
G01X312000Y156190D02*
Y160000D01*
G01D02*
Y163810D01*
G01X308190Y160000D02*
X312000D01*
G01D02*
X315810D01*
G01X309600Y200610D02*
Y205210D01*
G01D02*
Y209810D01*
G01X308100Y205210D02*
X309600D01*
G01D02*
X311100D01*
G01X290700Y244190D02*
Y248790D01*
G01D02*
Y253390D01*
G01X318790Y241250D02*
Y242750D01*
G01D02*
Y244250D01*
G01X314190Y242750D02*
X318790D01*
G01D02*
X323390D01*
G01X306260Y286230D02*
Y290000D01*
G01D02*
Y293770D01*
G01X303230Y290000D02*
X306260D01*
G01D02*
X309290D01*
G01X339740Y236230D02*
Y240000D01*
G01D02*
Y243770D01*
G01X336710Y240000D02*
X339740D01*
G01D02*
X342770D01*
G01X364370Y198300D02*
Y201960D01*
G01D02*
Y205620D01*
G01X360710Y201960D02*
X364370D01*
G01D02*
X368030D01*
G01X364370Y229790D02*
Y233450D01*
G01D02*
Y237110D01*
G01X360710Y233450D02*
X364370D01*
G01D02*
X368030D01*
G54D19*
X251470Y30850D03*
Y40850D03*
Y50850D03*
X326470Y30850D03*
Y40850D03*
Y50850D03*
G54D29*
G01X110260Y200000D02*
Y194050D01*
X109370Y193160D01*
Y189000D01*
G01X109740Y212000D02*
Y204880D01*
X110260Y204360D01*
Y200000D01*
G01X89000Y212260D02*
X98380D01*
X98640Y212000D01*
X102260D01*
G01X278580Y275000D02*
X285660D01*
X293850Y266810D01*
Y248790D01*
G01X297000D02*
Y265660D01*
X306340Y275000D01*
X313420D01*
M02*
