G04 ================== begin FILE IDENTIFICATION RECORD ==================*
G04 Layout Name:  SMARTSLEEVESYSTEM.brd*
G04 Film Name:    DRILLLEGEND*
G04 File Format:  Gerber RS274X*
G04 File Origin:  Cadence Allegro 17.2-P019*
G04 Origin Date:  Sun Feb 05 19:05:20 2017*
G04 *
G04 Layer:  MANUFACTURING/NCLEGEND-1-2*
G04 Layer:  BOARD GEOMETRY/DESIGN_OUTLINE*
G04 *
G04 Offset:    (0.0 0.0)*
G04 Mirror:    No*
G04 Mode:      Positive*
G04 Rotation:  0*
G04 FullContactRelief:  No*
G04 UndefLineWidth:     10.0*
G04 ================== end FILE IDENTIFICATION RECORD ====================*
%FSLAX25Y25*MOIN*%
%IR0*IPPOS*OFA0.00000B0.00000*MIA0B0*SFA1.00000B1.00000*%
%AMMACRO10*
1,1,.01,.0625,0.0*
20,1,.01,.0625,0.0,.06155,-.010853,0.0*
1,1,.01,.06155,-.010853*
20,1,.01,.06155,-.010853,.058731,-.021376,0.0*
1,1,.01,.058731,-.021376*
20,1,.01,.058731,-.021376,.054127,-.03125,0.0*
1,1,.01,.054127,-.03125*
20,1,.01,.054127,-.03125,.047878,-.040174,0.0*
1,1,.01,.047878,-.040174*
20,1,.01,.047878,-.040174,.040174,-.047878,0.0*
1,1,.01,.040174,-.047878*
20,1,.01,.040174,-.047878,.03125,-.054127,0.0*
1,1,.01,.03125,-.054127*
20,1,.01,.03125,-.054127,.021376,-.058731,0.0*
1,1,.01,.021376,-.058731*
20,1,.01,.021376,-.058731,.010853,-.06155,0.0*
1,1,.01,.010853,-.06155*
20,1,.01,.010853,-.06155,0.0,-.0625,0.0*
1,1,.01,0.0,-.0625*
20,1,.01,0.0,-.0625,-.010853,-.06155,0.0*
1,1,.01,-.010853,-.06155*
20,1,.01,-.010853,-.06155,-.021376,-.058731,0.0*
1,1,.01,-.021376,-.058731*
20,1,.01,-.021376,-.058731,-.03125,-.054127,0.0*
1,1,.01,-.03125,-.054127*
20,1,.01,-.03125,-.054127,-.040174,-.047878,0.0*
1,1,.01,-.040174,-.047878*
20,1,.01,-.040174,-.047878,-.047878,-.040174,0.0*
1,1,.01,-.047878,-.040174*
20,1,.01,-.047878,-.040174,-.054127,-.03125,0.0*
1,1,.01,-.054127,-.03125*
20,1,.01,-.054127,-.03125,-.058731,-.021376,0.0*
1,1,.01,-.058731,-.021376*
20,1,.01,-.058731,-.021376,-.06155,-.010853,0.0*
1,1,.01,-.06155,-.010853*
20,1,.01,-.06155,-.010853,-.0625,0.0,0.0*
1,1,.01,-.0625,0.0*
20,1,.01,-.0625,0.0,-.06155,.010853,0.0*
1,1,.01,-.06155,.010853*
20,1,.01,-.06155,.010853,-.058731,.021376,0.0*
1,1,.01,-.058731,.021376*
20,1,.01,-.058731,.021376,-.054127,.03125,0.0*
1,1,.01,-.054127,.03125*
20,1,.01,-.054127,.03125,-.047878,.040174,0.0*
1,1,.01,-.047878,.040174*
20,1,.01,-.047878,.040174,-.040174,.047878,0.0*
1,1,.01,-.040174,.047878*
20,1,.01,-.040174,.047878,-.03125,.054127,0.0*
1,1,.01,-.03125,.054127*
20,1,.01,-.03125,.054127,-.021376,.058731,0.0*
1,1,.01,-.021376,.058731*
20,1,.01,-.021376,.058731,-.010853,.06155,0.0*
1,1,.01,-.010853,.06155*
20,1,.01,-.010853,.06155,0.0,.0625,0.0*
1,1,.01,0.0,.0625*
20,1,.01,0.0,.0625,.010853,.06155,0.0*
1,1,.01,.010853,.06155*
20,1,.01,.010853,.06155,.021376,.058731,0.0*
1,1,.01,.021376,.058731*
20,1,.01,.021376,.058731,.03125,.054127,0.0*
1,1,.01,.03125,.054127*
20,1,.01,.03125,.054127,.040174,.047878,0.0*
1,1,.01,.040174,.047878*
20,1,.01,.040174,.047878,.047878,.040174,0.0*
1,1,.01,.047878,.040174*
20,1,.01,.047878,.040174,.054127,.03125,0.0*
1,1,.01,.054127,.03125*
20,1,.01,.054127,.03125,.058731,.021376,0.0*
1,1,.01,.058731,.021376*
20,1,.01,.058731,.021376,.06155,.010853,0.0*
1,1,.01,.06155,.010853*
20,1,.01,.06155,.010853,.0625,0.0,0.0*
1,1,.01,.0625,0.0*
%
%ADD10MACRO10*%
%AMMACRO11*
1,1,.01,.021,0.0*
20,1,.01,.021,0.0,.020681,-.003647,0.0*
1,1,.01,.020681,-.003647*
20,1,.01,.020681,-.003647,.019734,-.007182,0.0*
1,1,.01,.019734,-.007182*
20,1,.01,.019734,-.007182,.018187,-.0105,0.0*
1,1,.01,.018187,-.0105*
20,1,.01,.018187,-.0105,.016087,-.013499,0.0*
1,1,.01,.016087,-.013499*
20,1,.01,.016087,-.013499,.013499,-.016087,0.0*
1,1,.01,.013499,-.016087*
20,1,.01,.013499,-.016087,.0105,-.018187,0.0*
1,1,.01,.0105,-.018187*
20,1,.01,.0105,-.018187,.007182,-.019734,0.0*
1,1,.01,.007182,-.019734*
20,1,.01,.007182,-.019734,.003647,-.020681,0.0*
1,1,.01,.003647,-.020681*
20,1,.01,.003647,-.020681,0.0,-.021,0.0*
1,1,.01,0.0,-.021*
20,1,.01,0.0,-.021,-.003647,-.020681,0.0*
1,1,.01,-.003647,-.020681*
20,1,.01,-.003647,-.020681,-.007182,-.019734,0.0*
1,1,.01,-.007182,-.019734*
20,1,.01,-.007182,-.019734,-.0105,-.018187,0.0*
1,1,.01,-.0105,-.018187*
20,1,.01,-.0105,-.018187,-.013499,-.016087,0.0*
1,1,.01,-.013499,-.016087*
20,1,.01,-.013499,-.016087,-.016087,-.013499,0.0*
1,1,.01,-.016087,-.013499*
20,1,.01,-.016087,-.013499,-.018187,-.0105,0.0*
1,1,.01,-.018187,-.0105*
20,1,.01,-.018187,-.0105,-.019734,-.007182,0.0*
1,1,.01,-.019734,-.007182*
20,1,.01,-.019734,-.007182,-.020681,-.003647,0.0*
1,1,.01,-.020681,-.003647*
20,1,.01,-.020681,-.003647,-.021,0.0,0.0*
1,1,.01,-.021,0.0*
20,1,.01,-.021,0.0,-.020681,.003647,0.0*
1,1,.01,-.020681,.003647*
20,1,.01,-.020681,.003647,-.019734,.007182,0.0*
1,1,.01,-.019734,.007182*
20,1,.01,-.019734,.007182,-.018187,.0105,0.0*
1,1,.01,-.018187,.0105*
20,1,.01,-.018187,.0105,-.016087,.013499,0.0*
1,1,.01,-.016087,.013499*
20,1,.01,-.016087,.013499,-.013499,.016087,0.0*
1,1,.01,-.013499,.016087*
20,1,.01,-.013499,.016087,-.0105,.018187,0.0*
1,1,.01,-.0105,.018187*
20,1,.01,-.0105,.018187,-.007182,.019734,0.0*
1,1,.01,-.007182,.019734*
20,1,.01,-.007182,.019734,-.003647,.020681,0.0*
1,1,.01,-.003647,.020681*
20,1,.01,-.003647,.020681,0.0,.021,0.0*
1,1,.01,0.0,.021*
20,1,.01,0.0,.021,.003647,.020681,0.0*
1,1,.01,.003647,.020681*
20,1,.01,.003647,.020681,.007182,.019734,0.0*
1,1,.01,.007182,.019734*
20,1,.01,.007182,.019734,.0105,.018187,0.0*
1,1,.01,.0105,.018187*
20,1,.01,.0105,.018187,.013499,.016087,0.0*
1,1,.01,.013499,.016087*
20,1,.01,.013499,.016087,.016087,.013499,0.0*
1,1,.01,.016087,.013499*
20,1,.01,.016087,.013499,.018187,.0105,0.0*
1,1,.01,.018187,.0105*
20,1,.01,.018187,.0105,.019734,.007182,0.0*
1,1,.01,.019734,.007182*
20,1,.01,.019734,.007182,.020681,.003647,0.0*
1,1,.01,.020681,.003647*
20,1,.01,.020681,.003647,.021,0.0,0.0*
1,1,.01,.021,0.0*
%
%ADD11MACRO11*%
%AMMACRO12*
1,1,.01,.021,0.0*
20,1,.01,.021,0.0,-.021,0.0,0.0*
1,1,.01,-.021,0.0*
1,1,.01,0.0,.021*
20,1,.01,0.0,.021,0.0,-.021,0.0*
1,1,.01,0.0,-.021*
%
%ADD12MACRO12*%
%AMMACRO15*
1,1,.01,.014,0.0*
20,1,.01,.014,0.0,-.014,0.0,0.0*
1,1,.01,-.014,0.0*
1,1,.01,0.0,.014*
20,1,.01,0.0,.014,0.0,-.014,0.0*
1,1,.01,0.0,-.014*
%
%ADD15MACRO15*%
%AMMACRO13*
1,1,.01,.019,0.0*
20,1,.01,.019,0.0,.018711,-.003299,0.0*
1,1,.01,.018711,-.003299*
20,1,.01,.018711,-.003299,.017854,-.006498,0.0*
1,1,.01,.017854,-.006498*
20,1,.01,.017854,-.006498,.016454,-.0095,0.0*
1,1,.01,.016454,-.0095*
20,1,.01,.016454,-.0095,.014555,-.012213,0.0*
1,1,.01,.014555,-.012213*
20,1,.01,.014555,-.012213,.012213,-.014555,0.0*
1,1,.01,.012213,-.014555*
20,1,.01,.012213,-.014555,.0095,-.016454,0.0*
1,1,.01,.0095,-.016454*
20,1,.01,.0095,-.016454,.006498,-.017854,0.0*
1,1,.01,.006498,-.017854*
20,1,.01,.006498,-.017854,.003299,-.018711,0.0*
1,1,.01,.003299,-.018711*
20,1,.01,.003299,-.018711,0.0,-.019,0.0*
1,1,.01,0.0,-.019*
20,1,.01,0.0,-.019,-.003299,-.018711,0.0*
1,1,.01,-.003299,-.018711*
20,1,.01,-.003299,-.018711,-.006498,-.017854,0.0*
1,1,.01,-.006498,-.017854*
20,1,.01,-.006498,-.017854,-.0095,-.016454,0.0*
1,1,.01,-.0095,-.016454*
20,1,.01,-.0095,-.016454,-.012213,-.014555,0.0*
1,1,.01,-.012213,-.014555*
20,1,.01,-.012213,-.014555,-.014555,-.012213,0.0*
1,1,.01,-.014555,-.012213*
20,1,.01,-.014555,-.012213,-.016454,-.0095,0.0*
1,1,.01,-.016454,-.0095*
20,1,.01,-.016454,-.0095,-.017854,-.006498,0.0*
1,1,.01,-.017854,-.006498*
20,1,.01,-.017854,-.006498,-.018711,-.003299,0.0*
1,1,.01,-.018711,-.003299*
20,1,.01,-.018711,-.003299,-.019,0.0,0.0*
1,1,.01,-.019,0.0*
20,1,.01,-.019,0.0,-.018711,.003299,0.0*
1,1,.01,-.018711,.003299*
20,1,.01,-.018711,.003299,-.017854,.006498,0.0*
1,1,.01,-.017854,.006498*
20,1,.01,-.017854,.006498,-.016454,.0095,0.0*
1,1,.01,-.016454,.0095*
20,1,.01,-.016454,.0095,-.014555,.012213,0.0*
1,1,.01,-.014555,.012213*
20,1,.01,-.014555,.012213,-.012213,.014555,0.0*
1,1,.01,-.012213,.014555*
20,1,.01,-.012213,.014555,-.0095,.016454,0.0*
1,1,.01,-.0095,.016454*
20,1,.01,-.0095,.016454,-.006498,.017854,0.0*
1,1,.01,-.006498,.017854*
20,1,.01,-.006498,.017854,-.003299,.018711,0.0*
1,1,.01,-.003299,.018711*
20,1,.01,-.003299,.018711,0.0,.019,0.0*
1,1,.01,0.0,.019*
20,1,.01,0.0,.019,.003299,.018711,0.0*
1,1,.01,.003299,.018711*
20,1,.01,.003299,.018711,.006498,.017854,0.0*
1,1,.01,.006498,.017854*
20,1,.01,.006498,.017854,.0095,.016454,0.0*
1,1,.01,.0095,.016454*
20,1,.01,.0095,.016454,.012213,.014555,0.0*
1,1,.01,.012213,.014555*
20,1,.01,.012213,.014555,.014555,.012213,0.0*
1,1,.01,.014555,.012213*
20,1,.01,.014555,.012213,.016454,.0095,0.0*
1,1,.01,.016454,.0095*
20,1,.01,.016454,.0095,.017854,.006498,0.0*
1,1,.01,.017854,.006498*
20,1,.01,.017854,.006498,.018711,.003299,0.0*
1,1,.01,.018711,.003299*
20,1,.01,.018711,.003299,.019,0.0,0.0*
1,1,.01,.019,0.0*
%
%ADD13MACRO13*%
%AMMACRO14*
1,1,.01,.00985,0.0*
20,1,.01,.00985,0.0,.0097,-.00171,0.0*
1,1,.01,.0097,-.00171*
20,1,.01,.0097,-.00171,.009256,-.003369,0.0*
1,1,.01,.009256,-.003369*
20,1,.01,.009256,-.003369,.00853,-.004925,0.0*
1,1,.01,.00853,-.004925*
20,1,.01,.00853,-.004925,.007546,-.006331,0.0*
1,1,.01,.007546,-.006331*
20,1,.01,.007546,-.006331,.006331,-.007546,0.0*
1,1,.01,.006331,-.007546*
20,1,.01,.006331,-.007546,.004925,-.00853,0.0*
1,1,.01,.004925,-.00853*
20,1,.01,.004925,-.00853,.003369,-.009256,0.0*
1,1,.01,.003369,-.009256*
20,1,.01,.003369,-.009256,.00171,-.0097,0.0*
1,1,.01,.00171,-.0097*
20,1,.01,.00171,-.0097,0.0,-.00985,0.0*
1,1,.01,0.0,-.00985*
20,1,.01,0.0,-.00985,-.00171,-.0097,0.0*
1,1,.01,-.00171,-.0097*
20,1,.01,-.00171,-.0097,-.003369,-.009256,0.0*
1,1,.01,-.003369,-.009256*
20,1,.01,-.003369,-.009256,-.004925,-.00853,0.0*
1,1,.01,-.004925,-.00853*
20,1,.01,-.004925,-.00853,-.006331,-.007546,0.0*
1,1,.01,-.006331,-.007546*
20,1,.01,-.006331,-.007546,-.007546,-.006331,0.0*
1,1,.01,-.007546,-.006331*
20,1,.01,-.007546,-.006331,-.00853,-.004925,0.0*
1,1,.01,-.00853,-.004925*
20,1,.01,-.00853,-.004925,-.009256,-.003369,0.0*
1,1,.01,-.009256,-.003369*
20,1,.01,-.009256,-.003369,-.0097,-.00171,0.0*
1,1,.01,-.0097,-.00171*
20,1,.01,-.0097,-.00171,-.00985,0.0,0.0*
1,1,.01,-.00985,0.0*
20,1,.01,-.00985,0.0,-.0097,.00171,0.0*
1,1,.01,-.0097,.00171*
20,1,.01,-.0097,.00171,-.009256,.003369,0.0*
1,1,.01,-.009256,.003369*
20,1,.01,-.009256,.003369,-.00853,.004925,0.0*
1,1,.01,-.00853,.004925*
20,1,.01,-.00853,.004925,-.007546,.006331,0.0*
1,1,.01,-.007546,.006331*
20,1,.01,-.007546,.006331,-.006331,.007546,0.0*
1,1,.01,-.006331,.007546*
20,1,.01,-.006331,.007546,-.004925,.00853,0.0*
1,1,.01,-.004925,.00853*
20,1,.01,-.004925,.00853,-.003369,.009256,0.0*
1,1,.01,-.003369,.009256*
20,1,.01,-.003369,.009256,-.00171,.0097,0.0*
1,1,.01,-.00171,.0097*
20,1,.01,-.00171,.0097,0.0,.00985,0.0*
1,1,.01,0.0,.00985*
20,1,.01,0.0,.00985,.00171,.0097,0.0*
1,1,.01,.00171,.0097*
20,1,.01,.00171,.0097,.003369,.009256,0.0*
1,1,.01,.003369,.009256*
20,1,.01,.003369,.009256,.004925,.00853,0.0*
1,1,.01,.004925,.00853*
20,1,.01,.004925,.00853,.006331,.007546,0.0*
1,1,.01,.006331,.007546*
20,1,.01,.006331,.007546,.007546,.006331,0.0*
1,1,.01,.007546,.006331*
20,1,.01,.007546,.006331,.00853,.004925,0.0*
1,1,.01,.00853,.004925*
20,1,.01,.00853,.004925,.009256,.003369,0.0*
1,1,.01,.009256,.003369*
20,1,.01,.009256,.003369,.0097,.00171,0.0*
1,1,.01,.0097,.00171*
20,1,.01,.0097,.00171,.00985,0.0,0.0*
1,1,.01,.00985,0.0*
1,1,.01,.004925,0.0*
20,1,.01,.004925,0.0,-.004925,0.0,0.0*
1,1,.01,-.004925,0.0*
1,1,.01,0.0,.004925*
20,1,.01,0.0,.004925,0.0,-.004925,0.0*
1,1,.01,0.0,-.004925*
%
%ADD14MACRO14*%
%ADD16C,.01*%
G75*
%LPD*%
G75*
G54D10*
X18850Y132350D03*
Y257350D03*
X34950Y333500D03*
X357850Y132350D03*
Y257350D03*
G54D11*
X49170Y240160D03*
Y259840D03*
X34950Y383500D03*
X70830Y240160D03*
Y259840D03*
X89170Y240160D03*
X110830D03*
X89170Y259840D03*
X110830D03*
X206170Y85160D03*
X227830D03*
X206170Y104840D03*
X227830D03*
X254170Y87160D03*
Y106840D03*
X275830Y87160D03*
Y106840D03*
X300170Y87160D03*
X321830D03*
X300170Y106840D03*
X321830D03*
G54D12*
X34950Y358500D03*
X251470Y30850D03*
Y40850D03*
Y50850D03*
X326470Y30850D03*
Y40850D03*
Y50850D03*
G54D13*
X34950Y408500D03*
X312000Y160000D03*
X322000D03*
X312000Y180000D03*
Y170000D03*
X322000D03*
Y180000D03*
G54D14*
X34950Y458500D03*
X138000Y43000D03*
X130000Y110000D03*
X141000Y212000D03*
X161000Y57000D03*
X164000Y62000D03*
X176000Y8120D03*
X200000Y16260D03*
X207000Y29000D03*
X253000Y247000D03*
X235000Y259000D03*
X292000Y162000D03*
X264000Y184000D03*
X268000Y251000D03*
X282940Y255940D03*
X286000Y261000D03*
X297000Y184000D03*
X302000Y169000D03*
X322000Y256000D03*
X303000Y264000D03*
X336000Y113000D03*
X351500Y176500D03*
X339000Y170000D03*
X336000Y194000D03*
X330000Y247000D03*
X353500Y184500D03*
X369000Y271000D03*
G54D15*
X34950Y433500D03*
X364370Y162590D03*
Y154710D03*
Y186210D03*
Y178330D03*
Y170460D03*
Y217700D03*
Y209830D03*
Y201960D03*
Y194080D03*
Y233450D03*
Y225580D03*
G54D16*
G01X375000Y0D02*
Y300000D01*
X0D01*
Y0D01*
X375000D01*
G01X-10000Y321000D02*
Y546000D01*
X486000D01*
Y321000D01*
X-10000D01*
G01Y346000D02*
X486000D01*
G01X-10000Y396000D02*
X486000D01*
G01X-10000Y371000D02*
X486000D01*
G01X-10000Y421000D02*
X486000D01*
G01X-10000Y446000D02*
X486000D01*
G01X1000Y477250D02*
Y489750D01*
X6900D01*
G01X4720Y483710D02*
X1000D01*
G01X14490Y489750D02*
X18210D01*
G01X16350D02*
Y477250D01*
G01X14490D02*
X18210D01*
G01X29680Y483500D02*
X32780D01*
Y479750D01*
X31850Y478500D01*
X30760Y477670D01*
X29220Y477250D01*
X27670Y477670D01*
X26580Y478500D01*
X25650Y479750D01*
X25030Y481210D01*
X24720Y482870D01*
Y484330D01*
X25030Y485580D01*
X25650Y487040D01*
X26580Y488290D01*
X27510Y489120D01*
X28750Y489750D01*
X29830D01*
X31070Y489330D01*
X32010Y488500D01*
G01X37740Y489750D02*
Y480790D01*
X38360Y478920D01*
X39600Y477670D01*
X41150Y477250D01*
X42700Y477670D01*
X43940Y478920D01*
X44560Y480790D01*
Y489750D01*
G01X50450Y477250D02*
Y489750D01*
X54320D01*
X55560Y489120D01*
X56340Y488290D01*
X56650Y486620D01*
X56340Y484960D01*
X55410Y483920D01*
X54320Y483290D01*
X50450D01*
G01X54320D02*
X56650Y477250D01*
G01X69050D02*
X62850D01*
Y489750D01*
X69050D01*
G01X66570Y483710D02*
X62850D01*
G01X-10000Y471000D02*
X486000D01*
G01X-10000Y496000D02*
X486000D01*
G01X-10000Y521000D02*
X486000D01*
G01X79900Y496000D02*
Y321000D01*
G01X79590Y527250D02*
Y539750D01*
X82690D01*
X83930Y539120D01*
X84860Y538290D01*
X85640Y537040D01*
X86260Y535580D01*
X86410Y533500D01*
X86260Y531420D01*
X85640Y529960D01*
X84860Y528710D01*
X83930Y527870D01*
X82690Y527250D01*
X79590D01*
G01X92300D02*
Y539750D01*
X96170D01*
X97410Y539120D01*
X98190Y538290D01*
X98500Y536620D01*
X98190Y534960D01*
X97260Y533920D01*
X96170Y533290D01*
X92300D01*
G01X96170D02*
X98500Y527250D01*
G01X105940Y539750D02*
X109660D01*
G01X107800D02*
Y527250D01*
G01X105940D02*
X109660D01*
G01X117100Y539750D02*
Y527250D01*
X123300D01*
G01X129500Y539750D02*
Y527250D01*
X135700D01*
G01X160810Y538710D02*
X159880Y539330D01*
X158800Y539750D01*
X157560D01*
X156160Y539120D01*
X155080Y538080D01*
X154300Y536830D01*
X153680Y534750D01*
X153520Y532870D01*
X153840Y531000D01*
X154300Y529750D01*
X155230Y528500D01*
X156320Y527670D01*
X157400Y527250D01*
X158480D01*
X159570Y527670D01*
X160500Y528290D01*
X161280Y529120D01*
G01X166540Y527250D02*
Y539750D01*
G01X173060D02*
Y527250D01*
G01Y533500D02*
X166540D01*
G01X178320Y527250D02*
X182200Y539750D01*
X186080Y527250D01*
G01X184680Y531620D02*
X179720D01*
G01X191500Y527250D02*
Y539750D01*
X195370D01*
X196610Y539120D01*
X197390Y538290D01*
X197700Y536620D01*
X197390Y534960D01*
X196460Y533920D01*
X195370Y533290D01*
X191500D01*
G01X195370D02*
X197700Y527250D01*
G01X207000Y539750D02*
Y527250D01*
G01X203440Y539750D02*
X210560D01*
G01X219400Y526830D02*
X219090Y527040D01*
Y527460D01*
X219400Y527670D01*
X219710Y527460D01*
Y527040D01*
X219400Y526830D01*
G01Y532460D02*
X219090Y532670D01*
Y533080D01*
X219400Y533290D01*
X219710Y533080D01*
Y532670D01*
X219400Y532460D01*
G01X244200Y539750D02*
Y527250D01*
G01X240640Y539750D02*
X247760D01*
G01X256600Y527250D02*
X255360Y527460D01*
X254280Y528290D01*
X253340Y529540D01*
X252720Y531000D01*
X252410Y532670D01*
Y534330D01*
X252720Y536000D01*
X253340Y537460D01*
X254280Y538710D01*
X255360Y539540D01*
X256600Y539750D01*
X257840Y539540D01*
X258920Y538710D01*
X259860Y537460D01*
X260480Y536000D01*
X260790Y534330D01*
Y532670D01*
X260480Y531000D01*
X259860Y529540D01*
X258920Y528290D01*
X257840Y527460D01*
X256600Y527250D01*
G01X265900D02*
Y539750D01*
X269620D01*
X270860Y539120D01*
X271790Y537670D01*
X272100Y536000D01*
X271790Y534330D01*
X271010Y533080D01*
X269620Y532460D01*
X265900D01*
G01X293800Y539750D02*
Y527250D01*
G01X291630Y535580D02*
X295970D01*
G01X306200Y527250D02*
X305270Y527460D01*
X304340Y528290D01*
X303720Y529750D01*
X303410Y531420D01*
X303720Y533080D01*
X304340Y534540D01*
X305270Y535370D01*
X306200Y535580D01*
X307130Y535370D01*
X308060Y534540D01*
X308680Y533080D01*
X308840Y531420D01*
X308680Y529750D01*
X308060Y528290D01*
X307130Y527460D01*
X306200Y527250D01*
G01X332240Y533920D02*
X332860Y534540D01*
X333320Y535580D01*
X333640Y537040D01*
X333320Y538290D01*
X332710Y539120D01*
X331620Y539750D01*
X327440D01*
Y527250D01*
X332550D01*
X333640Y528080D01*
X334260Y529330D01*
X334560Y530790D01*
X334260Y532250D01*
X333320Y533500D01*
X332240Y533920D01*
X327440D01*
G01X343400Y527250D02*
X342160Y527460D01*
X341080Y528290D01*
X340140Y529540D01*
X339520Y531000D01*
X339210Y532670D01*
Y534330D01*
X339520Y536000D01*
X340140Y537460D01*
X341080Y538710D01*
X342160Y539540D01*
X343400Y539750D01*
X344640Y539540D01*
X345720Y538710D01*
X346660Y537460D01*
X347280Y536000D01*
X347590Y534330D01*
Y532670D01*
X347280Y531000D01*
X346660Y529540D01*
X345720Y528290D01*
X344640Y527460D01*
X343400Y527250D01*
G01X355800Y539750D02*
Y527250D01*
G01X352240Y539750D02*
X359360D01*
G01X368200D02*
Y527250D01*
G01X364640Y539750D02*
X371760D01*
G01X380600Y527250D02*
X379360Y527460D01*
X378280Y528290D01*
X377340Y529540D01*
X376720Y531000D01*
X376410Y532670D01*
Y534330D01*
X376720Y536000D01*
X377340Y537460D01*
X378280Y538710D01*
X379360Y539540D01*
X380600Y539750D01*
X381840Y539540D01*
X382920Y538710D01*
X383860Y537460D01*
X384480Y536000D01*
X384790Y534330D01*
Y532670D01*
X384480Y531000D01*
X383860Y529540D01*
X382920Y528290D01*
X381840Y527460D01*
X380600Y527250D01*
G01X388970D02*
Y539750D01*
X393000Y529330D01*
X397030Y539750D01*
Y527250D01*
G01X103300Y477250D02*
Y489750D01*
X109200D01*
G01X107020Y483710D02*
X103300D01*
G01X116790Y489750D02*
X120510D01*
G01X118650D02*
Y477250D01*
G01X116790D02*
X120510D01*
G01X127490D02*
Y489750D01*
X134610Y477250D01*
Y489750D01*
G01X141590D02*
X145310D01*
G01X143450D02*
Y477250D01*
G01X141590D02*
X145310D01*
G01X152590Y478920D02*
X153840Y477870D01*
X155230Y477250D01*
X156470D01*
X157710Y477870D01*
X158640Y478920D01*
X159110Y480380D01*
X158800Y481830D01*
X158020Y483080D01*
X156620Y483920D01*
X154770Y484330D01*
X153680Y485170D01*
X153210Y486620D01*
X153530Y488080D01*
X154300Y489120D01*
X155380Y489750D01*
X156470D01*
X157560Y489330D01*
X158490Y488290D01*
G01X164990Y477250D02*
Y489750D01*
G01X171510D02*
Y477250D01*
G01Y483500D02*
X164990D01*
G01X183750Y477250D02*
X177550D01*
Y489750D01*
X183750D01*
G01X181270Y483710D02*
X177550D01*
G01X189640Y477250D02*
Y489750D01*
X192740D01*
X193980Y489120D01*
X194910Y488290D01*
X195690Y487040D01*
X196310Y485580D01*
X196460Y483500D01*
X196310Y481420D01*
X195690Y479960D01*
X194910Y478710D01*
X193980Y477870D01*
X192740Y477250D01*
X189640D01*
G01X200800Y473080D02*
X210100D01*
G01X214590Y478920D02*
X215840Y477870D01*
X217230Y477250D01*
X218470D01*
X219710Y477870D01*
X220640Y478920D01*
X221110Y480380D01*
X220800Y481830D01*
X220020Y483080D01*
X218620Y483920D01*
X216770Y484330D01*
X215680Y485170D01*
X215210Y486620D01*
X215530Y488080D01*
X216300Y489120D01*
X217380Y489750D01*
X218470D01*
X219560Y489330D01*
X220490Y488290D01*
G01X228390Y489750D02*
X232110D01*
G01X230250D02*
Y477250D01*
G01X228390D02*
X232110D01*
G01X239700Y489750D02*
X245600D01*
X239700Y477250D01*
X245600D01*
G01X258150D02*
X251950D01*
Y489750D01*
X258150D01*
G01X255670Y483710D02*
X251950D01*
G01X110120Y502250D02*
X114000Y514750D01*
X117880Y502250D01*
G01X116480Y506620D02*
X111520D01*
G01X123300Y514750D02*
Y502250D01*
X129500D01*
G01X135700Y514750D02*
Y502250D01*
X141900D01*
G01X160190Y514750D02*
Y505790D01*
X160810Y503920D01*
X162050Y502670D01*
X163600Y502250D01*
X165150Y502670D01*
X166390Y503920D01*
X167010Y505790D01*
Y514750D01*
G01X172440Y502250D02*
Y514750D01*
X179560Y502250D01*
Y514750D01*
G01X186540D02*
X190260D01*
G01X188400D02*
Y502250D01*
G01X186540D02*
X190260D01*
G01X200800Y514750D02*
Y502250D01*
G01X197240Y514750D02*
X204360D01*
G01X209940Y503920D02*
X211190Y502870D01*
X212580Y502250D01*
X213820D01*
X215060Y502870D01*
X215990Y503920D01*
X216460Y505380D01*
X216150Y506830D01*
X215370Y508080D01*
X213970Y508920D01*
X212120Y509330D01*
X211030Y510170D01*
X210560Y511620D01*
X210880Y513080D01*
X211650Y514120D01*
X212730Y514750D01*
X213820D01*
X214910Y514330D01*
X215840Y513290D01*
G01X234120Y502250D02*
X238000Y514750D01*
X241880Y502250D01*
G01X240480Y506620D02*
X235520D01*
G01X247300Y502250D02*
Y514750D01*
X251170D01*
X252410Y514120D01*
X253190Y513290D01*
X253500Y511620D01*
X253190Y509960D01*
X252260Y508920D01*
X251170Y508290D01*
X247300D01*
G01X251170D02*
X253500Y502250D01*
G01X265900D02*
X259700D01*
Y514750D01*
X265900D01*
G01X263420Y508710D02*
X259700D01*
G01X285740Y514750D02*
X289460D01*
G01X287600D02*
Y502250D01*
G01X285740D02*
X289460D01*
G01X296440D02*
Y514750D01*
X303560Y502250D01*
Y514750D01*
G01X320770Y502250D02*
Y514750D01*
X324800Y504330D01*
X328830Y514750D01*
Y502250D01*
G01X335340Y514750D02*
X339060D01*
G01X337200D02*
Y502250D01*
G01X335340D02*
X339060D01*
G01X346500Y514750D02*
Y502250D01*
X352700D01*
G01X358740Y503920D02*
X359990Y502870D01*
X361380Y502250D01*
X362620D01*
X363860Y502870D01*
X364790Y503920D01*
X365260Y505380D01*
X364950Y506830D01*
X364170Y508080D01*
X362770Y508920D01*
X360920Y509330D01*
X359830Y510170D01*
X359360Y511620D01*
X359680Y513080D01*
X360450Y514120D01*
X361530Y514750D01*
X362620D01*
X363710Y514330D01*
X364640Y513290D01*
G01X155850Y327250D02*
Y339750D01*
X153990Y337250D01*
G01Y327250D02*
X157710D01*
G01X165300Y337670D02*
X166240Y338920D01*
X167320Y339540D01*
X168560Y339750D01*
X170110Y339330D01*
X171200Y338290D01*
X171510Y337040D01*
X171350Y335790D01*
X170730Y334750D01*
X167630Y332670D01*
X166240Y331210D01*
X165300Y329120D01*
X164990Y327250D01*
X171510D01*
G01X177240Y329120D02*
X178170Y328080D01*
X179250Y327460D01*
X180650Y327250D01*
X182050Y327670D01*
X183130Y328500D01*
X183910Y329960D01*
X184060Y331620D01*
X183750Y333290D01*
X182970Y334330D01*
X181890Y335170D01*
X180810Y335370D01*
X179720Y335170D01*
X178330Y334330D01*
X178790Y339750D01*
X182970D01*
G01X193050Y326830D02*
X192740Y327040D01*
Y327460D01*
X193050Y327670D01*
X193360Y327460D01*
Y327040D01*
X193050Y326830D01*
G01X205450Y339750D02*
X204210Y339330D01*
X203280Y338290D01*
X202660Y337040D01*
X202190Y335370D01*
X202040Y333500D01*
X202190Y331620D01*
X202660Y329960D01*
X203280Y328710D01*
X204210Y327670D01*
X205450Y327250D01*
X206690Y327670D01*
X207620Y328710D01*
X208240Y329960D01*
X208710Y331620D01*
X208860Y333500D01*
X208710Y335370D01*
X208240Y337040D01*
X207620Y338290D01*
X206690Y339330D01*
X205450Y339750D01*
G01X163910Y352250D02*
Y364750D01*
X158170Y355790D01*
X165930D01*
G01X171500Y362670D02*
X172440Y363920D01*
X173520Y364540D01*
X174760Y364750D01*
X176310Y364330D01*
X177400Y363290D01*
X177710Y362040D01*
X177550Y360790D01*
X176930Y359750D01*
X173830Y357670D01*
X172440Y356210D01*
X171500Y354120D01*
X171190Y352250D01*
X177710D01*
G01X186850Y351830D02*
X186540Y352040D01*
Y352460D01*
X186850Y352670D01*
X187160Y352460D01*
Y352040D01*
X186850Y351830D01*
G01X199250Y364750D02*
X198010Y364330D01*
X197080Y363290D01*
X196460Y362040D01*
X195990Y360370D01*
X195840Y358500D01*
X195990Y356620D01*
X196460Y354960D01*
X197080Y353710D01*
X198010Y352670D01*
X199250Y352250D01*
X200490Y352670D01*
X201420Y353710D01*
X202040Y354960D01*
X202510Y356620D01*
X202660Y358500D01*
X202510Y360370D01*
X202040Y362040D01*
X201420Y363290D01*
X200490Y364330D01*
X199250Y364750D01*
G01X158640Y404750D02*
X159570Y403290D01*
X160810Y402460D01*
X162210Y402250D01*
X163450Y402460D01*
X164690Y403500D01*
X165460Y404750D01*
X165610Y406000D01*
X165310Y407460D01*
X164220Y408500D01*
X163130Y408920D01*
X161740D01*
G01X163130D02*
X164060Y409540D01*
X164840Y410580D01*
X165150Y411830D01*
X164840Y413080D01*
X164060Y414120D01*
X162670Y414750D01*
X161280Y414540D01*
X159880Y413710D01*
G01X174450Y402250D02*
X175530Y402460D01*
X176770Y403080D01*
X177550Y404120D01*
X177860Y405580D01*
X177550Y407040D01*
X176620Y408290D01*
X175220Y408920D01*
X173680D01*
X172740Y409330D01*
X171970Y410370D01*
X171660Y411830D01*
X172130Y413290D01*
X173210Y414330D01*
X174450Y414750D01*
X175690Y414330D01*
X176770Y413290D01*
X177240Y411830D01*
X176930Y410370D01*
X176160Y409330D01*
X175220Y408920D01*
X173680D01*
X172280Y408290D01*
X171350Y407040D01*
X171040Y405580D01*
X171350Y404120D01*
X172130Y403080D01*
X173370Y402460D01*
X174450Y402250D01*
G01X186850Y401830D02*
X186540Y402040D01*
Y402460D01*
X186850Y402670D01*
X187160Y402460D01*
Y402040D01*
X186850Y401830D01*
G01X199250Y414750D02*
X198010Y414330D01*
X197080Y413290D01*
X196460Y412040D01*
X195990Y410370D01*
X195840Y408500D01*
X195990Y406620D01*
X196460Y404960D01*
X197080Y403710D01*
X198010Y402670D01*
X199250Y402250D01*
X200490Y402670D01*
X201420Y403710D01*
X202040Y404960D01*
X202510Y406620D01*
X202660Y408500D01*
X202510Y410370D01*
X202040Y412040D01*
X201420Y413290D01*
X200490Y414330D01*
X199250Y414750D01*
G01X163910Y377250D02*
Y389750D01*
X158170Y380790D01*
X165930D01*
G01X171500Y387670D02*
X172440Y388920D01*
X173520Y389540D01*
X174760Y389750D01*
X176310Y389330D01*
X177400Y388290D01*
X177710Y387040D01*
X177550Y385790D01*
X176930Y384750D01*
X173830Y382670D01*
X172440Y381210D01*
X171500Y379120D01*
X171190Y377250D01*
X177710D01*
G01X186850Y376830D02*
X186540Y377040D01*
Y377460D01*
X186850Y377670D01*
X187160Y377460D01*
Y377040D01*
X186850Y376830D01*
G01X199250Y389750D02*
X198010Y389330D01*
X197080Y388290D01*
X196460Y387040D01*
X195990Y385370D01*
X195840Y383500D01*
X195990Y381620D01*
X196460Y379960D01*
X197080Y378710D01*
X198010Y377670D01*
X199250Y377250D01*
X200490Y377670D01*
X201420Y378710D01*
X202040Y379960D01*
X202510Y381620D01*
X202660Y383500D01*
X202510Y385370D01*
X202040Y387040D01*
X201420Y388290D01*
X200490Y389330D01*
X199250Y389750D01*
G01X159100Y437670D02*
X160040Y438920D01*
X161120Y439540D01*
X162360Y439750D01*
X163910Y439330D01*
X165000Y438290D01*
X165310Y437040D01*
X165150Y435790D01*
X164530Y434750D01*
X161430Y432670D01*
X160040Y431210D01*
X159100Y429120D01*
X158790Y427250D01*
X165310D01*
G01X174450D02*
X175530Y427460D01*
X176770Y428080D01*
X177550Y429120D01*
X177860Y430580D01*
X177550Y432040D01*
X176620Y433290D01*
X175220Y433920D01*
X173680D01*
X172740Y434330D01*
X171970Y435370D01*
X171660Y436830D01*
X172130Y438290D01*
X173210Y439330D01*
X174450Y439750D01*
X175690Y439330D01*
X176770Y438290D01*
X177240Y436830D01*
X176930Y435370D01*
X176160Y434330D01*
X175220Y433920D01*
X173680D01*
X172280Y433290D01*
X171350Y432040D01*
X171040Y430580D01*
X171350Y429120D01*
X172130Y428080D01*
X173370Y427460D01*
X174450Y427250D01*
G01X186850Y426830D02*
X186540Y427040D01*
Y427460D01*
X186850Y427670D01*
X187160Y427460D01*
Y427040D01*
X186850Y426830D01*
G01X199250Y439750D02*
X198010Y439330D01*
X197080Y438290D01*
X196460Y437040D01*
X195990Y435370D01*
X195840Y433500D01*
X195990Y431620D01*
X196460Y429960D01*
X197080Y428710D01*
X198010Y427670D01*
X199250Y427250D01*
X200490Y427670D01*
X201420Y428710D01*
X202040Y429960D01*
X202510Y431620D01*
X202660Y433500D01*
X202510Y435370D01*
X202040Y437040D01*
X201420Y438290D01*
X200490Y439330D01*
X199250Y439750D01*
G01X162050Y452250D02*
Y464750D01*
X160190Y462250D01*
G01Y452250D02*
X163910D01*
G01X171810Y453710D02*
X172900Y452670D01*
X174140Y452250D01*
X175380Y452670D01*
X176460Y453920D01*
X177240Y455790D01*
X177550Y457670D01*
Y459960D01*
X177240Y461830D01*
X176460Y463500D01*
X175530Y464330D01*
X174450Y464750D01*
X173210Y464330D01*
X172280Y463500D01*
X171660Y462250D01*
X171350Y460580D01*
X171660Y459130D01*
X172440Y457670D01*
X173370Y456830D01*
X174450Y456620D01*
X175690Y457040D01*
X176620Y458080D01*
X177550Y459960D01*
G01X186850Y451830D02*
X186540Y452040D01*
Y452460D01*
X186850Y452670D01*
X187160Y452460D01*
Y452040D01*
X186850Y451830D01*
G01X198940Y452250D02*
X199250Y454960D01*
X199720Y457250D01*
X200330Y459330D01*
X201110Y461620D01*
X202350Y464750D01*
X196150D01*
G01X281400Y496000D02*
Y321000D01*
G01X310850Y327250D02*
Y339750D01*
X314570D01*
X315810Y339120D01*
X316740Y337670D01*
X317050Y336000D01*
X316740Y334330D01*
X315960Y333080D01*
X314570Y332460D01*
X310850D01*
G01X323250Y339750D02*
Y327250D01*
X329450D01*
G01X334870D02*
X338750Y339750D01*
X342630Y327250D01*
G01X341230Y331620D02*
X336270D01*
G01X351150Y339750D02*
Y327250D01*
G01X347590Y339750D02*
X354710D01*
G01X366650Y327250D02*
X360450D01*
Y339750D01*
X366650D01*
G01X364170Y333710D02*
X360450D01*
G01X372540Y327250D02*
Y339750D01*
X375640D01*
X376880Y339120D01*
X377810Y338290D01*
X378590Y337040D01*
X379210Y335580D01*
X379360Y333500D01*
X379210Y331420D01*
X378590Y329960D01*
X377810Y328710D01*
X376880Y327870D01*
X375640Y327250D01*
X372540D01*
G01X310850Y352250D02*
Y364750D01*
X314570D01*
X315810Y364120D01*
X316740Y362670D01*
X317050Y361000D01*
X316740Y359330D01*
X315960Y358080D01*
X314570Y357460D01*
X310850D01*
G01X323250Y364750D02*
Y352250D01*
X329450D01*
G01X334870D02*
X338750Y364750D01*
X342630Y352250D01*
G01X341230Y356620D02*
X336270D01*
G01X351150Y364750D02*
Y352250D01*
G01X347590Y364750D02*
X354710D01*
G01X366650Y352250D02*
X360450D01*
Y364750D01*
X366650D01*
G01X364170Y358710D02*
X360450D01*
G01X372540Y352250D02*
Y364750D01*
X375640D01*
X376880Y364120D01*
X377810Y363290D01*
X378590Y362040D01*
X379210Y360580D01*
X379360Y358500D01*
X379210Y356420D01*
X378590Y354960D01*
X377810Y353710D01*
X376880Y352870D01*
X375640Y352250D01*
X372540D01*
G01X310850Y402250D02*
Y414750D01*
X314570D01*
X315810Y414120D01*
X316740Y412670D01*
X317050Y411000D01*
X316740Y409330D01*
X315960Y408080D01*
X314570Y407460D01*
X310850D01*
G01X323250Y414750D02*
Y402250D01*
X329450D01*
G01X334870D02*
X338750Y414750D01*
X342630Y402250D01*
G01X341230Y406620D02*
X336270D01*
G01X351150Y414750D02*
Y402250D01*
G01X347590Y414750D02*
X354710D01*
G01X366650Y402250D02*
X360450D01*
Y414750D01*
X366650D01*
G01X364170Y408710D02*
X360450D01*
G01X372540Y402250D02*
Y414750D01*
X375640D01*
X376880Y414120D01*
X377810Y413290D01*
X378590Y412040D01*
X379210Y410580D01*
X379360Y408500D01*
X379210Y406420D01*
X378590Y404960D01*
X377810Y403710D01*
X376880Y402870D01*
X375640Y402250D01*
X372540D01*
G01X310850Y377250D02*
Y389750D01*
X314570D01*
X315810Y389120D01*
X316740Y387670D01*
X317050Y386000D01*
X316740Y384330D01*
X315960Y383080D01*
X314570Y382460D01*
X310850D01*
G01X323250Y389750D02*
Y377250D01*
X329450D01*
G01X334870D02*
X338750Y389750D01*
X342630Y377250D01*
G01X341230Y381620D02*
X336270D01*
G01X351150Y389750D02*
Y377250D01*
G01X347590Y389750D02*
X354710D01*
G01X366650Y377250D02*
X360450D01*
Y389750D01*
X366650D01*
G01X364170Y383710D02*
X360450D01*
G01X372540Y377250D02*
Y389750D01*
X375640D01*
X376880Y389120D01*
X377810Y388290D01*
X378590Y387040D01*
X379210Y385580D01*
X379360Y383500D01*
X379210Y381420D01*
X378590Y379960D01*
X377810Y378710D01*
X376880Y377870D01*
X375640Y377250D01*
X372540D01*
G01X310850Y427250D02*
Y439750D01*
X314570D01*
X315810Y439120D01*
X316740Y437670D01*
X317050Y436000D01*
X316740Y434330D01*
X315960Y433080D01*
X314570Y432460D01*
X310850D01*
G01X323250Y439750D02*
Y427250D01*
X329450D01*
G01X334870D02*
X338750Y439750D01*
X342630Y427250D01*
G01X341230Y431620D02*
X336270D01*
G01X351150Y439750D02*
Y427250D01*
G01X347590Y439750D02*
X354710D01*
G01X366650Y427250D02*
X360450D01*
Y439750D01*
X366650D01*
G01X364170Y433710D02*
X360450D01*
G01X372540Y427250D02*
Y439750D01*
X375640D01*
X376880Y439120D01*
X377810Y438290D01*
X378590Y437040D01*
X379210Y435580D01*
X379360Y433500D01*
X379210Y431420D01*
X378590Y429960D01*
X377810Y428710D01*
X376880Y427870D01*
X375640Y427250D01*
X372540D01*
G01X310850Y452250D02*
Y464750D01*
X314570D01*
X315810Y464120D01*
X316740Y462670D01*
X317050Y461000D01*
X316740Y459330D01*
X315960Y458080D01*
X314570Y457460D01*
X310850D01*
G01X323250Y464750D02*
Y452250D01*
X329450D01*
G01X334870D02*
X338750Y464750D01*
X342630Y452250D01*
G01X341230Y456620D02*
X336270D01*
G01X351150Y464750D02*
Y452250D01*
G01X347590Y464750D02*
X354710D01*
G01X366650Y452250D02*
X360450D01*
Y464750D01*
X366650D01*
G01X364170Y458710D02*
X360450D01*
G01X372540Y452250D02*
Y464750D01*
X375640D01*
X376880Y464120D01*
X377810Y463290D01*
X378590Y462040D01*
X379210Y460580D01*
X379360Y458500D01*
X379210Y456420D01*
X378590Y454960D01*
X377810Y453710D01*
X376880Y452870D01*
X375640Y452250D01*
X372540D01*
G01X310850Y477250D02*
Y489750D01*
X314570D01*
X315810Y489120D01*
X316740Y487670D01*
X317050Y486000D01*
X316740Y484330D01*
X315960Y483080D01*
X314570Y482460D01*
X310850D01*
G01X323250Y489750D02*
Y477250D01*
X329450D01*
G01X334870D02*
X338750Y489750D01*
X342630Y477250D01*
G01X341230Y481620D02*
X336270D01*
G01X351150Y489750D02*
Y477250D01*
G01X347590Y489750D02*
X354710D01*
G01X366650Y477250D02*
X360450D01*
Y489750D01*
X366650D01*
G01X364170Y483710D02*
X360450D01*
G01X372540Y477250D02*
Y489750D01*
X375640D01*
X376880Y489120D01*
X377810Y488290D01*
X378590Y487040D01*
X379210Y485580D01*
X379360Y483500D01*
X379210Y481420D01*
X378590Y479960D01*
X377810Y478710D01*
X376880Y477870D01*
X375640Y477250D01*
X372540D01*
G01X408500Y496000D02*
Y321000D01*
G01X438100Y387670D02*
X439040Y388920D01*
X440120Y389540D01*
X441360Y389750D01*
X442910Y389330D01*
X444000Y388290D01*
X444310Y387040D01*
X444150Y385790D01*
X443530Y384750D01*
X440430Y382670D01*
X439040Y381210D01*
X438100Y379120D01*
X437790Y377250D01*
X444310D01*
G01X453450Y389750D02*
X452210Y389330D01*
X451280Y388290D01*
X450660Y387040D01*
X450190Y385370D01*
X450040Y383500D01*
X450190Y381620D01*
X450660Y379960D01*
X451280Y378710D01*
X452210Y377670D01*
X453450Y377250D01*
X454690Y377670D01*
X455620Y378710D01*
X456240Y379960D01*
X456710Y381620D01*
X456860Y383500D01*
X456710Y385370D01*
X456240Y387040D01*
X455620Y388290D01*
X454690Y389330D01*
X453450Y389750D01*
G01X441050Y427250D02*
Y439750D01*
X439190Y437250D01*
G01Y427250D02*
X442910D01*
G01X453450D02*
Y439750D01*
X451590Y437250D01*
G01Y427250D02*
X455310D01*
G01X438100Y462670D02*
X439040Y463920D01*
X440120Y464540D01*
X441360Y464750D01*
X442910Y464330D01*
X444000Y463290D01*
X444310Y462040D01*
X444150Y460790D01*
X443530Y459750D01*
X440430Y457670D01*
X439040Y456210D01*
X438100Y454120D01*
X437790Y452250D01*
X444310D01*
G01X450500Y457460D02*
X451590Y458920D01*
X452520Y459750D01*
X453760Y460170D01*
X454850Y459750D01*
X455620Y458920D01*
X456240Y457670D01*
X456400Y456210D01*
X456240Y454960D01*
X455620Y453710D01*
X454690Y452670D01*
X453610Y452250D01*
X452370Y452670D01*
X451280Y453920D01*
X450660Y455790D01*
X450500Y457870D01*
X450810Y460580D01*
X451280Y462040D01*
X452050Y463500D01*
X453140Y464540D01*
X454220Y464750D01*
X455310Y464330D01*
X456090Y463290D01*
G01X434850Y477250D02*
X433610Y477460D01*
X432530Y478290D01*
X431590Y479540D01*
X430970Y481000D01*
X430660Y482670D01*
Y484330D01*
X430970Y486000D01*
X431590Y487460D01*
X432530Y488710D01*
X433610Y489540D01*
X434850Y489750D01*
X436090Y489540D01*
X437170Y488710D01*
X438110Y487460D01*
X438730Y486000D01*
X439040Y484330D01*
Y482670D01*
X438730Y481000D01*
X438110Y479540D01*
X437170Y478290D01*
X436090Y477460D01*
X434850Y477250D01*
G01X436090Y480580D02*
X437950Y477250D01*
G01X447250Y489750D02*
Y477250D01*
G01X443690Y489750D02*
X450810D01*
G01X459650Y477250D02*
Y482870D01*
X456550Y489750D01*
G01X462750D02*
X459650Y482870D01*
G01X449110Y327250D02*
Y339750D01*
X443370Y330790D01*
X451130D01*
G01X444300Y357460D02*
X445390Y358920D01*
X446320Y359750D01*
X447560Y360170D01*
X448650Y359750D01*
X449420Y358920D01*
X450040Y357670D01*
X450200Y356210D01*
X450040Y354960D01*
X449420Y353710D01*
X448490Y352670D01*
X447410Y352250D01*
X446170Y352670D01*
X445080Y353920D01*
X444460Y355790D01*
X444300Y357870D01*
X444610Y360580D01*
X445080Y362040D01*
X445850Y363500D01*
X446940Y364540D01*
X448020Y364750D01*
X449110Y364330D01*
X449890Y363290D01*
G01X444300Y407460D02*
X445390Y408920D01*
X446320Y409750D01*
X447560Y410170D01*
X448650Y409750D01*
X449420Y408920D01*
X450040Y407670D01*
X450200Y406210D01*
X450040Y404960D01*
X449420Y403710D01*
X448490Y402670D01*
X447410Y402250D01*
X446170Y402670D01*
X445080Y403920D01*
X444460Y405790D01*
X444300Y407870D01*
X444610Y410580D01*
X445080Y412040D01*
X445850Y413500D01*
X446940Y414540D01*
X448020Y414750D01*
X449110Y414330D01*
X449890Y413290D01*
M02*
