G04 ================== begin FILE IDENTIFICATION RECORD ==================*
G04 Layout Name:  SMARTSLEEVESYSTEM.brd*
G04 Film Name:    SMT*
G04 File Format:  Gerber RS274X*
G04 File Origin:  Cadence Allegro 17.2-P019*
G04 Origin Date:  Sun Feb 05 19:05:20 2017*
G04 *
G04 Layer:  VIA CLASS/SOLDERMASK_TOP*
G04 Layer:  PIN/SOLDERMASK_TOP*
G04 Layer:  PACKAGE GEOMETRY/SOLDERMASK_TOP*
G04 Layer:  DRC ERROR CLASS/SOLDERMASK_TOP*
G04 Layer:  BOARD GEOMETRY/SOLDERMASK_TOP*
G04 *
G04 Offset:    (0.0 0.0)*
G04 Mirror:    No*
G04 Mode:      Positive*
G04 Rotation:  0*
G04 FullContactRelief:  No*
G04 UndefLineWidth:     0.0*
G04 ================== end FILE IDENTIFICATION RECORD ====================*
%FSLAX25Y25*MOIN*%
%IR0*IPPOS*OFA0.00000B0.00000*MIA0B0*SFA1.00000B1.00000*%
%ADD10C,.14*%
%ADD14C,.044*%
%ADD12C,.065*%
%ADD15R,.0571X.0423*%
%ADD13R,.0423X.0571*%
%ADD20R,.08X.08*%
%ADD18C,.0582*%
%ADD17R,.09X.09*%
%ADD16R,.0482X.0118*%
%ADD11R,.065X.065*%
%ADD19R,.058X.058*%
%LPD*%
G75*
G54D10*
X18850Y132350D03*
Y257350D03*
X357850Y132350D03*
Y257350D03*
G54D11*
X49170Y240160D03*
X110830Y259840D03*
X227830Y104840D03*
X275830Y106840D03*
X321830D03*
G54D20*
X364370Y162590D03*
Y154710D03*
Y186210D03*
Y178330D03*
Y170460D03*
Y217700D03*
Y209830D03*
Y201960D03*
Y194080D03*
Y233450D03*
Y225580D03*
G54D12*
X49170Y259840D03*
X70830Y240160D03*
Y259840D03*
X89170Y240160D03*
X110830D03*
X89170Y259840D03*
X206170Y85160D03*
X227830D03*
X206170Y104840D03*
X254170Y87160D03*
Y106840D03*
X275830Y87160D03*
X300170D03*
X321830D03*
X300170Y106840D03*
G54D13*
X133760Y17500D03*
X141240D03*
Y30000D03*
X133760D03*
X177260Y68000D03*
X184740D03*
X201260Y62000D03*
X208740D03*
G54D14*
X138000Y43000D03*
X130000Y110000D03*
X141000Y212000D03*
X161000Y57000D03*
X164000Y62000D03*
X176000Y8120D03*
X200000Y16260D03*
X207000Y29000D03*
X253000Y247000D03*
X235000Y259000D03*
X292000Y162000D03*
X264000Y184000D03*
X268000Y251000D03*
X282940Y255940D03*
X286000Y261000D03*
X297000Y184000D03*
X302000Y169000D03*
X322000Y256000D03*
X303000Y264000D03*
X336000Y113000D03*
X351500Y176500D03*
X339000Y170000D03*
X336000Y194000D03*
X330000Y247000D03*
X353500Y184500D03*
X369000Y271000D03*
G54D15*
X157500Y16260D03*
Y23740D03*
X160000Y41260D03*
Y48740D03*
X175000Y23740D03*
Y16260D03*
X192500Y23740D03*
Y16260D03*
X202000Y50740D03*
Y43260D03*
X210000Y16260D03*
Y23740D03*
X225000D03*
Y16260D03*
X218000Y61260D03*
Y68740D03*
X212000Y50740D03*
Y43260D03*
G54D16*
X170990Y48560D03*
Y50530D03*
Y52500D03*
Y54470D03*
Y56440D03*
X189010D03*
Y54470D03*
Y52500D03*
Y50530D03*
Y48560D03*
G54D17*
X251470Y30850D03*
Y40850D03*
Y50850D03*
X326470Y30850D03*
Y40850D03*
Y50850D03*
G54D18*
X312000Y160000D03*
X322000D03*
X312000Y180000D03*
Y170000D03*
X322000D03*
G54D19*
Y180000D03*
M02*
