G04 ================== begin FILE IDENTIFICATION RECORD ==================*
G04 Layout Name:  SMARTSLEEVESYSTEM.brd*
G04 Film Name:    SSB*
G04 File Format:  Gerber RS274X*
G04 File Origin:  Cadence Allegro 17.2-P019*
G04 Origin Date:  Fri Feb 03 11:10:52 2017*
G04 *
G04 Layer:  USER PART NUMBER/SILKSCREEN_BOTTOM*
G04 Layer:  TOLERANCE/SILKSCREEN_BOTTOM*
G04 Layer:  REF DES/SILKSCREEN_BOTTOM*
G04 Layer:  PACKAGE GEOMETRY/PLACE_BOUND_BOTTOM*
G04 Layer:  PACKAGE GEOMETRY/SILKSCREEN_BOTTOM*
G04 Layer:  DEVICE TYPE/SILKSCREEN_BOTTOM*
G04 Layer:  COMPONENT VALUE/SILKSCREEN_BOTTOM*
G04 Layer:  BOARD GEOMETRY/SILKSCREEN_BOTTOM*
G04 *
G04 Offset:    (0.0 0.0)*
G04 Mirror:    No*
G04 Mode:      Positive*
G04 Rotation:  0*
G04 FullContactRelief:  No*
G04 UndefLineWidth:     7.0*
G04 ================== end FILE IDENTIFICATION RECORD ====================*
%FSLAX25Y25*MOIN*%
%IR0*IPPOS*OFA0.00000B0.00000*MIA0B0*SFA1.00000B1.00000*%
%ADD10C,.0079*%
%ADD11C,.007*%
G75*
%LPD*%
G75*
G36*
G01X45330Y211850D02*
G02I-586J2D01*
G37*
G36*
G01X58180Y235430D02*
G02I-1571J3D01*
G37*
G36*
G01X87390Y164000D02*
G02I-790J0D01*
G37*
G36*
G01X104650Y189000D02*
G02I-788J0D01*
G37*
G36*
G01X89790Y206600D02*
G02I-790J0D01*
G37*
G36*
G01X104960Y264570D02*
G02I-1569J-3D01*
G37*
G36*
G01X221960Y109570D02*
G02I-1569J-3D01*
G37*
G36*
G01X269960Y111570D02*
G02I-1569J-3D01*
G37*
G36*
G01X278310Y210280D02*
G02I-1182J-2D01*
G37*
G36*
G01X270210Y270370D02*
G02I-785J4D01*
G37*
G36*
G01X315960Y111570D02*
G02I-1569J-3D01*
G37*
G36*
G01X316140Y181850D02*
G02I-1576J0D01*
G37*
G36*
G01X340380Y169210D02*
G03I-2514J3D01*
G37*
G36*
G01X81890Y218690D02*
Y155320D01*
X38110D01*
Y218690D01*
X81890D01*
G37*
G36*
G01X43860Y268700D02*
X76140D01*
Y231300D01*
X43860D01*
Y268700D01*
G37*
G36*
G01X89160Y167840D02*
X102840D01*
Y160160D01*
X89160D01*
Y167840D01*
G37*
G36*
G01X102840Y171160D02*
X89160D01*
Y178840D01*
X102840D01*
Y171160D01*
G37*
G36*
G01X106420Y192640D02*
X121580D01*
Y185360D01*
X106420D01*
Y192640D01*
G37*
G36*
G01X112840Y208160D02*
X99160D01*
Y215840D01*
X112840D01*
Y208160D01*
G37*
G36*
G01X120840Y196160D02*
X107160D01*
Y203840D01*
X120840D01*
Y196160D01*
G37*
G36*
G01X85160Y209160D02*
Y222840D01*
X92840D01*
Y209160D01*
X85160D01*
G37*
G36*
G01X116140Y231300D02*
X83860D01*
Y268700D01*
X116140D01*
Y231300D01*
G37*
G36*
G01X233140Y76300D02*
X200860D01*
Y113700D01*
X233140D01*
Y76300D01*
G37*
G36*
G01X247160Y225840D02*
X260840D01*
Y218160D01*
X247160D01*
Y225840D01*
G37*
G36*
G01X248160Y211840D02*
X261840D01*
Y204160D01*
X248160D01*
Y211840D01*
G37*
G36*
G01X247160Y235840D02*
X260840D01*
Y228160D01*
X247160D01*
Y235840D01*
G37*
G36*
G01X276160Y195840D02*
X289840D01*
Y188160D01*
X276160D01*
Y195840D01*
G37*
G36*
G01X270530Y253470D02*
X323470D01*
Y200530D01*
X270530D01*
Y253470D01*
G37*
G36*
G01X266960Y285240D02*
X325040D01*
Y264760D01*
X266960D01*
Y285240D01*
G37*
G36*
G01X289840Y286160D02*
X276160D01*
Y293840D01*
X289840D01*
Y286160D01*
G37*
G36*
G01X327140Y78300D02*
X294860D01*
Y115700D01*
X327140D01*
Y78300D01*
G37*
G36*
G01X311160Y152840D02*
X324840D01*
Y145160D01*
X311160D01*
Y152840D01*
G37*
G36*
G01X330470Y154020D02*
X303530D01*
Y185980D01*
X330470D01*
Y154020D01*
G37*
G36*
G01X303160Y293840D02*
X316840D01*
Y286160D01*
X303160D01*
Y293840D01*
G37*
G36*
G01X332160Y123160D02*
Y136840D01*
X339840D01*
Y123160D01*
X332160D01*
G37*
G36*
G01X342840Y236160D02*
X329160D01*
Y243840D01*
X342840D01*
Y236160D01*
G37*
G36*
G01X329160Y270840D02*
X342840D01*
Y263160D01*
X329160D01*
Y270840D01*
G37*
G54D10*
G01X37320Y174730D02*
Y204220D01*
X82680D01*
Y174730D01*
G01X53460Y267720D02*
Y232280D01*
X66540D01*
Y267720D01*
X53460D01*
G01X95750Y166460D02*
X96250D01*
G01X95750Y161540D02*
X96250D01*
G01Y172540D02*
X95750D01*
G01X96250Y177460D02*
X95750D01*
G01X106250Y209540D02*
X105750D01*
G01X106250Y214460D02*
X105750D01*
G01X86540Y215750D02*
Y216250D01*
G01X91460Y215750D02*
Y216250D01*
G01X106540Y232280D02*
Y267720D01*
X93460D01*
Y232280D01*
X106540D01*
G01X112720Y186640D02*
X115280D01*
G01X114250Y197540D02*
X113750D01*
G01X114250Y202460D02*
X113750D01*
G01X112720Y191360D02*
X115280D01*
G01X223540Y77280D02*
Y112720D01*
X210460D01*
Y77280D01*
X223540D01*
G01X271540Y79280D02*
Y114720D01*
X258460D01*
Y79280D01*
X271540D01*
G01X253750Y219540D02*
X254250D01*
G01X254750Y210460D02*
X255250D01*
G01X254750Y205540D02*
X255250D01*
G01X253750Y224460D02*
X254250D01*
G01X253750Y234460D02*
X254250D01*
G01X253750Y229540D02*
X254250D01*
G01X282750Y189540D02*
X283250D01*
G01X282750Y194460D02*
X283250D01*
G01X280280Y243720D02*
Y210280D01*
X313720D01*
Y243720D01*
X280280D01*
G01X319430Y279630D02*
Y284250D01*
X277200D01*
X272570Y279630D01*
Y279230D01*
G01Y270770D02*
Y270370D01*
X277200Y265750D01*
X319430D01*
Y270370D01*
G01X283250Y287540D02*
X282750D01*
G01X283250Y292460D02*
X282750D01*
G01X317540Y79280D02*
Y114720D01*
X304460D01*
Y79280D01*
X317540D01*
G01X317750Y151460D02*
X318250D01*
G01X317750Y146540D02*
X318250D01*
G01X317710Y155000D02*
Y185000D01*
X316290D01*
Y155000D01*
X317710D01*
G01X309750Y292460D02*
X310250D01*
G01X309750Y287540D02*
X310250D01*
G01X333540Y129750D02*
Y130250D01*
G01X338460Y129750D02*
Y130250D01*
G01X336250Y237540D02*
X335750D01*
G01X336250Y242460D02*
X335750D01*
G01Y269460D02*
X336250D01*
G01X335750Y264540D02*
X336250D01*
G54D11*
G01X111010Y10840D02*
X111240Y11000D01*
X111500Y11100D01*
X111810D01*
X112160Y10940D01*
X112420Y10690D01*
X112620Y10380D01*
X112770Y9860D01*
X112810Y9390D01*
X112730Y8930D01*
X112620Y8620D01*
X112390Y8310D01*
X112120Y8100D01*
X111850Y8000D01*
X111580D01*
X111310Y8100D01*
X111080Y8260D01*
X110890Y8460D01*
G01X109710Y8000D02*
X108750Y11100D01*
X107790Y8000D01*
G01X108140Y9080D02*
X109360D01*
G01X106420Y8000D02*
Y11100D01*
X105460D01*
X105150Y10940D01*
X104960Y10740D01*
X104880Y10320D01*
X104960Y9910D01*
X105190Y9650D01*
X105460Y9500D01*
X106420D01*
G01X105460D02*
X104880Y8000D01*
G01X102550D02*
X102860Y8050D01*
X103120Y8260D01*
X103360Y8570D01*
X103510Y8930D01*
X103590Y9340D01*
Y9760D01*
X103510Y10170D01*
X103360Y10530D01*
X103120Y10840D01*
X102860Y11050D01*
X102550Y11100D01*
X102240Y11050D01*
X101980Y10840D01*
X101740Y10530D01*
X101590Y10170D01*
X101510Y9760D01*
Y9340D01*
X101590Y8930D01*
X101740Y8570D01*
X101980Y8260D01*
X102240Y8050D01*
X102550Y8000D01*
G01X100220Y11100D02*
Y8000D01*
X98680D01*
G01X96350D02*
X96660Y8050D01*
X96920Y8260D01*
X97160Y8570D01*
X97310Y8930D01*
X97390Y9340D01*
Y9760D01*
X97310Y10170D01*
X97160Y10530D01*
X96920Y10840D01*
X96660Y11050D01*
X96350Y11100D01*
X96040Y11050D01*
X95780Y10840D01*
X95540Y10530D01*
X95390Y10170D01*
X95310Y9760D01*
Y9340D01*
X95390Y8930D01*
X95540Y8570D01*
X95780Y8260D01*
X96040Y8050D01*
X96350Y8000D01*
G01X94130D02*
Y11100D01*
X92370Y8000D01*
Y11100D01*
G01X87860Y8410D02*
X87550Y8150D01*
X87200Y8000D01*
X86900D01*
X86590Y8150D01*
X86360Y8410D01*
X86240Y8780D01*
X86320Y9140D01*
X86510Y9450D01*
X86860Y9650D01*
X87320Y9760D01*
X87590Y9960D01*
X87700Y10320D01*
X87620Y10690D01*
X87430Y10940D01*
X87170Y11100D01*
X86900D01*
X86630Y11000D01*
X86400Y10740D01*
G01X84950Y8000D02*
Y11100D01*
X83950Y8520D01*
X82950Y11100D01*
Y8000D01*
G01X81810D02*
X80850Y11100D01*
X79890Y8000D01*
G01X80240Y9080D02*
X81460D01*
G01X78520Y8000D02*
Y11100D01*
X77560D01*
X77250Y10940D01*
X77060Y10740D01*
X76980Y10320D01*
X77060Y9910D01*
X77290Y9650D01*
X77560Y9500D01*
X78520D01*
G01X77560D02*
X76980Y8000D01*
G01X74650Y11100D02*
Y8000D01*
G01X75530Y11100D02*
X73770D01*
G01X69260Y8410D02*
X68950Y8150D01*
X68600Y8000D01*
X68300D01*
X67990Y8150D01*
X67760Y8410D01*
X67640Y8780D01*
X67720Y9140D01*
X67910Y9450D01*
X68260Y9650D01*
X68720Y9760D01*
X68990Y9960D01*
X69100Y10320D01*
X69020Y10690D01*
X68830Y10940D01*
X68570Y11100D01*
X68300D01*
X68030Y11000D01*
X67800Y10740D01*
G01X66120Y11100D02*
Y8000D01*
X64580D01*
G01X61480D02*
X63020D01*
Y11100D01*
X61480D01*
G01X62100Y9600D02*
X63020D01*
G01X58380Y8000D02*
X59920D01*
Y11100D01*
X58380D01*
G01X59000Y9600D02*
X59920D01*
G01X57010Y11100D02*
X56050Y8000D01*
X55090Y11100D01*
G01X52180Y8000D02*
X53720D01*
Y11100D01*
X52180D01*
G01X52800Y9600D02*
X53720D01*
G01X46440Y9650D02*
X46290Y9810D01*
X46180Y10070D01*
X46100Y10430D01*
X46180Y10740D01*
X46330Y10940D01*
X46600Y11100D01*
X47630D01*
Y8000D01*
X46370D01*
X46100Y8210D01*
X45940Y8520D01*
X45870Y8880D01*
X45940Y9240D01*
X46180Y9550D01*
X46440Y9650D01*
X47630D01*
G01X43650Y8000D02*
X43960Y8050D01*
X44220Y8260D01*
X44460Y8570D01*
X44610Y8930D01*
X44690Y9340D01*
Y9760D01*
X44610Y10170D01*
X44460Y10530D01*
X44220Y10840D01*
X43960Y11050D01*
X43650Y11100D01*
X43340Y11050D01*
X43080Y10840D01*
X42840Y10530D01*
X42690Y10170D01*
X42610Y9760D01*
Y9340D01*
X42690Y8930D01*
X42840Y8570D01*
X43080Y8260D01*
X43340Y8050D01*
X43650Y8000D01*
G01X41510D02*
X40550Y11100D01*
X39590Y8000D01*
G01X39940Y9080D02*
X41160D01*
G01X38220Y8000D02*
Y11100D01*
X37260D01*
X36950Y10940D01*
X36760Y10740D01*
X36680Y10320D01*
X36760Y9910D01*
X36990Y9650D01*
X37260Y9500D01*
X38220D01*
G01X37260D02*
X36680Y8000D01*
G01X35190D02*
Y11100D01*
X34430D01*
X34120Y10940D01*
X33890Y10740D01*
X33700Y10430D01*
X33540Y10070D01*
X33510Y9550D01*
X33540Y9030D01*
X33700Y8670D01*
X33890Y8360D01*
X34120Y8150D01*
X34430Y8000D01*
X35190D01*
G01X29110Y11100D02*
X28150Y8000D01*
X27190Y11100D01*
G01X25780Y10580D02*
X25550Y10890D01*
X25280Y11050D01*
X24970Y11100D01*
X24590Y11000D01*
X24320Y10740D01*
X24240Y10430D01*
X24280Y10120D01*
X24440Y9860D01*
X25200Y9340D01*
X25550Y8980D01*
X25780Y8460D01*
X25860Y8000D01*
X24240D01*
G01X21950Y11100D02*
X22260Y11000D01*
X22490Y10740D01*
X22640Y10430D01*
X22760Y10010D01*
X22790Y9550D01*
X22760Y9080D01*
X22640Y8670D01*
X22490Y8360D01*
X22260Y8100D01*
X21950Y8000D01*
X21640Y8100D01*
X21410Y8360D01*
X21260Y8670D01*
X21140Y9080D01*
X21110Y9550D01*
X21140Y10010D01*
X21260Y10430D01*
X21410Y10740D01*
X21640Y11000D01*
X21950Y11100D01*
G01X18850Y8000D02*
Y11100D01*
X19310Y10480D01*
G01Y8000D02*
X18390D01*
G01X15830D02*
X15750Y8670D01*
X15630Y9240D01*
X15480Y9760D01*
X15290Y10320D01*
X14980Y11100D01*
X16520D01*
G01X13150Y9030D02*
X12150D01*
G01X9550Y11100D02*
X9860Y11000D01*
X10090Y10740D01*
X10240Y10430D01*
X10360Y10010D01*
X10390Y9550D01*
X10360Y9080D01*
X10240Y8670D01*
X10090Y8360D01*
X9860Y8100D01*
X9550Y8000D01*
X9240Y8100D01*
X9010Y8360D01*
X8860Y8670D01*
X8740Y9080D01*
X8710Y9550D01*
X8740Y10010D01*
X8860Y10430D01*
X9010Y10740D01*
X9240Y11000D01*
X9550Y11100D01*
G01X6450Y8000D02*
Y11100D01*
X6910Y10480D01*
G01Y8000D02*
X5990D01*
G01X35000Y215940D02*
X38580D01*
X39330Y215690D01*
X39830Y215180D01*
X40000Y214550D01*
X39830Y213920D01*
X39330Y213410D01*
X38580Y213160D01*
X35000D01*
G01X35830Y210650D02*
X35330Y210270D01*
X35080Y209830D01*
X35000Y209320D01*
X35170Y208690D01*
X35580Y208250D01*
X36080Y208120D01*
X36580Y208180D01*
X37000Y208440D01*
X37830Y209700D01*
X38420Y210270D01*
X39250Y210650D01*
X40000Y210780D01*
Y208120D01*
G01X39330Y255430D02*
X39750Y254920D01*
X40000Y254350D01*
Y253850D01*
X39750Y253340D01*
X39330Y252960D01*
X38750Y252770D01*
X38170Y252900D01*
X37670Y253210D01*
X37330Y253780D01*
X37170Y254540D01*
X36830Y254990D01*
X36250Y255180D01*
X35670Y255050D01*
X35250Y254730D01*
X35000Y254290D01*
Y253850D01*
X35170Y253400D01*
X35580Y253020D01*
G01X35000Y250900D02*
X40000Y250010D01*
X35000Y249000D01*
X40000Y247990D01*
X35000Y247100D01*
G01X35830Y245100D02*
X35330Y244720D01*
X35080Y244280D01*
X35000Y243770D01*
X35170Y243140D01*
X35580Y242700D01*
X36080Y242570D01*
X36580Y242630D01*
X37000Y242890D01*
X37830Y244150D01*
X38420Y244720D01*
X39250Y245100D01*
X40000Y245230D01*
Y242570D01*
G01X73370Y275000D02*
Y280000D01*
X71850D01*
X71340Y279750D01*
X70960Y279170D01*
X70830Y278500D01*
X70960Y277830D01*
X71280Y277330D01*
X71850Y277080D01*
X73370D01*
G01X68900Y280000D02*
X68010Y275000D01*
X67000Y280000D01*
X65990Y275000D01*
X65100Y280000D01*
G01X63170Y275000D02*
Y280000D01*
X61580D01*
X61080Y279750D01*
X60760Y279420D01*
X60630Y278750D01*
X60760Y278080D01*
X61140Y277670D01*
X61580Y277420D01*
X63170D01*
G01X61580D02*
X60630Y275000D01*
G01X53030Y275670D02*
X52520Y275250D01*
X51950Y275000D01*
X51450D01*
X50940Y275250D01*
X50560Y275670D01*
X50370Y276250D01*
X50500Y276830D01*
X50810Y277330D01*
X51380Y277670D01*
X52140Y277830D01*
X52590Y278170D01*
X52780Y278750D01*
X52650Y279330D01*
X52330Y279750D01*
X51890Y280000D01*
X51450D01*
X51000Y279830D01*
X50620Y279420D01*
G01X48500Y280000D02*
X47610Y275000D01*
X46600Y280000D01*
X45590Y275000D01*
X44700Y280000D01*
G01X108840Y161420D02*
X108460Y161170D01*
X108020Y161000D01*
X107510D01*
X106940Y161250D01*
X106500Y161670D01*
X106180Y162170D01*
X105930Y163000D01*
X105870Y163750D01*
X105990Y164500D01*
X106180Y165000D01*
X106560Y165500D01*
X107010Y165830D01*
X107450Y166000D01*
X107890D01*
X108340Y165830D01*
X108720Y165580D01*
X109030Y165250D01*
G01X112420Y166000D02*
X112550Y164920D01*
X112740Y164000D01*
X112990Y163170D01*
X113310Y162250D01*
X113820Y161000D01*
X111280D01*
G01X111160Y178580D02*
X111540Y178830D01*
X111980Y179000D01*
X112490D01*
X113060Y178750D01*
X113500Y178330D01*
X113820Y177830D01*
X114070Y177000D01*
X114130Y176250D01*
X114010Y175500D01*
X113820Y175000D01*
X113440Y174500D01*
X112990Y174170D01*
X112550Y174000D01*
X112110D01*
X111660Y174170D01*
X111280Y174420D01*
X110970Y174750D01*
G01X108650Y176080D02*
X108210Y176670D01*
X107830Y177000D01*
X107320Y177170D01*
X106880Y177000D01*
X106560Y176670D01*
X106310Y176170D01*
X106250Y175580D01*
X106310Y175080D01*
X106560Y174580D01*
X106940Y174170D01*
X107390Y174000D01*
X107890Y174170D01*
X108340Y174670D01*
X108590Y175420D01*
X108650Y176250D01*
X108530Y177330D01*
X108340Y177920D01*
X108020Y178500D01*
X107580Y178920D01*
X107130Y179000D01*
X106690Y178830D01*
X106370Y178420D01*
G01X113370Y219000D02*
Y224000D01*
X111780D01*
X111280Y223750D01*
X110960Y223420D01*
X110830Y222750D01*
X110960Y222080D01*
X111340Y221670D01*
X111780Y221420D01*
X113370D01*
G01X111780D02*
X110830Y219000D01*
G01X107000D02*
Y224000D01*
X107760Y223000D01*
G01Y219000D02*
X106240D01*
G01X101900Y224000D02*
X102410Y223830D01*
X102790Y223420D01*
X103040Y222920D01*
X103230Y222250D01*
X103290Y221500D01*
X103230Y220750D01*
X103040Y220080D01*
X102790Y219580D01*
X102410Y219170D01*
X101900Y219000D01*
X101390Y219170D01*
X101010Y219580D01*
X100760Y220080D01*
X100570Y220750D01*
X100510Y221500D01*
X100570Y222250D01*
X100760Y222920D01*
X101010Y223420D01*
X101390Y223830D01*
X101900Y224000D01*
G01X91580Y199840D02*
X91830Y199460D01*
X92000Y199020D01*
Y198510D01*
X91750Y197940D01*
X91330Y197500D01*
X90830Y197180D01*
X90000Y196930D01*
X89250Y196870D01*
X88500Y196990D01*
X88000Y197180D01*
X87500Y197560D01*
X87170Y198010D01*
X87000Y198450D01*
Y198890D01*
X87170Y199340D01*
X87420Y199720D01*
X87750Y200030D01*
G01X87000Y203550D02*
X87080Y203990D01*
X87330Y204500D01*
X87750Y204820D01*
X88330Y204940D01*
X88920Y204820D01*
X89420Y204440D01*
X89670Y203870D01*
Y203230D01*
X89830Y202850D01*
X90250Y202540D01*
X90830Y202410D01*
X91420Y202600D01*
X91830Y203040D01*
X92000Y203550D01*
X91830Y204060D01*
X91420Y204500D01*
X90830Y204690D01*
X90250Y204560D01*
X89830Y204250D01*
X89670Y203870D01*
Y203230D01*
X89420Y202660D01*
X88920Y202280D01*
X88330Y202160D01*
X87750Y202280D01*
X87330Y202600D01*
X87080Y203110D01*
X87000Y203550D01*
G01X127060Y191000D02*
Y186000D01*
X128320D01*
X128830Y186250D01*
X129210Y186580D01*
X129530Y187080D01*
X129780Y187670D01*
X129840Y188500D01*
X129780Y189330D01*
X129530Y189920D01*
X129210Y190420D01*
X128830Y190750D01*
X128320Y191000D01*
X127060D01*
G01X133550D02*
Y186000D01*
X132790Y187000D01*
G01Y191000D02*
X134310D01*
G01X135370Y198000D02*
Y203000D01*
X133780D01*
X133280Y202750D01*
X132960Y202420D01*
X132830Y201750D01*
X132960Y201080D01*
X133340Y200670D01*
X133780Y200420D01*
X135370D01*
G01X133780D02*
X132830Y198000D01*
G01X129000D02*
Y203000D01*
X129760Y202000D01*
G01Y198000D02*
X128240D01*
G01X125100Y202170D02*
X124720Y202670D01*
X124280Y202920D01*
X123770Y203000D01*
X123140Y202830D01*
X122700Y202420D01*
X122570Y201920D01*
X122630Y201420D01*
X122890Y201000D01*
X124150Y200170D01*
X124720Y199580D01*
X125100Y198750D01*
X125230Y198000D01*
X122570D01*
G01X133720Y236500D02*
X132450D01*
Y235000D01*
X132830Y234500D01*
X133280Y234170D01*
X133910Y234000D01*
X134540Y234170D01*
X134990Y234500D01*
X135370Y235000D01*
X135620Y235580D01*
X135750Y236250D01*
Y236830D01*
X135620Y237330D01*
X135370Y237920D01*
X134990Y238420D01*
X134610Y238750D01*
X134100Y239000D01*
X133660D01*
X133150Y238830D01*
X132770Y238500D01*
G01X130460Y234000D02*
Y239000D01*
X127540Y234000D01*
Y239000D01*
G01X125290Y234000D02*
Y239000D01*
X124030D01*
X123520Y238750D01*
X123140Y238420D01*
X122820Y237920D01*
X122570Y237330D01*
X122510Y236500D01*
X122570Y235670D01*
X122820Y235080D01*
X123140Y234580D01*
X123520Y234250D01*
X124030Y234000D01*
X125290D01*
G01X122000Y247180D02*
X121500Y247500D01*
X121170Y247880D01*
X121000Y248320D01*
X121170Y248830D01*
X121500Y249210D01*
X122000Y249590D01*
X122670Y249720D01*
X126000D01*
G01X121000Y253550D02*
X126000D01*
X125000Y252790D01*
G01X121000D02*
Y254310D01*
G01X134300Y261080D02*
X133860Y261670D01*
X133480Y262000D01*
X132970Y262170D01*
X132530Y262000D01*
X132210Y261670D01*
X131960Y261170D01*
X131900Y260580D01*
X131960Y260080D01*
X132210Y259580D01*
X132590Y259170D01*
X133040Y259000D01*
X133540Y259170D01*
X133990Y259670D01*
X134240Y260420D01*
X134300Y261250D01*
X134180Y262330D01*
X133990Y262920D01*
X133670Y263500D01*
X133230Y263920D01*
X132780Y264000D01*
X132340Y263830D01*
X132020Y263420D01*
G01X129580Y264000D02*
X128000Y259000D01*
X126420Y264000D01*
G01X123600Y260670D02*
X122080D01*
G01X122900Y261750D02*
Y259580D01*
G01X241680Y74000D02*
X240100Y69000D01*
X238520Y74000D01*
G01X234490Y71670D02*
X234240Y71920D01*
X234050Y72330D01*
X233920Y72920D01*
X234050Y73420D01*
X234300Y73750D01*
X234750Y74000D01*
X236460D01*
Y69000D01*
X234370D01*
X233920Y69330D01*
X233670Y69830D01*
X233540Y70420D01*
X233670Y71000D01*
X234050Y71500D01*
X234490Y71670D01*
X236460D01*
G01X231290Y74000D02*
Y70420D01*
X231040Y69670D01*
X230530Y69170D01*
X229900Y69000D01*
X229270Y69170D01*
X228760Y69670D01*
X228510Y70420D01*
Y74000D01*
G01X226130Y69670D02*
X225620Y69250D01*
X225050Y69000D01*
X224550D01*
X224040Y69250D01*
X223660Y69670D01*
X223470Y70250D01*
X223600Y70830D01*
X223910Y71330D01*
X224480Y71670D01*
X225240Y71830D01*
X225690Y72170D01*
X225880Y72750D01*
X225750Y73330D01*
X225430Y73750D01*
X224990Y74000D01*
X224550D01*
X224100Y73830D01*
X223720Y73420D01*
G01X212490Y121000D02*
Y126000D01*
X211230D01*
X210720Y125750D01*
X210340Y125420D01*
X210020Y124920D01*
X209770Y124330D01*
X209710Y123500D01*
X209770Y122670D01*
X210020Y122080D01*
X210340Y121580D01*
X210720Y121250D01*
X211230Y121000D01*
X212490D01*
G01X206700Y122670D02*
X205180D01*
G01X206000Y123750D02*
Y121580D01*
G01X260490Y70000D02*
Y75000D01*
X259230D01*
X258720Y74750D01*
X258340Y74420D01*
X258020Y73920D01*
X257770Y73330D01*
X257710Y72500D01*
X257770Y71670D01*
X258020Y71080D01*
X258340Y70580D01*
X258720Y70250D01*
X259230Y70000D01*
X260490D01*
G01X254820Y71670D02*
X253180D01*
G01X261720Y122500D02*
X260450D01*
Y121000D01*
X260830Y120500D01*
X261280Y120170D01*
X261910Y120000D01*
X262540Y120170D01*
X262990Y120500D01*
X263370Y121000D01*
X263620Y121580D01*
X263750Y122250D01*
Y122830D01*
X263620Y123330D01*
X263370Y123920D01*
X262990Y124420D01*
X262610Y124750D01*
X262100Y125000D01*
X261660D01*
X261150Y124830D01*
X260770Y124500D01*
G01X258460Y120000D02*
Y125000D01*
X255540Y120000D01*
Y125000D01*
G01X253290Y120000D02*
Y125000D01*
X252030D01*
X251520Y124750D01*
X251140Y124420D01*
X250820Y123920D01*
X250570Y123330D01*
X250510Y122500D01*
X250570Y121670D01*
X250820Y121080D01*
X251140Y120580D01*
X251520Y120250D01*
X252030Y120000D01*
X253290D01*
G01X233000Y118630D02*
X232500Y118950D01*
X232170Y119330D01*
X232000Y119770D01*
X232170Y120280D01*
X232500Y120660D01*
X233000Y121040D01*
X233670Y121170D01*
X237000D01*
G01X232000Y125000D02*
X237000D01*
X236000Y124240D01*
G01X232000D02*
Y125760D01*
G01X237000Y130100D02*
X236830Y129590D01*
X236420Y129210D01*
X235920Y128960D01*
X235250Y128770D01*
X234500Y128710D01*
X233750Y128770D01*
X233080Y128960D01*
X232580Y129210D01*
X232170Y129590D01*
X232000Y130100D01*
X232170Y130610D01*
X232580Y130990D01*
X233080Y131240D01*
X233750Y131430D01*
X234500Y131490D01*
X235250Y131430D01*
X235920Y131240D01*
X236420Y130990D01*
X236830Y130610D01*
X237000Y130100D01*
G01X232630Y224000D02*
Y219000D01*
X234220D01*
X234720Y219250D01*
X235040Y219580D01*
X235170Y220250D01*
X235040Y220920D01*
X234660Y221330D01*
X234220Y221580D01*
X232630D01*
G01X234220D02*
X235170Y224000D01*
G01X239000D02*
Y219000D01*
X238240Y220000D01*
G01Y224000D02*
X239760D01*
G01X244100D02*
Y219000D01*
X243340Y220000D01*
G01Y224000D02*
X244860D01*
G01X248630Y201000D02*
Y196000D01*
X250220D01*
X250720Y196250D01*
X251040Y196580D01*
X251170Y197250D01*
X251040Y197920D01*
X250660Y198330D01*
X250220Y198580D01*
X248630D01*
G01X250220D02*
X251170Y201000D01*
G01X255000D02*
Y196000D01*
X254240Y197000D01*
G01Y201000D02*
X255760D01*
G01X258710Y200000D02*
X259090Y200580D01*
X259590Y200920D01*
X260160Y201000D01*
X260670Y200920D01*
X261180Y200500D01*
X261490Y200000D01*
X261560Y199500D01*
X261430Y198920D01*
X260990Y198500D01*
X260540Y198330D01*
X259970D01*
G01X260540D02*
X260920Y198080D01*
X261240Y197670D01*
X261370Y197170D01*
X261240Y196670D01*
X260920Y196250D01*
X260350Y196000D01*
X259780Y196080D01*
X259210Y196420D01*
G01X235290Y230420D02*
X234910Y230170D01*
X234470Y230000D01*
X233960D01*
X233390Y230250D01*
X232950Y230670D01*
X232630Y231170D01*
X232380Y232000D01*
X232320Y232750D01*
X232440Y233500D01*
X232630Y234000D01*
X233010Y234500D01*
X233460Y234830D01*
X233900Y235000D01*
X234340D01*
X234790Y234830D01*
X235170Y234580D01*
X235480Y234250D01*
G01X239000Y235000D02*
Y230000D01*
X238240Y231000D01*
G01Y235000D02*
X239760D01*
G01X244100D02*
Y230000D01*
X243340Y231000D01*
G01Y235000D02*
X244860D01*
G01X269710Y291580D02*
X270090Y291830D01*
X270530Y292000D01*
X271040D01*
X271610Y291750D01*
X272050Y291330D01*
X272370Y290830D01*
X272620Y290000D01*
X272680Y289250D01*
X272560Y288500D01*
X272370Y288000D01*
X271990Y287500D01*
X271540Y287170D01*
X271100Y287000D01*
X270660D01*
X270210Y287170D01*
X269830Y287420D01*
X269520Y287750D01*
G01X266000Y287000D02*
Y292000D01*
X266760Y291000D01*
G01Y287000D02*
X265240D01*
G01X262290Y288000D02*
X261910Y287420D01*
X261410Y287080D01*
X260840Y287000D01*
X260330Y287080D01*
X259820Y287500D01*
X259510Y288000D01*
X259440Y288500D01*
X259570Y289080D01*
X260010Y289500D01*
X260460Y289670D01*
X261030D01*
G01X260460D02*
X260080Y289920D01*
X259760Y290330D01*
X259630Y290830D01*
X259760Y291330D01*
X260080Y291750D01*
X260650Y292000D01*
X261220Y291920D01*
X261790Y291580D01*
G01X276000Y118630D02*
X275500Y118950D01*
X275170Y119330D01*
X275000Y119770D01*
X275170Y120280D01*
X275500Y120660D01*
X276000Y121040D01*
X276670Y121170D01*
X280000D01*
G01X275000Y125000D02*
X280000D01*
X279000Y124240D01*
G01X275000D02*
Y125760D01*
G01Y130100D02*
X280000D01*
X279000Y129340D01*
G01X275000D02*
Y130860D01*
G01X279290Y180420D02*
X278910Y180170D01*
X278470Y180000D01*
X277960D01*
X277390Y180250D01*
X276950Y180670D01*
X276630Y181170D01*
X276380Y182000D01*
X276320Y182750D01*
X276440Y183500D01*
X276630Y184000D01*
X277010Y184500D01*
X277460Y184830D01*
X277900Y185000D01*
X278340D01*
X278790Y184830D01*
X279170Y184580D01*
X279480Y184250D01*
G01X283000Y185000D02*
Y180000D01*
X282240Y181000D01*
G01Y185000D02*
X283760D01*
G01X288100Y180000D02*
X287590Y180170D01*
X287210Y180580D01*
X286960Y181080D01*
X286770Y181750D01*
X286710Y182500D01*
X286770Y183250D01*
X286960Y183920D01*
X287210Y184420D01*
X287590Y184830D01*
X288100Y185000D01*
X288610Y184830D01*
X288990Y184420D01*
X289240Y183920D01*
X289430Y183250D01*
X289490Y182500D01*
X289430Y181750D01*
X289240Y181080D01*
X288990Y180580D01*
X288610Y180170D01*
X288100Y180000D01*
G01X322370Y68000D02*
Y73000D01*
X320780D01*
X320280Y72750D01*
X319960Y72420D01*
X319830Y71750D01*
X319960Y71080D01*
X320340Y70670D01*
X320780Y70420D01*
X322370D01*
G01X320780D02*
X319830Y68000D01*
G01X314730D02*
X317270D01*
Y73000D01*
X314730D01*
G01X315750Y70580D02*
X317270D01*
G01X312230Y68670D02*
X311720Y68250D01*
X311150Y68000D01*
X310650D01*
X310140Y68250D01*
X309760Y68670D01*
X309570Y69250D01*
X309700Y69830D01*
X310010Y70330D01*
X310580Y70670D01*
X311340Y70830D01*
X311790Y71170D01*
X311980Y71750D01*
X311850Y72330D01*
X311530Y72750D01*
X311090Y73000D01*
X310650D01*
X310200Y72830D01*
X309820Y72420D01*
G01X304530Y68000D02*
X307070D01*
Y73000D01*
X304530D01*
G01X305550Y70580D02*
X307070D01*
G01X300700Y73000D02*
Y68000D01*
G01X302160Y73000D02*
X299240D01*
G01X309670Y119570D02*
X309250Y120080D01*
X309000Y120650D01*
Y121150D01*
X309250Y121660D01*
X309670Y122040D01*
X310250Y122230D01*
X310830Y122100D01*
X311330Y121790D01*
X311670Y121220D01*
X311830Y120460D01*
X312170Y120010D01*
X312750Y119820D01*
X313330Y119950D01*
X313750Y120270D01*
X314000Y120710D01*
Y121150D01*
X313830Y121600D01*
X313420Y121980D01*
G01X314000Y124100D02*
X309000Y124990D01*
X314000Y126000D01*
X309000Y127010D01*
X314000Y127900D01*
G01X309000Y131100D02*
X314000D01*
X313000Y130340D01*
G01X309000D02*
Y131860D01*
G01X314180Y143000D02*
Y138000D01*
X315770D01*
X316270Y138250D01*
X316590Y138580D01*
X316720Y139250D01*
X316590Y139920D01*
X316210Y140330D01*
X315770Y140580D01*
X314180D01*
G01X315770D02*
X316720Y143000D01*
G01X319470Y142420D02*
X319920Y142830D01*
X320420Y143000D01*
X320930Y142830D01*
X321370Y142330D01*
X321690Y141580D01*
X321820Y140830D01*
Y139920D01*
X321690Y139170D01*
X321370Y138500D01*
X320990Y138170D01*
X320550Y138000D01*
X320040Y138170D01*
X319660Y138500D01*
X319410Y139000D01*
X319280Y139670D01*
X319410Y140250D01*
X319730Y140830D01*
X320110Y141170D01*
X320550Y141250D01*
X321060Y141080D01*
X321440Y140670D01*
X321820Y139920D01*
G01X302060Y193000D02*
Y196580D01*
X302310Y197330D01*
X302820Y197830D01*
X303450Y198000D01*
X304080Y197830D01*
X304590Y197330D01*
X304840Y196580D01*
Y193000D01*
G01X309310Y198000D02*
Y193000D01*
X306970Y196580D01*
X310130D01*
G01X293450Y264670D02*
Y262420D01*
X292180Y259670D01*
G01X294720D02*
X293450Y262420D01*
G01X298550Y264670D02*
Y259670D01*
X297790Y260670D01*
G01Y264670D02*
X299310D01*
G01X342000Y124630D02*
X347000D01*
Y126220D01*
X346750Y126720D01*
X346420Y127040D01*
X345750Y127170D01*
X345080Y127040D01*
X344670Y126660D01*
X344420Y126220D01*
Y124630D01*
G01Y126220D02*
X342000Y127170D01*
G01Y131000D02*
X347000D01*
X346000Y130240D01*
G01X342000D02*
Y131760D01*
G01X342750Y134710D02*
X342330Y135090D01*
X342080Y135530D01*
X342000Y136100D01*
X342170Y136670D01*
X342500Y137110D01*
X343080Y137430D01*
X343750Y137490D01*
X344420Y137370D01*
X344830Y137050D01*
X345170Y136610D01*
X345250Y136160D01*
X345170Y135720D01*
X344830Y135150D01*
X347000Y135340D01*
Y137050D01*
G01X335000Y171180D02*
X334500Y171500D01*
X334170Y171880D01*
X334000Y172320D01*
X334170Y172830D01*
X334500Y173210D01*
X335000Y173590D01*
X335670Y173720D01*
X339000D01*
G01X338170Y176350D02*
X338670Y176730D01*
X338920Y177170D01*
X339000Y177680D01*
X338830Y178310D01*
X338420Y178750D01*
X337920Y178880D01*
X337420Y178820D01*
X337000Y178560D01*
X336170Y177300D01*
X335580Y176730D01*
X334750Y176350D01*
X334000Y176220D01*
Y178880D01*
G01X337160Y233580D02*
X337540Y233830D01*
X337980Y234000D01*
X338490D01*
X339060Y233750D01*
X339500Y233330D01*
X339820Y232830D01*
X340070Y232000D01*
X340130Y231250D01*
X340010Y230500D01*
X339820Y230000D01*
X339440Y229500D01*
X338990Y229170D01*
X338550Y229000D01*
X338110D01*
X337660Y229170D01*
X337280Y229420D01*
X336970Y229750D01*
G01X334530Y229580D02*
X334080Y229170D01*
X333580Y229000D01*
X333070Y229170D01*
X332630Y229670D01*
X332310Y230420D01*
X332180Y231170D01*
Y232080D01*
X332310Y232830D01*
X332630Y233500D01*
X333010Y233830D01*
X333450Y234000D01*
X333960Y233830D01*
X334340Y233500D01*
X334590Y233000D01*
X334720Y232330D01*
X334590Y231750D01*
X334270Y231170D01*
X333890Y230830D01*
X333450Y230750D01*
X332940Y230920D01*
X332560Y231330D01*
X332180Y232080D01*
G01X330630Y279000D02*
Y274000D01*
X332220D01*
X332720Y274250D01*
X333040Y274580D01*
X333170Y275250D01*
X333040Y275920D01*
X332660Y276330D01*
X332220Y276580D01*
X330630D01*
G01X332220D02*
X333170Y279000D01*
G01X337000D02*
Y274000D01*
X336240Y275000D01*
G01Y279000D02*
X337760D01*
G01X342860D02*
Y274000D01*
X340520Y277580D01*
X343680D01*
G01X324290Y288420D02*
X323910Y288170D01*
X323470Y288000D01*
X322960D01*
X322390Y288250D01*
X321950Y288670D01*
X321630Y289170D01*
X321380Y290000D01*
X321320Y290750D01*
X321440Y291500D01*
X321630Y292000D01*
X322010Y292500D01*
X322460Y292830D01*
X322900Y293000D01*
X323340D01*
X323790Y292830D01*
X324170Y292580D01*
X324480Y292250D01*
G01X328000Y293000D02*
Y288000D01*
X327240Y289000D01*
G01Y293000D02*
X328760D01*
G01X331900Y288830D02*
X332280Y288330D01*
X332720Y288080D01*
X333230Y288000D01*
X333860Y288170D01*
X334300Y288580D01*
X334430Y289080D01*
X334370Y289580D01*
X334110Y290000D01*
X332850Y290830D01*
X332280Y291420D01*
X331900Y292250D01*
X331770Y293000D01*
X334430D01*
M02*
