G04 ================== begin FILE IDENTIFICATION RECORD ==================*
G04 Layout Name:  SMARTSLEEVESYSTEM.brd*
G04 Film Name:    SST*
G04 File Format:  Gerber RS274X*
G04 File Origin:  Cadence Allegro 17.2-P019*
G04 Origin Date:  Sun Mar 05 16:41:40 2017*
G04 *
G04 Layer:  USER PART NUMBER/SILKSCREEN_TOP*
G04 Layer:  TOLERANCE/SILKSCREEN_TOP*
G04 Layer:  REF DES/SILKSCREEN_TOP*
G04 Layer:  PACKAGE GEOMETRY/SILKSCREEN_TOP*
G04 Layer:  PACKAGE GEOMETRY/DFA_BOUND_TOP*
G04 Layer:  DEVICE TYPE/SILKSCREEN_TOP*
G04 Layer:  COMPONENT VALUE/SILKSCREEN_TOP*
G04 Layer:  BOARD GEOMETRY/SILKSCREEN_TOP*
G04 *
G04 Offset:    (0.0 0.0)*
G04 Mirror:    No*
G04 Mode:      Positive*
G04 Rotation:  0*
G04 FullContactRelief:  No*
G04 UndefLineWidth:     7.0*
G04 ================== end FILE IDENTIFICATION RECORD ====================*
%FSLAX25Y25*MOIN*%
%IR0*IPPOS*OFA0.00000B0.00000*MIA0B0*SFA1.00000B1.00000*%
%ADD10C,.0079*%
%ADD11C,.007*%
G75*
%LPD*%
G75*
G36*
G01X107500Y75790D02*
G02I-587J1D01*
G37*
G36*
G01X126190Y82000D02*
G02I-790J0D01*
G37*
G36*
G01X141160Y121300D02*
G02I-790J-1D01*
G37*
G36*
G01X226470Y65850D02*
Y15850D01*
X276470D01*
Y65850D01*
X226470D01*
G37*
G36*
G01X301470D02*
Y15850D01*
X351470D01*
Y65850D01*
X301470D01*
G37*
G36*
G01X108930Y62310D02*
Y75690D01*
X125070D01*
Y62310D01*
X108930D01*
G37*
G36*
G01X122840Y85840D02*
Y78160D01*
X109160D01*
Y85840D01*
X122840D01*
G37*
G36*
G01X109160Y87160D02*
Y94840D01*
X122840D01*
Y87160D01*
X109160D01*
G37*
G36*
G01X110160Y53160D02*
Y60840D01*
X123840D01*
Y53160D01*
X110160D01*
G37*
G36*
G01X136840Y98160D02*
X129160D01*
Y111840D01*
X136840D01*
Y98160D01*
G37*
G36*
G01X129160Y83840D02*
X136840D01*
Y70160D01*
X129160D01*
Y83840D01*
G37*
G36*
G01X150840Y70160D02*
X143160D01*
Y83840D01*
X150840D01*
Y70160D01*
G37*
G36*
G01X164840D02*
X157160D01*
Y83840D01*
X164840D01*
Y70160D01*
G37*
G36*
G01X161840Y131840D02*
Y124160D01*
X148160D01*
Y131840D01*
X161840D01*
G37*
G36*
G01X141600Y106110D02*
Y119890D01*
X166400D01*
Y106110D01*
X141600D01*
G37*
G36*
G01X191840Y93160D02*
X184160D01*
Y106840D01*
X191840D01*
Y93160D01*
G37*
G36*
G01X171160Y83840D02*
X178840D01*
Y70160D01*
X171160D01*
Y83840D01*
G37*
G36*
G01X192840Y70160D02*
X185160D01*
Y83840D01*
X192840D01*
Y70160D01*
G37*
G36*
G01X180840Y93160D02*
X173160D01*
Y106840D01*
X180840D01*
Y93160D01*
G37*
G36*
G01X179160Y133840D02*
X186840D01*
Y120160D01*
X179160D01*
Y133840D01*
G37*
G36*
G01X172160Y109160D02*
Y116840D01*
X185840D01*
Y109160D01*
X172160D01*
G37*
G54D10*
G01X116750Y54540D02*
X117250D01*
G01X116750Y59460D02*
X117250D01*
G01X117000Y63290D02*
Y74710D01*
G01X116250Y84460D02*
X115750D01*
G01X116250Y79540D02*
X115750D01*
G01Y88540D02*
X116250D01*
G01X115750Y93460D02*
X116250D01*
G01X130540Y77250D02*
Y76750D01*
G01X135460Y77250D02*
Y76750D01*
G01Y104750D02*
Y105250D01*
G01X130540Y104750D02*
Y105250D01*
G01X149460Y76750D02*
Y77250D01*
G01X144540Y76750D02*
Y77250D01*
G01X163460Y76750D02*
Y77250D01*
G01X158540Y76750D02*
Y77250D01*
G01X155250Y125540D02*
X154750D01*
G01X148780Y107090D02*
Y118910D01*
X159220D01*
Y107090D01*
X148780D01*
G01X155250Y130460D02*
X154750D01*
G01X190460Y99750D02*
Y100250D01*
G01X185540Y99750D02*
Y100250D01*
G01X172540Y77250D02*
Y76750D01*
G01X177460Y77250D02*
Y76750D01*
G01X191460D02*
Y77250D01*
G01X186540Y76750D02*
Y77250D01*
G01X179460Y99750D02*
Y100250D01*
G01X174540Y99750D02*
Y100250D01*
G01X180540Y127250D02*
Y126750D01*
G01X185460Y127250D02*
Y126750D01*
G01X178750Y110540D02*
X179250D01*
G01X178750Y115460D02*
X179250D01*
G54D11*
G01X99290Y59580D02*
X98910Y59830D01*
X98470Y60000D01*
X97960D01*
X97390Y59750D01*
X96950Y59330D01*
X96630Y58830D01*
X96380Y58000D01*
X96320Y57250D01*
X96440Y56500D01*
X96630Y56000D01*
X97010Y55500D01*
X97460Y55170D01*
X97900Y55000D01*
X98340D01*
X98790Y55170D01*
X99170Y55420D01*
X99480Y55750D01*
G01X103000Y55000D02*
Y60000D01*
X102240Y59000D01*
G01Y55000D02*
X103760D01*
G01X108860D02*
Y60000D01*
X106520Y56420D01*
X109680D01*
G01X101000Y65060D02*
X104580D01*
X105330Y65310D01*
X105830Y65820D01*
X106000Y66450D01*
X105830Y67080D01*
X105330Y67590D01*
X104580Y67840D01*
X101000D01*
G01X103920Y70350D02*
X103330Y70790D01*
X103000Y71170D01*
X102830Y71680D01*
X103000Y72120D01*
X103330Y72440D01*
X103830Y72690D01*
X104420Y72750D01*
X104920Y72690D01*
X105420Y72440D01*
X105830Y72060D01*
X106000Y71610D01*
X105830Y71110D01*
X105330Y70660D01*
X104580Y70410D01*
X103750Y70350D01*
X102670Y70470D01*
X102080Y70660D01*
X101500Y70980D01*
X101080Y71420D01*
X101000Y71870D01*
X101170Y72310D01*
X101580Y72630D01*
G01X103160Y78420D02*
X103540Y78170D01*
X103980Y78000D01*
X104490D01*
X105060Y78250D01*
X105500Y78670D01*
X105820Y79170D01*
X106070Y80000D01*
X106130Y80750D01*
X106010Y81500D01*
X105820Y82000D01*
X105440Y82500D01*
X104990Y82830D01*
X104550Y83000D01*
X104110D01*
X103660Y82830D01*
X103280Y82580D01*
X102970Y82250D01*
G01X99450Y83000D02*
Y78000D01*
X100210Y79000D01*
G01Y83000D02*
X98690D01*
G01X102340Y93580D02*
X101960Y93830D01*
X101520Y94000D01*
X101010D01*
X100440Y93750D01*
X100000Y93330D01*
X99680Y92830D01*
X99430Y92000D01*
X99370Y91250D01*
X99490Y90500D01*
X99680Y90000D01*
X100060Y89500D01*
X100510Y89170D01*
X100950Y89000D01*
X101390D01*
X101840Y89170D01*
X102220Y89420D01*
X102530Y89750D01*
G01X104850Y93170D02*
X105230Y93670D01*
X105670Y93920D01*
X106180Y94000D01*
X106810Y93830D01*
X107250Y93420D01*
X107380Y92920D01*
X107320Y92420D01*
X107060Y92000D01*
X105800Y91170D01*
X105230Y90580D01*
X104850Y89750D01*
X104720Y89000D01*
X107380D01*
G01X130500Y67820D02*
X135500D01*
Y66230D01*
X135250Y65730D01*
X134920Y65410D01*
X134250Y65280D01*
X133580Y65410D01*
X133170Y65790D01*
X132920Y66230D01*
Y67820D01*
G01Y66230D02*
X130500Y65280D01*
G01X131500Y62840D02*
X130920Y62460D01*
X130580Y61960D01*
X130500Y61390D01*
X130580Y60880D01*
X131000Y60370D01*
X131500Y60060D01*
X132000Y59990D01*
X132580Y60120D01*
X133000Y60560D01*
X133170Y61010D01*
Y61580D01*
G01Y61010D02*
X133420Y60630D01*
X133830Y60310D01*
X134330Y60180D01*
X134830Y60310D01*
X135250Y60630D01*
X135500Y61200D01*
X135420Y61770D01*
X135080Y62340D01*
G01X121420Y104840D02*
X121170Y104460D01*
X121000Y104020D01*
Y103510D01*
X121250Y102940D01*
X121670Y102500D01*
X122170Y102180D01*
X123000Y101930D01*
X123750Y101870D01*
X124500Y101990D01*
X125000Y102180D01*
X125500Y102560D01*
X125830Y103010D01*
X126000Y103450D01*
Y103890D01*
X125830Y104340D01*
X125580Y104720D01*
X125250Y105030D01*
G01X126000Y109310D02*
X121000D01*
X124580Y106970D01*
Y110130D01*
G01X140060Y127500D02*
Y123920D01*
X140310Y123170D01*
X140820Y122670D01*
X141450Y122500D01*
X142080Y122670D01*
X142590Y123170D01*
X142840Y123920D01*
Y127500D01*
G01X146550Y122500D02*
Y127500D01*
X145790Y126500D01*
G01Y122500D02*
X147310D01*
G01X162000Y60180D02*
X157000D01*
Y61770D01*
X157250Y62270D01*
X157580Y62590D01*
X158250Y62720D01*
X158920Y62590D01*
X159330Y62210D01*
X159580Y61770D01*
Y60180D01*
G01Y61770D02*
X162000Y62720D01*
G01Y67310D02*
X157000D01*
X160580Y64970D01*
Y68130D01*
G01X149000Y86180D02*
X144000D01*
Y87770D01*
X144250Y88270D01*
X144580Y88590D01*
X145250Y88720D01*
X145920Y88590D01*
X146330Y88210D01*
X146580Y87770D01*
Y86180D01*
G01Y87770D02*
X149000Y88720D01*
G01X148250Y91160D02*
X148670Y91540D01*
X148920Y91980D01*
X149000Y92550D01*
X148830Y93120D01*
X148500Y93560D01*
X147920Y93880D01*
X147250Y93940D01*
X146580Y93820D01*
X146170Y93500D01*
X145830Y93060D01*
X145750Y92610D01*
X145830Y92170D01*
X146170Y91600D01*
X144000Y91790D01*
Y93500D01*
G01X170820Y130000D02*
Y125000D01*
X169230D01*
X168730Y125250D01*
X168410Y125580D01*
X168280Y126250D01*
X168410Y126920D01*
X168790Y127330D01*
X169230Y127580D01*
X170820D01*
G01X169230D02*
X168280Y130000D01*
G01X164450D02*
Y125000D01*
X165210Y126000D01*
G01Y130000D02*
X163690D01*
G01X173000Y67820D02*
X178000D01*
Y66230D01*
X177750Y65730D01*
X177420Y65410D01*
X176750Y65280D01*
X176080Y65410D01*
X175670Y65790D01*
X175420Y66230D01*
Y67820D01*
G01Y66230D02*
X173000Y65280D01*
G01Y61580D02*
X174080Y61450D01*
X175000Y61260D01*
X175830Y61010D01*
X176750Y60690D01*
X178000Y60180D01*
Y62720D01*
G01X191000Y60180D02*
X186000D01*
Y61770D01*
X186250Y62270D01*
X186580Y62590D01*
X187250Y62720D01*
X187920Y62590D01*
X188330Y62210D01*
X188580Y61770D01*
Y60180D01*
G01Y61770D02*
X191000Y62720D01*
G01Y66550D02*
X190920Y66990D01*
X190670Y67500D01*
X190250Y67820D01*
X189670Y67940D01*
X189080Y67820D01*
X188580Y67440D01*
X188330Y66870D01*
Y66230D01*
X188170Y65850D01*
X187750Y65540D01*
X187170Y65410D01*
X186580Y65600D01*
X186170Y66040D01*
X186000Y66550D01*
X186170Y67060D01*
X186580Y67500D01*
X187170Y67690D01*
X187750Y67560D01*
X188170Y67250D01*
X188330Y66870D01*
Y66230D01*
X188580Y65660D01*
X189080Y65280D01*
X189670Y65160D01*
X190250Y65280D01*
X190670Y65600D01*
X190920Y66110D01*
X191000Y66550D01*
G01X185420Y86840D02*
X185170Y86460D01*
X185000Y86020D01*
Y85510D01*
X185250Y84940D01*
X185670Y84500D01*
X186170Y84180D01*
X187000Y83930D01*
X187750Y83870D01*
X188500Y83990D01*
X189000Y84180D01*
X189500Y84560D01*
X189830Y85010D01*
X190000Y85450D01*
Y85890D01*
X189830Y86340D01*
X189580Y86720D01*
X189250Y87030D01*
G01Y89160D02*
X189670Y89540D01*
X189920Y89980D01*
X190000Y90550D01*
X189830Y91120D01*
X189500Y91560D01*
X188920Y91880D01*
X188250Y91940D01*
X187580Y91820D01*
X187170Y91500D01*
X186830Y91060D01*
X186750Y90610D01*
X186830Y90170D01*
X187170Y89600D01*
X185000Y89790D01*
Y91500D01*
G01X178000Y84180D02*
X173000D01*
Y85770D01*
X173250Y86270D01*
X173580Y86590D01*
X174250Y86720D01*
X174920Y86590D01*
X175330Y86210D01*
X175580Y85770D01*
Y84180D01*
G01Y85770D02*
X178000Y86720D01*
G01X175920Y89350D02*
X175330Y89790D01*
X175000Y90170D01*
X174830Y90680D01*
X175000Y91120D01*
X175330Y91440D01*
X175830Y91690D01*
X176420Y91750D01*
X176920Y91690D01*
X177420Y91440D01*
X177830Y91060D01*
X178000Y90610D01*
X177830Y90110D01*
X177330Y89660D01*
X176580Y89410D01*
X175750Y89350D01*
X174670Y89470D01*
X174080Y89660D01*
X173500Y89980D01*
X173080Y90420D01*
X173000Y90870D01*
X173170Y91310D01*
X173580Y91630D01*
G01X195580Y129160D02*
X195830Y129540D01*
X196000Y129980D01*
Y130490D01*
X195750Y131060D01*
X195330Y131500D01*
X194830Y131820D01*
X194000Y132070D01*
X193250Y132130D01*
X192500Y132010D01*
X192000Y131820D01*
X191500Y131440D01*
X191170Y130990D01*
X191000Y130550D01*
Y130110D01*
X191170Y129660D01*
X191420Y129280D01*
X191750Y128970D01*
G01X192000Y126840D02*
X191420Y126460D01*
X191080Y125960D01*
X191000Y125390D01*
X191080Y124880D01*
X191500Y124370D01*
X192000Y124060D01*
X192500Y123990D01*
X193080Y124120D01*
X193500Y124560D01*
X193670Y125010D01*
Y125580D01*
G01Y125010D02*
X193920Y124630D01*
X194330Y124310D01*
X194830Y124180D01*
X195330Y124310D01*
X195750Y124630D01*
X196000Y125200D01*
X195920Y125770D01*
X195580Y126340D01*
G01X189180Y111000D02*
Y116000D01*
X190770D01*
X191270Y115750D01*
X191590Y115420D01*
X191720Y114750D01*
X191590Y114080D01*
X191210Y113670D01*
X190770Y113420D01*
X189180D01*
G01X190770D02*
X191720Y111000D01*
G01X194350Y115170D02*
X194730Y115670D01*
X195170Y115920D01*
X195680Y116000D01*
X196310Y115830D01*
X196750Y115420D01*
X196880Y114920D01*
X196820Y114420D01*
X196560Y114000D01*
X195300Y113170D01*
X194730Y112580D01*
X194350Y111750D01*
X194220Y111000D01*
X196880D01*
G01X226470Y65850D02*
Y15850D01*
X276470D01*
Y65850D01*
X226470D01*
G01X266270Y41850D02*
X266590Y41350D01*
X266970Y41020D01*
X267410Y40850D01*
X267920Y41020D01*
X268300Y41350D01*
X268680Y41850D01*
X268810Y42520D01*
Y45850D01*
G01X271560Y41430D02*
X272010Y41020D01*
X272510Y40850D01*
X273020Y41020D01*
X273460Y41520D01*
X273780Y42270D01*
X273910Y43020D01*
Y43930D01*
X273780Y44680D01*
X273460Y45350D01*
X273080Y45680D01*
X272640Y45850D01*
X272130Y45680D01*
X271750Y45350D01*
X271500Y44850D01*
X271370Y44180D01*
X271500Y43600D01*
X271820Y43020D01*
X272200Y42680D01*
X272640Y42600D01*
X273150Y42770D01*
X273530Y43180D01*
X273910Y43930D01*
G01X301470Y65850D02*
Y15850D01*
X351470D01*
Y65850D01*
X301470D01*
G01X341270Y41850D02*
X341590Y41350D01*
X341970Y41020D01*
X342410Y40850D01*
X342920Y41020D01*
X343300Y41350D01*
X343680Y41850D01*
X343810Y42520D01*
Y45850D01*
G01X347640Y40850D02*
X348080Y40930D01*
X348590Y41180D01*
X348910Y41600D01*
X349030Y42180D01*
X348910Y42770D01*
X348530Y43270D01*
X347960Y43520D01*
X347320D01*
X346940Y43680D01*
X346630Y44100D01*
X346500Y44680D01*
X346690Y45270D01*
X347130Y45680D01*
X347640Y45850D01*
X348150Y45680D01*
X348590Y45270D01*
X348780Y44680D01*
X348650Y44100D01*
X348340Y43680D01*
X347960Y43520D01*
X347320D01*
X346750Y43270D01*
X346370Y42770D01*
X346250Y42180D01*
X346370Y41600D01*
X346690Y41180D01*
X347200Y40930D01*
X347640Y40850D01*
M02*
