G04 ================== begin FILE IDENTIFICATION RECORD ==================*
G04 Layout Name:  SMARTSLEEVESYSTEM.brd*
G04 Film Name:    TOP*
G04 File Format:  Gerber RS274X*
G04 File Origin:  Cadence Allegro 17.2-P019*
G04 Origin Date:  Sun Mar 05 16:41:40 2017*
G04 *
G04 Layer:  ETCH/TOP*
G04 Layer:  PIN/TOP*
G04 Layer:  VIA CLASS/TOP*
G04 *
G04 Offset:    (0.0 0.0)*
G04 Mirror:    No*
G04 Mode:      Positive*
G04 Rotation:  0*
G04 FullContactRelief:  No*
G04 UndefLineWidth:     0.0*
G04 ================== end FILE IDENTIFICATION RECORD ====================*
%FSLAX25Y25*MOIN*%
%IR0*IPPOS*OFA0.00000B0.00000*MIA0B0*SFA1.00000B1.00000*%
%ADD18C,.5*%
%ADD10C,.135*%
%ADD14C,.024*%
%ADD21C,.055*%
%ADD12C,.065*%
%ADD19C,.058*%
%ADD16R,.0571X.0423*%
%ADD15R,.0423X.0571*%
%ADD17R,.0482X.0118*%
%ADD13R,.0394X.0217*%
%ADD11R,.065X.065*%
%ADD20R,.058X.058*%
%ADD22C,.007*%
%ADD23C,.02*%
%ADD24C,.012*%
%ADD25C,.03*%
%ADD26C,.015*%
%ADD28C,.5144*%
%ADD31C,.1494*%
%ADD29C,.0724*%
%ADD30C,.0694*%
%ADD27C,.0794*%
G75*
%LPD*%
G75*
G36*
G01X102000Y53000D02*
Y84000D01*
X31000D01*
Y290000D01*
X128000D01*
Y143730D01*
X104410Y120140D01*
X101990D01*
X101920Y120210D01*
X92000D01*
G03X90440Y116440I0J-2208D01*
G01X100340Y106530D01*
X129410D01*
X129500Y106330D01*
G03X130140Y105910I649J292D01*
G01X135860D01*
G03X136570Y106620I-5J715D01*
G01Y107430D01*
X137700D01*
X138020Y107750D01*
X151600D01*
X157540Y113690D01*
X158730D01*
X158760Y113660D01*
X159890D01*
Y112410D01*
G03X160010Y112020I709J5D01*
G03X159890Y111620I591J-395D01*
G01Y110440D01*
G03X160010Y110040I711J-5D01*
G03X159890Y109650I589J-395D01*
G01Y108470D01*
G03X160600Y107760I710J0D01*
G01X160900D01*
G02X161150Y107160I3J-351D01*
G01X160690Y106700D01*
Y99400D01*
G03X163310I1310J-1400D01*
G01Y105620D01*
X164320Y106630D01*
Y107760D01*
X165420D01*
G03X166130Y108470I0J710D01*
G01Y109720D01*
X168430D01*
X173430Y104710D01*
Y101620D01*
G03X174140Y100910I715J5D01*
G01X179860D01*
G03X180570Y101620I-5J715D01*
G01Y102430D01*
X184430D01*
Y101620D01*
G03X185140Y100910I715J5D01*
G01X190860D01*
G03X191570Y101620I-5J715D01*
G01Y105860D01*
G03X190860Y106570I-715J-5D01*
G01X185140D01*
G03X184430Y105860I5J-715D01*
G01Y105050D01*
X180570D01*
Y105860D01*
G03X179860Y106570I-715J-5D01*
G01X175290D01*
X173610Y108240D01*
G02X174110Y109430I497J491D01*
G01X177380D01*
G03X178090Y110140I-5J715D01*
G01Y115860D01*
G03X177380Y116570I-715J-5D01*
G01X173140D01*
G03X172430Y115860I5J-715D01*
G01Y114310D01*
X166130D01*
Y115560D01*
G03X166010Y115960I-711J5D01*
G03X166130Y116350I-589J395D01*
G01Y117530D01*
G03X165420Y118240I-710J0D01*
G01X163150D01*
G03X163010Y118250I-163J-1298D01*
G01X161730D01*
X160050Y119930D01*
Y124430D01*
X160860D01*
G03X161570Y125140I-5J715D01*
G01Y130860D01*
G03X160860Y131570I-715J-5D01*
G01X156620D01*
G03X155910Y130860I5J-715D01*
G01Y125140D01*
G03X156620Y124430I715J5D01*
G01X157430D01*
Y118850D01*
X158770Y117500D01*
G02X158280Y116310I-496J-492D01*
G01X156460D01*
X150520Y110370D01*
X148110D01*
Y111620D01*
G03X147990Y112020I-711J5D01*
G03X148110Y112410I-589J395D01*
G01Y113590D01*
G03X147990Y113980I-709J-5D01*
G03X148110Y114380I-591J395D01*
G01Y115560D01*
G03X147990Y115960I-711J5D01*
G03X148110Y116270I-584J404D01*
G01X148120Y116400D01*
X152570Y120850D01*
Y124430D01*
X153380D01*
G03X154090Y125140I-5J715D01*
G01Y130860D01*
G03X153380Y131570I-715J-5D01*
G01X149140D01*
G03X148430Y130860I5J-715D01*
G01Y125140D01*
G03X149140Y124430I715J5D01*
G01X149950D01*
Y121930D01*
X146270Y118250D01*
X144990D01*
G03X144850Y118240I23J-1308D01*
G01X142580D01*
G03X141870Y117530I0J-710D01*
G01Y116830D01*
G02X141270Y116580I-351J-3D01*
G01X136920Y120930D01*
Y121070D01*
G03X134930Y119080I-1920J-70D01*
G01X135070D01*
X138640Y115500D01*
G02X138150Y114310I-496J-492D01*
G01X134540D01*
X129920Y118930D01*
Y119070D01*
G03X127930Y117080I-1920J-70D01*
G01X128070D01*
X132390Y112760D01*
G02X131890Y111570I-497J-491D01*
G01X130140D01*
G03X129500Y111150I9J-712D01*
G01X129410Y110950D01*
X102180D01*
X102000Y111130D01*
Y115720D01*
X106250D01*
X125530Y135000D01*
X198000D01*
Y124570D01*
X186570D01*
Y125380D01*
G03X185860Y126090I-715J-5D01*
G01X180140D01*
G03X179430Y125380I5J-715D01*
G01Y121140D01*
G03X180140Y120430I715J5D01*
G01X181690D01*
Y117960D01*
X181430Y117700D01*
Y116570D01*
X180620D01*
G03X179910Y115860I5J-715D01*
G01Y110140D01*
G03X180620Y109430I715J5D01*
G01X184860D01*
G03X185570Y110140I-5J715D01*
G01Y115860D01*
G03X184860Y116570I-715J-5D01*
G01X184310D01*
Y120430D01*
X185860D01*
G03X186570Y121140I-5J715D01*
G01Y121950D01*
X198000D01*
Y82200D01*
X192570D01*
Y82860D01*
G03X191860Y83570I-715J-5D01*
G01X186140D01*
G03X185430Y82860I5J-715D01*
G01Y82050D01*
X178570D01*
Y82860D01*
G03X177860Y83570I-715J-5D01*
G01X172140D01*
G03X171430Y82860I5J-715D01*
G01Y78620D01*
G03X172140Y77910I715J5D01*
G01X177860D01*
G03X178570Y78620I-5J715D01*
G01Y79430D01*
X185430D01*
Y78620D01*
G03X186140Y77910I715J5D01*
G01X191860D01*
G03X192570Y78620I-5J715D01*
G01Y79280D01*
X196660D01*
X198000Y77930D01*
Y53000D01*
X124190D01*
G02X123530Y53920I4J699D01*
G03X123570Y54140I-672J236D01*
G01Y55290D01*
X127710D01*
X129590Y57170D01*
X129660Y57200D01*
G03X127200Y59660I-660J1800D01*
G01X127170Y59590D01*
X126290Y58710D01*
X123570D01*
Y59860D01*
G03X123210Y60470I-712J-9D01*
G02X123060Y61570I346J607D01*
G01X123580Y62100D01*
Y63460D01*
X124090D01*
G03X124800Y64180I0J710D01*
G01Y66340D01*
G03X124680Y66740I-710J5D01*
G02Y67520I581J390D01*
G03X124800Y67920I-590J395D01*
G01Y70080D01*
G03X124570Y70610I-711J7D01*
G02Y71130I233J260D01*
G03X124610Y71170I-482J522D01*
G01X124710Y71280D01*
X128760D01*
X129090Y71600D01*
X129430Y71260D01*
X129440Y71120D01*
G03X130140Y70430I710J20D01*
G01X135860D01*
G03X136570Y71140I-5J715D01*
G01Y75380D01*
G03X135860Y76090I-715J-5D01*
G01X130140D01*
G03X129430Y75380I5J-715D01*
G01Y74720D01*
X128080D01*
X127560Y74200D01*
X124710D01*
X124610Y74310D01*
G03X124090Y74540I-520J-473D01*
G01X123580D01*
Y75890D01*
X122050Y77420D01*
G02X122200Y78530I496J498D01*
G03X122570Y79140I-340J624D01*
G01Y84860D01*
G03X121860Y85570I-715J-5D01*
G01X121200D01*
Y87430D01*
X121860D01*
G03X122570Y88140I-5J715D01*
G01Y93860D01*
G03X121860Y94570I-715J-5D01*
G01X117620D01*
G03X116910Y93860I5J-715D01*
G01Y88140D01*
G03X117620Y87430I715J5D01*
G01X118280D01*
Y85570D01*
X117620D01*
G03X116910Y84860I5J-715D01*
G01Y79140D01*
G03X117620Y78430I715J5D01*
G01X118280D01*
Y77070D01*
X119860Y75490D01*
G02X119750Y74410I-497J-495D01*
G03X119440Y73820I400J-586D01*
G01Y71660D01*
G03X119560Y71260I710J-5D01*
G02Y70480I-581J-390D01*
G03X119440Y70080I590J-395D01*
G01Y67920D01*
G03X119560Y67520I710J-5D01*
G02Y66740I-581J-390D01*
G03X119440Y66340I590J-395D01*
G01Y64180D01*
G03X119760Y63580I711J-6D01*
G02X119860Y62510I-394J-577D01*
G01X119280Y61920D01*
Y60570D01*
X118620D01*
G03X117910Y59860I5J-715D01*
G01Y54140D01*
G03X117950Y53920I712J16D01*
G02X117290Y53000I-664J-221D01*
G01X116710D01*
G02X116050Y53920I4J699D01*
G03X116090Y54140I-672J236D01*
G01Y59860D01*
G03X115380Y60570I-715J-5D01*
G01X111140D01*
G03X110430Y59860I5J-715D01*
G01Y54140D01*
G03X110470Y53920I712J16D01*
G02X109810Y53000I-664J-221D01*
G01X102000D01*
G37*
G36*
G01X102180Y110950D02*
X98530Y114600D01*
G02X99030Y115790I497J491D01*
G01X100080D01*
X100150Y115720D01*
X106250D01*
X106350Y115820D01*
X126810Y136280D01*
G02X128000Y135780I491J-497D01*
G01Y120940D01*
X127700Y120900D01*
G03Y117100I300J-1900D01*
G01X128000Y117060D01*
Y110950D01*
X102180D01*
G37*
G36*
G01X102000Y120140D02*
Y135000D01*
X117580D01*
G02X118080Y133810I3J-699D01*
G01X104410Y120140D01*
X102000D01*
G37*
G36*
G01X136570Y110370D02*
Y110860D01*
G03X136560Y110920I-701J-86D01*
G02X137260Y111690I697J69D01*
G01X141870D01*
Y110370D01*
X136570D01*
G37*
G36*
G01X231500Y57070D02*
G03X275240Y31000I19970J-16223D01*
G03X240670Y64200I-23753J9866D01*
G03X234340Y60040I10810J-23345D01*
G01X233350Y61030D01*
X219030D01*
X197860Y82200D01*
X193000D01*
Y116000D01*
X319790D01*
Y113180D01*
X319620Y113010D01*
Y110800D01*
X318580D01*
G03X317870Y110090I0J-710D01*
G01Y103590D01*
G03X318580Y102880I710J0D01*
G01X325080D01*
G03X325790Y103590I0J710D01*
G01Y110090D01*
G03X325080Y110800I-710J0D01*
G01X324280D01*
X324100Y111230D01*
X324210Y111340D01*
Y116000D01*
X371000D01*
Y6000D01*
X193000D01*
Y79280D01*
X196660D01*
X217830Y58110D01*
X230880D01*
G02X231500Y57070I6J-701D01*
G37*
G36*
G01X327540Y209280D02*
Y163440D01*
X326050Y161960D01*
G02X324980Y162050I-497J492D01*
G03X319790Y157130I-2982J-2051D01*
G01Y144000D01*
X199000D01*
Y181790D01*
X263080D01*
X278080Y166790D01*
X302000D01*
G03Y171210I0J2210D01*
G01X279920D01*
X265560Y185560D01*
G03X264000Y186210I-1560J-1547D01*
G01X199000D01*
Y210540D01*
X268400D01*
X295080Y183850D01*
X295100Y183730D01*
G03X297270Y185900I1900J270D01*
G01X297150Y185920D01*
X269600Y213460D01*
X199000D01*
Y267690D01*
X287450D01*
X293340Y261810D01*
X296460Y258690D01*
X302600D01*
G03Y261310I1400J1310D01*
G01X297540D01*
X294680Y264180D01*
X288930Y269930D01*
G03X288850Y270010I-970J-890D01*
G01X288540Y270310D01*
X288100D01*
G03X287900I-100J-1310D01*
G01X199000D01*
Y298000D01*
X374000D01*
Y238750D01*
G02X372810Y238260I-699J7D01*
G01X366600Y244460D01*
X346600D01*
X333600Y257460D01*
X323250D01*
G03Y254540I-1250J-1460D01*
G01X332400D01*
X345400Y241540D01*
X365400D01*
X370540Y236400D01*
Y162940D01*
X368970Y161380D01*
G02X367790Y161990I-492J495D01*
G03X361550Y164610I-3418J600D01*
G02X360490Y164530I-564J413D01*
G01X354700Y170310D01*
Y175360D01*
X353420Y176650D01*
X353400Y176770D01*
G03X351230Y174600I-1900J-270D01*
G01X351350Y174580D01*
X351780Y174160D01*
Y169110D01*
X359760Y161130D01*
X361220D01*
G03X366360Y159750I3147J1461D01*
G01X366600Y159920D01*
X367050Y159460D01*
X365570Y157970D01*
X365370Y158030D01*
G03X367690Y155710I-1000J-3320D01*
G01X367630Y155910D01*
X372810Y161080D01*
G02X374000Y160590I491J-497D01*
G01Y144000D01*
X324210D01*
Y157130D01*
G03X325310Y158540I-2216J2863D01*
G01X326760D01*
X330460Y162240D01*
Y210480D01*
X284860Y256090D01*
X284840Y256210D01*
G03X282670Y254040I-1900J-270D01*
G01X282790Y254020D01*
X327540Y209280D01*
G37*
%LPC*%
G75*
G36*
G01X114080Y255880D02*
X107580D01*
G02X106870Y256590I0J710D01*
G01Y263090D01*
G02X107580Y263800I710J0D01*
G01X114080D01*
G02X114790Y263090I0J-710D01*
G01Y256590D01*
G02X114080Y255880I-710J0D01*
G37*
G36*
G01X52420Y236200D02*
X45920D01*
G02X45210Y236910I0J710D01*
G01Y243410D01*
G02X45920Y244120I710J0D01*
G01X52420D01*
G02X53130Y243410I0J-710D01*
G01Y236910D01*
G02X52420Y236200I-710J0D01*
G37*
G36*
G01X119740Y153810D02*
G02X116260I-1740J-810D01*
G01X116290Y153870D01*
Y211290D01*
X103410Y224170D01*
X103340Y224200D01*
G02X105800Y226660I660J1800D01*
G01X105830Y226590D01*
X119710Y212710D01*
Y153870D01*
X119740Y153810D01*
G37*
G36*
G01X185860Y127910D02*
X180140D01*
G02X179430Y128620I5J715D01*
G01Y132860D01*
G02X180140Y133570I715J-5D01*
G01X185860D01*
G02X186570Y132860I-5J-715D01*
G01Y128620D01*
G02X185860Y127910I-715J5D01*
G37*
G36*
G01X135860Y98430D02*
X130140D01*
G02X129430Y99140I5J715D01*
G01Y103380D01*
G02X130140Y104090I715J-5D01*
G01X135860D01*
G02X136570Y103380I-5J-715D01*
G01Y99140D01*
G02X135860Y98430I-715J5D01*
G37*
G36*
G01X190860Y93430D02*
X185140D01*
G02X184430Y94140I5J715D01*
G01Y98380D01*
G02X185140Y99090I715J-5D01*
G01X190860D01*
G02X191570Y98380I-5J-715D01*
G01Y94140D01*
G02X190860Y93430I-715J5D01*
G37*
G36*
G01X179860D02*
X174140D01*
G02X173430Y94140I5J715D01*
G01Y98380D01*
G02X174140Y99090I715J-5D01*
G01X179860D01*
G02X180570Y98380I-5J-715D01*
G01Y94140D01*
G02X179860Y93430I-715J5D01*
G37*
G36*
G01X114380Y87430D02*
X110140D01*
G02X109430Y88140I5J715D01*
G01Y93860D01*
G02X110140Y94570I715J-5D01*
G01X114380D01*
G02X115090Y93860I-5J-715D01*
G01Y88140D01*
G02X114380Y87430I-715J5D01*
G37*
G36*
G01Y78430D02*
X110140D01*
G02X109430Y79140I5J715D01*
G01Y84860D01*
G02X110140Y85570I715J-5D01*
G01X114380D01*
G02X115090Y84860I-5J-715D01*
G01Y79140D01*
G02X114380Y78430I-715J5D01*
G37*
G36*
G01X135860Y77910D02*
X130140D01*
G02X129430Y78620I5J715D01*
G01Y82860D01*
G02X130140Y83570I715J-5D01*
G01X135860D01*
G02X136570Y82860I-5J-715D01*
G01Y82050D01*
X143430D01*
Y82860D01*
G02X144140Y83570I715J-5D01*
G01X149860D01*
G02X150570Y82860I-5J-715D01*
G01Y82050D01*
X157430D01*
Y82860D01*
G02X158140Y83570I715J-5D01*
G01X163860D01*
G02X164570Y82860I-5J-715D01*
G01Y78620D01*
G02X163860Y77910I-715J5D01*
G01X158140D01*
G02X157430Y78620I5J715D01*
G01Y79430D01*
X150570D01*
Y78620D01*
G02X149860Y77910I-715J5D01*
G01X144140D01*
G02X143430Y78620I5J715D01*
G01Y79430D01*
X136570D01*
Y78620D01*
G02X135860Y77910I-715J5D01*
G37*
G36*
G01X191860Y70430D02*
X186140D01*
G02X185430Y71140I5J715D01*
G01Y75380D01*
G02X186140Y76090I715J-5D01*
G01X191860D01*
G02X192570Y75380I-5J-715D01*
G01Y71140D01*
G02X191860Y70430I-715J5D01*
G37*
G36*
G01X169400Y64690D02*
G02Y67310I-1400J1310D01*
G01X171460D01*
X172950Y68800D01*
Y70430D01*
X172140D01*
G02X171430Y71140I5J715D01*
G01Y71950D01*
X164570D01*
Y71140D01*
G02X163860Y70430I-715J5D01*
G01X158140D01*
G02X157430Y71140I5J715D01*
G01Y75380D01*
G02X158140Y76090I715J-5D01*
G01X163860D01*
G02X164570Y75380I-5J-715D01*
G01Y74570D01*
X171430D01*
Y75380D01*
G02X172140Y76090I715J-5D01*
G01X177860D01*
G02X178570Y75380I-5J-715D01*
G01Y71140D01*
G02X177860Y70430I-715J5D01*
G01X175570D01*
Y67720D01*
X172540Y64690D01*
X169400D01*
G37*
G36*
G01X113850Y63460D02*
X109910D01*
G02X109200Y64180I0J710D01*
G01Y66340D01*
G02X109320Y66740I710J5D01*
G03Y67520I-581J390D01*
G02X109200Y67920I590J395D01*
G01Y70080D01*
G02X109320Y70480I710J5D01*
G03Y71260I-581J390D01*
G02X109200Y71660I590J395D01*
G01Y73820D01*
G02X109910Y74540I710J10D01*
G01X113850D01*
G02X114560Y73820I0J-710D01*
G01Y71660D01*
G02X114440Y71260I-710J-5D01*
G03Y70480I581J-390D01*
G02X114560Y70080I-590J-395D01*
G01Y67920D01*
G02X114440Y67520I-710J-5D01*
G03Y66740I581J-390D01*
G02X114560Y66340I-590J-395D01*
G01Y64180D01*
G02X113850Y63460I-710J-10D01*
G37*
G36*
G01X155260Y62900D02*
G02X153100Y60740I-260J-1900D01*
G01X153080Y60850D01*
X145540Y68400D01*
Y70430D01*
X144140D01*
G02X143430Y71140I5J715D01*
G01Y75380D01*
G02X144140Y76090I715J-5D01*
G01X149860D01*
G02X150570Y75380I-5J-715D01*
G01Y71140D01*
G02X149860Y70430I-715J5D01*
G01X148460D01*
Y69600D01*
X155150Y62920D01*
X155260Y62900D01*
G37*
G36*
G01X271870Y103590D02*
Y110090D01*
G02X272580Y110800I710J0D01*
G01X279080D01*
G02X279790Y110090I0J-710D01*
G01Y103590D01*
G02X279080Y102880I-710J0D01*
G01X272580D01*
G02X271870Y103590I0J710D01*
G37*
G36*
G01X223870Y101590D02*
Y108090D01*
G02X224580Y108800I710J0D01*
G01X231080D01*
G02X231790Y108090I0J-710D01*
G01Y101590D01*
G02X231080Y100880I-710J0D01*
G01X224580D01*
G02X223870Y101590I0J710D01*
G37*
G36*
G01X328750Y245540D02*
X299400D01*
X285850Y259080D01*
X285740Y259100D01*
G02X287900Y261260I260J1900D01*
G01X287920Y261150D01*
X300600Y248460D01*
X328750D01*
G02Y245540I1250J-1460D01*
G37*
G36*
G01X359190Y184750D02*
X351400Y192540D01*
X337250D01*
G02Y195460I-1250J1460D01*
G01X352600D01*
X360390Y187670D01*
X361220D01*
G02Y184750I3150J-1460D01*
G01X359190D01*
G37*
G36*
G01X353650Y182580D02*
X340920Y169850D01*
X340900Y169740D01*
G02X338740Y171900I-1900J260D01*
G01X338850Y171920D01*
X351580Y184650D01*
X351600Y184760D01*
G02X353760Y182600I1900J-260D01*
G01X353650Y182580D01*
G37*
G36*
G01X318460Y175600D02*
X320690Y173380D01*
X320890Y173450D01*
G02X318550Y171110I1110J-3450D01*
G01X318620Y171310D01*
X315540Y174400D01*
Y176740D01*
G03X314380Y177270I-699J4D01*
G02Y182730I-2380J2730D01*
G03X315540Y183260I461J526D01*
G01Y188400D01*
X258400Y245540D01*
X254250D01*
G02Y248460I-1250J1460D01*
G01X259600D01*
X318460Y189600D01*
Y183570D01*
X318860D01*
X318910Y183580D01*
G02X319100Y183610I204J-678D01*
G01X320540D01*
Y201400D01*
X272400Y249540D01*
X269250D01*
G02Y252460I-1250J1460D01*
G01X273600D01*
X323460Y202600D01*
Y183610D01*
X324900D01*
G02X325610Y182900I0J-710D01*
G01Y177100D01*
G02X324900Y176390I-710J0D01*
G01X319100D01*
G02X318910Y176420I14J708D01*
G01X318860Y176430D01*
X318460D01*
Y175600D01*
G37*
G36*
G01X307460Y176600D02*
X310690Y173380D01*
X310890Y173450D01*
G02X308550Y171110I1110J-3450D01*
G01X308620Y171310D01*
X304540Y175400D01*
Y187400D01*
X234850Y257080D01*
X234740Y257100D01*
G02X236900Y259260I260J1900D01*
G01X236920Y259150D01*
X307460Y188600D01*
Y176600D01*
G37*
G54D28*
X326470Y40850D03*
G54D31*
X357850Y257350D03*
G54D29*
X312000Y160000D03*
G54D30*
X364370Y178330D03*
Y170460D03*
Y217700D03*
Y209830D03*
Y201960D03*
Y194080D03*
Y233450D03*
Y225580D03*
G54D27*
X89170Y259840D03*
X70830D03*
X49170D03*
X110830Y240160D03*
X89170D03*
X70830D03*
X227830Y85160D03*
X206170D03*
Y104840D03*
X254170Y87160D03*
Y106840D03*
X275830Y87160D03*
X300170D03*
X321830D03*
X300170Y106840D03*
%LPD*%
G75*
G54D10*
X18850Y132350D03*
Y257350D03*
X357850Y132350D03*
Y257350D03*
G54D20*
X322000Y180000D03*
G54D11*
X49170Y240160D03*
X110830Y259840D03*
X227830Y104840D03*
X275830Y106840D03*
X321830D03*
G54D12*
X49170Y259840D03*
X70830Y240160D03*
Y259840D03*
X89170Y240160D03*
X110830D03*
X89170Y259840D03*
X206170Y85160D03*
X227830D03*
X206170Y104840D03*
X254170Y87160D03*
Y106840D03*
X275830Y87160D03*
X300170D03*
X321830D03*
X300170Y106840D03*
G54D21*
X364370Y162590D03*
Y154710D03*
Y186210D03*
Y178330D03*
Y170460D03*
Y217700D03*
Y209830D03*
Y201960D03*
Y194080D03*
Y233450D03*
Y225580D03*
G54D22*
G01X110080Y57000D02*
X113260D01*
G01X108850Y69000D02*
X111880D01*
G01X109080Y82000D02*
X112260D01*
G01X108850Y72740D02*
X111880D01*
G01X106520Y240160D02*
X110830D01*
G01X113260Y57000D02*
Y60920D01*
G01Y57000D02*
X116440D01*
G01X111880Y69000D02*
X114910D01*
G01X133000Y98080D02*
Y101260D01*
G01X112260Y78080D02*
Y82000D01*
G01D02*
X115440D01*
G01X111880Y72740D02*
Y74890D01*
G01Y72740D02*
X114910D01*
G01X133000Y101260D02*
Y104440D01*
G01X129080Y101260D02*
X133000D01*
G01D02*
X136920D01*
G01X110830Y235850D02*
Y240160D01*
G01D02*
Y244470D01*
G01Y240160D02*
X115140D01*
G01X141520Y111030D02*
X144990D01*
G01D02*
X148460D01*
G01X189000Y70080D02*
Y73260D01*
G01X177000Y93080D02*
Y96260D01*
G01D02*
Y99440D01*
G01X173080Y96260D02*
X177000D01*
G01D02*
X180920D01*
G01X189000Y73260D02*
Y76440D01*
G01X185080Y73260D02*
X189000D01*
G01D02*
X192920D01*
G01X188000Y93080D02*
Y96260D01*
G01D02*
Y99440D01*
G01X184080Y96260D02*
X188000D01*
G01D02*
X191920D01*
G01X183000Y127560D02*
Y130740D01*
G01D02*
Y133920D01*
G01X179080Y130740D02*
X183000D01*
G01D02*
X186920D01*
G01X317520Y87160D02*
X321830D01*
G01X312000Y156040D02*
Y160000D01*
G01D02*
Y163960D01*
G01X308040Y160000D02*
X312000D01*
G01D02*
X315960D01*
G01X321830Y82850D02*
Y87160D01*
G01D02*
Y91470D01*
G01Y87160D02*
X326140D01*
G01X364370Y198150D02*
Y201960D01*
G01D02*
Y205770D01*
G01X360560Y201960D02*
X364370D01*
G01D02*
X368180D01*
G01X364370Y229640D02*
Y233450D01*
G01D02*
Y237260D01*
G01X360560Y233450D02*
X364370D01*
G01D02*
X368180D01*
G54D13*
X111880Y65260D03*
Y69000D03*
Y72740D03*
X122120Y69000D03*
Y65260D03*
Y72740D03*
G54D23*
G01X118000Y153000D02*
Y212000D01*
X104000Y226000D01*
G01X120740Y57000D02*
X127000D01*
X129000Y59000D01*
G54D14*
X92000Y118000D03*
X104000Y226000D03*
X129000Y59000D03*
X128000Y119000D03*
X135000Y121000D03*
X118000Y153000D03*
X141000Y212000D03*
X155000Y61000D03*
X168000Y66000D03*
X162000Y98000D03*
Y239000D03*
X253000Y247000D03*
X235000Y259000D03*
X290700Y135300D03*
X264000Y184000D03*
X268000Y251000D03*
X282940Y255940D03*
X286000Y261000D03*
X297000Y184000D03*
X302000Y169000D03*
X322000Y256000D03*
X304000Y260000D03*
X336000Y113000D03*
X351500Y176500D03*
X339000Y170000D03*
X336000Y194000D03*
X330000Y247000D03*
X353500Y184500D03*
G54D24*
G01X133000Y80740D02*
X147000D01*
G01X144990Y113000D02*
X134000D01*
X128000Y119000D01*
G01X144990Y114970D02*
X141030D01*
X135000Y121000D01*
G01X144990Y109060D02*
X137480D01*
X137160Y108740D01*
X133000D01*
G01X168000Y66000D02*
X172000D01*
X174260Y68260D01*
Y73260D01*
G01X147000Y80740D02*
X161000D01*
G01X174260Y73260D02*
X161000D01*
G01X163010Y109060D02*
Y107170D01*
X162000Y106160D01*
Y98000D01*
G01X163010Y111030D02*
X168970D01*
X176260Y103740D01*
X177000D01*
G01X175260Y113000D02*
X163010D01*
G01X144990Y116940D02*
X146810D01*
X151260Y121390D01*
Y128000D01*
G01X163010Y116940D02*
X161190D01*
X158740Y119390D01*
Y128000D01*
G01X163010Y114970D02*
X159300D01*
X159270Y115000D01*
X157000D01*
X151060Y109060D01*
X144990D01*
G01X162000Y239000D02*
X192000Y269000D01*
X288000D01*
X297000Y260000D01*
X304000D01*
G01X175000Y80740D02*
X189000D01*
G01X175000Y73260D02*
X174260D01*
G01X177000Y103740D02*
X188000D01*
G01X183000Y123260D02*
Y117420D01*
X182740Y117160D01*
Y113000D01*
G01X290700Y135300D02*
X278660Y123260D01*
X183000D01*
G54D15*
X120740Y57000D03*
X113260D03*
X112260Y82000D03*
X119740D03*
Y91000D03*
X112260D03*
X151260Y128000D03*
X158740D03*
X182740Y113000D03*
X175260D03*
G54D25*
G01X92000Y118000D02*
X101000D01*
X101070Y117930D01*
X105330D01*
X171400Y184000D01*
X264000D01*
G01X133000Y108740D02*
X101260D01*
X92000Y118000D01*
G01X264000Y184000D02*
X279000Y169000D01*
X302000D01*
G01X322000Y160000D02*
Y112260D01*
X321830Y112090D01*
Y106840D01*
G54D16*
X133000Y101260D03*
Y73260D03*
Y80740D03*
Y108740D03*
X147000Y80740D03*
Y73260D03*
X161000Y80740D03*
Y73260D03*
X188000Y96260D03*
X175000Y73260D03*
Y80740D03*
X189000D03*
Y73260D03*
X177000Y96260D03*
X183000Y123260D03*
Y130740D03*
X188000Y103740D03*
X177000D03*
G54D26*
G01X122120Y65260D02*
Y62700D01*
X120740Y61320D01*
Y57000D01*
G01X112260Y91000D02*
Y82000D01*
G01X119740Y91000D02*
Y82000D01*
G01X133000Y73260D02*
X128680D01*
X128160Y72740D01*
X122120D01*
G01D02*
Y75290D01*
X119740Y77670D01*
Y82000D01*
G01X147000Y73260D02*
Y69000D01*
X155000Y61000D01*
G01X297000Y184000D02*
X269000Y212000D01*
X141000D01*
G01X251470Y40850D02*
X232750Y59570D01*
X218430D01*
X197260Y80740D01*
X189000D01*
G01X312000Y170000D02*
X306000Y176000D01*
Y188000D01*
X235000Y259000D01*
G01X322000Y170000D02*
X317000Y175000D01*
Y189000D01*
X259000Y247000D01*
X253000D01*
G01X322000Y180000D02*
Y202000D01*
X273000Y251000D01*
X268000D01*
G01X282940Y255940D02*
X329000Y209880D01*
Y162840D01*
X326160Y160000D01*
X322000D01*
G01X330000Y247000D02*
X300000D01*
X286000Y261000D01*
G01X353500Y184500D02*
X339000Y170000D01*
G01X336000Y194000D02*
X352000D01*
X359790Y186210D01*
X364370D01*
G01X322000Y256000D02*
X333000D01*
X346000Y243000D01*
X366000D01*
X372000Y237000D01*
Y162340D01*
X364370Y154710D01*
G01Y162590D02*
X360360D01*
X353240Y169710D01*
Y174760D01*
X351500Y176500D01*
G54D17*
X163010Y116940D03*
Y114970D03*
Y113000D03*
Y111030D03*
Y109060D03*
X144990D03*
Y111030D03*
Y113000D03*
Y114970D03*
Y116940D03*
G54D18*
X251470Y40850D03*
X326470D03*
G54D19*
X312000Y160000D03*
X322000D03*
X312000Y180000D03*
Y170000D03*
X322000D03*
M02*
