G04 ================== begin FILE IDENTIFICATION RECORD ==================*
G04 Layout Name:  SMARTSLEEVESYSTEM.brd*
G04 Film Name:    TOP*
G04 File Format:  Gerber RS274X*
G04 File Origin:  Cadence Allegro 17.2-P019*
G04 Origin Date:  Sun Feb 05 19:05:20 2017*
G04 *
G04 Layer:  ETCH/TOP*
G04 Layer:  PIN/TOP*
G04 Layer:  VIA CLASS/TOP*
G04 *
G04 Offset:    (0.0 0.0)*
G04 Mirror:    No*
G04 Mode:      Positive*
G04 Rotation:  0*
G04 FullContactRelief:  No*
G04 UndefLineWidth:     0.0*
G04 ================== end FILE IDENTIFICATION RECORD ====================*
%FSLAX25Y25*MOIN*%
%IR0*IPPOS*OFA0.00000B0.00000*MIA0B0*SFA1.00000B1.00000*%
%ADD10C,.135*%
%ADD17C,.06*%
%ADD14C,.024*%
%ADD12C,.065*%
%ADD18C,.058*%
%ADD15R,.0571X.0423*%
%ADD13R,.0423X.0571*%
%ADD16R,.0482X.0118*%
%ADD20R,.055X.055*%
%ADD11R,.065X.065*%
%ADD19R,.058X.058*%
%ADD21C,.007*%
%ADD22C,.02*%
%ADD23C,.012*%
%ADD24C,.03*%
%ADD25C,.015*%
%ADD29C,.1494*%
%ADD28C,.0724*%
%ADD27C,.0744*%
%ADD26C,.0794*%
G75*
%LPD*%
G75*
G36*
G01X23000Y1000D02*
Y118000D01*
X133180D01*
G02X133680Y116810I3J-699D01*
G01X128440Y111560D01*
G03X131560Y108440I1560J-1560D01*
G01X141130Y118000D01*
X290540D01*
Y74600D01*
X278660Y62720D01*
X221570D01*
Y63380D01*
G03X220860Y64090I-715J-5D01*
G01X215140D01*
G03X214450Y63520I8J-712D01*
G01X214430Y63420D01*
X214110Y63100D01*
X213740Y63460D01*
X211570D01*
Y64860D01*
G03X210860Y65570I-715J-5D01*
G01X206620D01*
G03X205910Y64860I5J-715D01*
G01Y59140D01*
G03X206620Y58430I715J5D01*
G01X210860D01*
G03X211570Y59140I-5J715D01*
G01Y60540D01*
X212540D01*
X213280Y59800D01*
X214430D01*
Y59140D01*
G03X215140Y58430I715J5D01*
G01X220860D01*
G03X221570Y59140I-5J715D01*
G01Y59800D01*
X279860D01*
X293460Y73400D01*
Y118000D01*
X319790D01*
Y113180D01*
X319620Y113010D01*
Y110800D01*
X318580D01*
G03X317870Y110090I0J-710D01*
G01Y103590D01*
G03X318580Y102880I710J0D01*
G01X325080D01*
G03X325790Y103590I0J710D01*
G01Y110090D01*
G03X325080Y110800I-710J0D01*
G01X324280D01*
X324100Y111230D01*
X324210Y111340D01*
Y118000D01*
X353000D01*
Y1000D01*
X23000D01*
G37*
G36*
G01X31000Y84000D02*
Y290000D01*
X128000D01*
Y110940D01*
X127970Y110880D01*
G03Y109120I2030J-880D01*
G01X128000Y109060D01*
Y84000D01*
X31000D01*
G37*
G36*
G01X199000Y144000D02*
Y175870D01*
X204920Y181790D01*
X263080D01*
X278080Y166790D01*
X302000D01*
G03Y171210I0J2210D01*
G01X279920D01*
X265560Y185560D01*
G03X264000Y186210I-1560J-1547D01*
G01X203080D01*
X200190Y183320D01*
G02X199000Y183820I-491J497D01*
G01Y210540D01*
X268400D01*
X295080Y183850D01*
X295100Y183740D01*
G03X297260Y185900I1900J260D01*
G01X297150Y185920D01*
X269600Y213460D01*
X199000D01*
Y298000D01*
X374000D01*
Y238750D01*
G02X372810Y238260I-699J7D01*
G01X366600Y244460D01*
X349600D01*
X336600Y257460D01*
X323250D01*
G03Y254540I-1250J-1460D01*
G01X335400D01*
X348400Y241540D01*
X365400D01*
X370540Y236400D01*
Y162940D01*
X369020Y161430D01*
G02X367830Y161930I-491J497D01*
G01Y165340D01*
G03X367120Y166050I-710J0D01*
G01X361620D01*
G03X360910Y165340I0J-710D01*
G01Y164950D01*
G02X360310Y164700I-351J-2D01*
G01X354700Y170310D01*
Y175360D01*
X353420Y176650D01*
X353400Y176760D01*
G03X351240Y174600I-1900J-260D01*
G01X351350Y174580D01*
X351780Y174160D01*
Y169110D01*
X359760Y161130D01*
X360910D01*
Y159840D01*
G03X361620Y159130I710J0D01*
G01X365880D01*
G02X366130Y158530I2J-351D01*
G01X365770Y158170D01*
X361620D01*
G03X360910Y157460I0J-710D01*
G01Y151960D01*
G03X361620Y151250I710J0D01*
G01X367120D01*
G03X367830Y151960I0J710D01*
G01Y156110D01*
X372810Y161080D01*
G02X374000Y160590I491J-497D01*
G01Y144000D01*
X324210D01*
Y157130D01*
G03X325310Y158540I-2216J2863D01*
G01X326760D01*
X330460Y162240D01*
Y210480D01*
X284860Y256090D01*
X284840Y256200D01*
G03X282680Y254040I-1900J-260D01*
G01X282790Y254020D01*
X327540Y209280D01*
Y163440D01*
X326050Y161960D01*
G02X324980Y162050I-497J492D01*
G03X319790Y157130I-2982J-2051D01*
G01Y144000D01*
X293460D01*
Y160750D01*
G03X290540I-1460J1250D01*
G01Y144000D01*
X199000D01*
G37*
%LPC*%
G75*
G36*
G01X271870Y103590D02*
Y110090D01*
G02X272580Y110800I710J0D01*
G01X279080D01*
G02X279790Y110090I0J-710D01*
G01Y103590D01*
G02X279080Y102880I-710J0D01*
G01X272580D01*
G02X271870Y103590I0J710D01*
G37*
G36*
G01X223870Y101590D02*
Y108090D01*
G02X224580Y108800I710J0D01*
G01X231080D01*
G02X231790Y108090I0J-710D01*
G01Y101590D01*
G02X231080Y100880I-710J0D01*
G01X224580D01*
G02X223870Y101590I0J710D01*
G37*
G36*
G01X208430Y41140D02*
Y45380D01*
G02X209140Y46090I715J-5D01*
G01X214860D01*
G02X215570Y45380I-5J-715D01*
G01Y41140D01*
G02X214860Y40430I-715J5D01*
G01X209140D01*
G02X208430Y41140I5J715D01*
G37*
G36*
G01X214430Y66620D02*
Y70860D01*
G02X215140Y71570I715J-5D01*
G01X220860D01*
G02X221570Y70860I-5J-715D01*
G01Y66620D01*
G02X220860Y65910I-715J5D01*
G01X215140D01*
G02X214430Y66620I5J715D01*
G37*
G36*
G01X221430Y14140D02*
Y18380D01*
G02X222140Y19090I715J-5D01*
G01X227860D01*
G02X228570Y18380I-5J-715D01*
G01Y14140D01*
G02X227860Y13430I-715J5D01*
G01X222140D01*
G02X221430Y14140I5J715D01*
G37*
G36*
G01X198430Y41140D02*
Y45380D01*
G02X199140Y46090I715J-5D01*
G01X204860D01*
G02X205570Y45380I-5J-715D01*
G01Y41140D01*
G02X204860Y40430I-715J5D01*
G01X199140D01*
G02X198430Y41140I5J715D01*
G37*
G36*
G01X156430Y39140D02*
Y43380D01*
G02X157140Y44090I715J-5D01*
G01X162860D01*
G02X163570Y43380I-5J-715D01*
G01Y39140D01*
G02X162860Y38430I-715J5D01*
G01X157140D01*
G02X156430Y39140I5J715D01*
G37*
G36*
G01X130930Y27140D02*
Y32860D01*
G02X131640Y33570I715J-5D01*
G01X135880D01*
G02X136590Y32860I-5J-715D01*
G01Y27140D01*
G02X135880Y26430I-715J5D01*
G01X131640D01*
G02X130930Y27140I5J715D01*
G37*
G36*
G01Y14640D02*
Y20360D01*
G02X131640Y21070I714J-4D01*
G01X135880D01*
G02X136590Y20360I-4J-714D01*
G01Y14640D01*
G02X135880Y13930I-715J5D01*
G01X131640D01*
G02X130930Y14640I5J715D01*
G37*
G36*
G01X161070Y21620D02*
G02X160360Y20910I-715J5D01*
G01X154640D01*
G02X153930Y21620I5J715D01*
G01Y25860D01*
G02X154640Y26570I715J-5D01*
G01X160360D01*
G02X161070Y25860I-5J-715D01*
G01Y25450D01*
X171430D01*
Y25860D01*
G02X172140Y26570I715J-5D01*
G01X177860D01*
G02X178570Y25860I-5J-715D01*
G01Y25450D01*
X188930D01*
Y25860D01*
G02X189640Y26570I715J-5D01*
G01X195360D01*
G02X196070Y25860I-5J-715D01*
G01Y21620D01*
G02X195360Y20910I-715J5D01*
G01X189640D01*
G02X188930Y21620I5J715D01*
G01Y22030D01*
X178570D01*
Y21620D01*
G02X177860Y20910I-715J5D01*
G01X172140D01*
G02X171430Y21620I5J715D01*
G01Y22030D01*
X161070D01*
Y21620D01*
G37*
G36*
G01X196070Y14140D02*
G02X195360Y13430I-715J5D01*
G01X189640D01*
G02X188930Y14140I5J715D01*
G01Y18380D01*
G02X189640Y19090I715J-5D01*
G01X195360D01*
G02X196070Y18380I-5J-715D01*
G01Y17970D01*
X199120D01*
X199190Y18000D01*
G02X200810I810J-1740D01*
G01X200880Y17970D01*
X206430D01*
Y18380D01*
G02X207140Y19090I715J-5D01*
G01X212860D01*
G02X213570Y18380I-5J-715D01*
G01Y14140D01*
G02X212860Y13430I-715J5D01*
G01X207140D01*
G02X206430Y14140I5J715D01*
G01Y14550D01*
X200880D01*
X200810Y14520D01*
G02X199190I-810J1740D01*
G01X199120Y14550D01*
X196070D01*
Y14140D01*
G37*
G36*
G01X143450Y26410D02*
Y21090D01*
X143650Y21000D01*
G02X144070Y20360I-292J-649D01*
G01Y19710D01*
X145540D01*
X146780Y18470D01*
X153910D01*
X154000Y18670D01*
G02X154640Y19090I649J-292D01*
G01X160360D01*
G02X161070Y18380I-5J-715D01*
G01Y14140D01*
G02X160360Y13430I-715J5D01*
G01X154640D01*
G02X154000Y13850I9J712D01*
G01X153910Y14050D01*
X144940D01*
X144850Y14140D01*
G03X143860I-495J-491D01*
G02X143360Y13930I-505J503D01*
G01X139120D01*
G02X138410Y14640I5J715D01*
G01Y20360D01*
G02X138830Y21000I712J-9D01*
G01X139030Y21090D01*
Y26410D01*
X138830Y26500D01*
G02X138410Y27140I292J649D01*
G01Y32860D01*
G02X138830Y33500I712J-9D01*
G01X139030Y33590D01*
Y38840D01*
X136440Y41440D01*
G02X139560Y44560I1560J1560D01*
G01X143450Y40680D01*
Y33590D01*
X143650Y33500D01*
G02X144070Y32860I-292J-649D01*
G01Y27140D01*
G02X143650Y26500I-712J9D01*
G01X143450Y26410D01*
G37*
G36*
G01X179450Y13750D02*
G03X178410Y13700I-498J-491D01*
G02X177860Y13430I-558J442D01*
G01X172140D01*
G02X171430Y14140I5J715D01*
G01Y18380D01*
G02X172140Y19090I715J-5D01*
G01X177860D01*
G02X178570Y18380I-5J-715D01*
G01Y17970D01*
X180070D01*
X188210Y9830D01*
X272410D01*
X305140Y42560D01*
X323170D01*
G02Y39140I3300J-1710D01*
G01X306560D01*
X273830Y6410D01*
X187500D01*
G02X186680Y6620I0J1706D01*
G01X186610Y6660D01*
X177250D01*
G02Y9580I-1250J1460D01*
G01X181930D01*
G03X182430Y10770I1J700D01*
G01X179450Y13750D01*
G37*
G36*
G01X212860Y20910D02*
X207140D01*
G02X206430Y21620I5J715D01*
G01Y25860D01*
G02X206540Y26230I712J-10D01*
G03X206230Y27240I-592J371D01*
G02X205750Y27540I767J1761D01*
G01X196400D01*
X187550Y36390D01*
Y47260D01*
X186600D01*
G02X185890Y47970I0J710D01*
G01Y49150D01*
G02X186010Y49540I709J-5D01*
G02X185890Y49940I591J395D01*
G01Y51120D01*
G02X186010Y51520I711J5D01*
G02X185890Y51910I589J395D01*
G01Y53160D01*
X184010D01*
X178100Y47250D01*
X163570D01*
Y46620D01*
G02X162860Y45910I-715J5D01*
G01X157140D01*
G02X156430Y46620I5J715D01*
G01Y50860D01*
G02X157140Y51570I715J-5D01*
G01X162860D01*
G02X163570Y50860I-5J-715D01*
G01Y50050D01*
X164660D01*
X164840Y49870D01*
X167870D01*
Y51190D01*
X164960D01*
X161070Y55080D01*
X160930D01*
G02X161730Y58780I75J1920D01*
G03X162690Y59430I261J648D01*
G01Y60600D01*
G02X165310I1310J1400D01*
G01Y58290D01*
X167270Y56330D01*
G03X167870Y56580I249J247D01*
G01Y57030D01*
G02X168580Y57740I710J0D01*
G01X170850D01*
G02X170990Y57750I163J-1298D01*
G01X172270D01*
X175950Y61430D01*
Y64430D01*
X175140D01*
G02X174430Y65140I5J715D01*
G01Y70860D01*
G02X175140Y71570I715J-5D01*
G01X179380D01*
G02X180090Y70860I-5J-715D01*
G01Y65140D01*
G02X179380Y64430I-715J5D01*
G01X178570D01*
Y60350D01*
X174120Y55900D01*
X174110Y55770D01*
G02X173990Y55460I-704J94D01*
G02X174110Y55060I-591J-395D01*
G01Y53880D01*
G02X173990Y53480I-711J-5D01*
G02X174110Y53090I-589J-395D01*
G01Y51910D01*
G02X173990Y51520I-709J5D01*
G02X174110Y51120I-591J-395D01*
G01Y49870D01*
X177020D01*
X182930Y55780D01*
X184310D01*
G03X184800Y56970I-6J698D01*
G01X183430Y58350D01*
Y64430D01*
X182620D01*
G02X181910Y65140I5J715D01*
G01Y70860D01*
G02X182620Y71570I715J-5D01*
G01X186860D01*
G02X187570Y70860I-5J-715D01*
G01Y65140D01*
G02X186860Y64430I-715J5D01*
G01X186050D01*
Y59430D01*
X187730Y57750D01*
X189010D01*
G02X189150Y57740I-23J-1308D01*
G01X191420D01*
G02X192130Y57030I0J-710D01*
G01Y55850D01*
G02X192010Y55460I-709J5D01*
G02X192130Y55060I-591J-395D01*
G01Y53840D01*
X195990D01*
X199950Y57800D01*
Y58430D01*
X199140D01*
G02X198430Y59140I5J715D01*
G01Y64860D01*
G02X199140Y65570I715J-5D01*
G01X203380D01*
G02X204090Y64860I-5J-715D01*
G01Y59140D01*
G02X203380Y58430I-715J5D01*
G01X202570D01*
Y56720D01*
X200610Y54760D01*
G03X201110Y53570I497J-491D01*
G01X204860D01*
G02X205570Y52860I-5J-715D01*
G01Y52050D01*
X208430D01*
Y52860D01*
G02X209140Y53570I715J-5D01*
G01X214860D01*
G02X215570Y52860I-5J-715D01*
G01Y48620D01*
G02X214860Y47910I-715J5D01*
G01X209140D01*
G02X208430Y48620I5J715D01*
G01Y49430D01*
X205570D01*
Y48620D01*
G02X204860Y47910I-715J5D01*
G01X199140D01*
G02X198430Y48620I5J715D01*
G01Y49220D01*
X192130D01*
Y47970D01*
G02X191420Y47260I-710J0D01*
G01X190470D01*
Y37590D01*
X197600Y30460D01*
X205750D01*
G02X208440Y27730I1253J-1456D01*
G03X208960Y26570I524J-462D01*
G01X212860D01*
G02X213570Y25860I-5J-715D01*
G01Y25450D01*
X221430D01*
Y25860D01*
G02X222140Y26570I715J-5D01*
G01X223290D01*
Y30710D01*
X235140Y42560D01*
X248170D01*
G02Y39140I3300J-1710D01*
G01X236560D01*
X226710Y29290D01*
Y26570D01*
X227860D01*
G02X228570Y25860I-5J-715D01*
G01Y21620D01*
G02X227860Y20910I-715J5D01*
G01X222140D01*
G02X221430Y21620I5J715D01*
G01Y22030D01*
X213570D01*
Y21620D01*
G02X212860Y20910I-715J5D01*
G37*
G36*
G01X106870Y256590D02*
Y263090D01*
G02X107580Y263800I710J0D01*
G01X114080D01*
G02X114790Y263090I0J-710D01*
G01Y256590D01*
G02X114080Y255880I-710J0D01*
G01X107580D01*
G02X106870Y256590I0J710D01*
G37*
G36*
G01X45210Y236910D02*
Y243410D01*
G02X45920Y244120I710J0D01*
G01X52420D01*
G02X53130Y243410I0J-710D01*
G01Y236910D01*
G02X52420Y236200I-710J0D01*
G01X45920D01*
G02X45210Y236910I0J710D01*
G37*
G36*
G01X360910Y222830D02*
Y228330D01*
G02X361620Y229040I710J0D01*
G01X367120D01*
G02X367830Y228330I0J-710D01*
G01Y222830D01*
G02X367120Y222120I-710J0D01*
G01X361620D01*
G02X360910Y222830I0J710D01*
G37*
G36*
G01Y230700D02*
Y236200D01*
G02X361620Y236910I710J0D01*
G01X367120D01*
G02X367830Y236200I0J-710D01*
G01Y230700D01*
G02X367120Y229990I-710J0D01*
G01X361620D01*
G02X360910Y230700I0J710D01*
G37*
G36*
G01Y191330D02*
Y196830D01*
G02X361620Y197540I710J0D01*
G01X367120D01*
G02X367830Y196830I0J-710D01*
G01Y191330D01*
G02X367120Y190620I-710J0D01*
G01X361620D01*
G02X360910Y191330I0J710D01*
G37*
G36*
G01Y199210D02*
Y204710D01*
G02X361620Y205420I710J0D01*
G01X367120D01*
G02X367830Y204710I0J-710D01*
G01Y199210D01*
G02X367120Y198500I-710J0D01*
G01X361620D01*
G02X360910Y199210I0J710D01*
G37*
G36*
G01Y207080D02*
Y212580D01*
G02X361620Y213290I710J0D01*
G01X367120D01*
G02X367830Y212580I0J-710D01*
G01Y207080D01*
G02X367120Y206370I-710J0D01*
G01X361620D01*
G02X360910Y207080I0J710D01*
G37*
G36*
G01Y214950D02*
Y220450D01*
G02X361620Y221160I710J0D01*
G01X367120D01*
G02X367830Y220450I0J-710D01*
G01Y214950D01*
G02X367120Y214240I-710J0D01*
G01X361620D01*
G02X360910Y214950I0J710D01*
G37*
G36*
G01Y167710D02*
Y173210D01*
G02X361620Y173920I710J0D01*
G01X367120D01*
G02X367830Y173210I0J-710D01*
G01Y167710D01*
G02X367120Y167000I-710J0D01*
G01X361620D01*
G02X360910Y167710I0J710D01*
G37*
G36*
G01Y175580D02*
Y181080D01*
G02X361620Y181790I710J0D01*
G01X367120D01*
G02X367830Y181080I0J-710D01*
G01Y175580D01*
G02X367120Y174870I-710J0D01*
G01X361620D01*
G02X360910Y175580I0J710D01*
G37*
G36*
G01X302740Y265900D02*
X302850Y265920D01*
X309400Y272460D01*
X367750D01*
G02Y269540I1250J-1460D01*
G01X310600D01*
X304920Y263850D01*
X304900Y263740D01*
G02X302740Y265900I-1900J260D01*
G37*
G36*
G01X328750Y245540D02*
X299400D01*
X285850Y259080D01*
X285740Y259100D01*
G02X287900Y261260I260J1900D01*
G01X287920Y261150D01*
X300600Y248460D01*
X328750D01*
G02Y245540I1250J-1460D01*
G37*
G36*
G01X359190Y184750D02*
X351400Y192540D01*
X337250D01*
G02Y195460I-1250J1460D01*
G01X352600D01*
X360390Y187670D01*
X360910D01*
Y188960D01*
G02X361620Y189670I710J0D01*
G01X367120D01*
G02X367830Y188960I0J-710D01*
G01Y183460D01*
G02X367120Y182750I-710J0D01*
G01X361620D01*
G02X360910Y183460I0J710D01*
G01Y184750D01*
X359190D01*
G37*
G36*
G01X353650Y182580D02*
X340920Y169850D01*
X340900Y169740D01*
G02X338740Y171900I-1900J260D01*
G01X338850Y171920D01*
X351580Y184650D01*
X351600Y184760D01*
G02X353760Y182600I1900J-260D01*
G01X353650Y182580D01*
G37*
G36*
G01X318460Y175600D02*
X320690Y173380D01*
X320890Y173450D01*
G02X318550Y171110I1110J-3450D01*
G01X318620Y171310D01*
X315540Y174400D01*
Y176740D01*
G03X314380Y177270I-699J4D01*
G02Y182730I-2380J2730D01*
G03X315540Y183260I461J526D01*
G01Y188400D01*
X258400Y245540D01*
X254250D01*
G02Y248460I-1250J1460D01*
G01X259600D01*
X318460Y189600D01*
Y183570D01*
X318860D01*
X318910Y183580D01*
G02X319100Y183610I204J-678D01*
G01X320540D01*
Y201400D01*
X272400Y249540D01*
X269250D01*
G02Y252460I-1250J1460D01*
G01X273600D01*
X323460Y202600D01*
Y183610D01*
X324900D01*
G02X325610Y182900I0J-710D01*
G01Y177100D01*
G02X324900Y176390I-710J0D01*
G01X319100D01*
G02X318910Y176420I14J708D01*
G01X318860Y176430D01*
X318460D01*
Y175600D01*
G37*
G36*
G01X307460Y176600D02*
X310690Y173380D01*
X310890Y173450D01*
G02X308550Y171110I1110J-3450D01*
G01X308620Y171310D01*
X304540Y175400D01*
Y187400D01*
X234850Y257080D01*
X234740Y257100D01*
G02X236900Y259260I260J1900D01*
G01X236920Y259150D01*
X307460Y188600D01*
Y176600D01*
G37*
G54D29*
X357850Y257350D03*
G54D28*
X312000Y160000D03*
G54D27*
X251470Y30850D03*
Y50850D03*
X326470Y30850D03*
Y50850D03*
G54D26*
X206170Y85160D03*
X227830D03*
X206170Y104840D03*
X254170Y87160D03*
Y106840D03*
X275830Y87160D03*
X300170D03*
X321830D03*
X300170Y106840D03*
X49170Y259840D03*
X70830Y240160D03*
Y259840D03*
X89170Y240160D03*
X110830D03*
X89170Y259840D03*
%LPD*%
G75*
G54D10*
X18850Y132350D03*
Y257350D03*
X357850Y132350D03*
Y257350D03*
G54D11*
X49170Y240160D03*
X110830Y259840D03*
X227830Y104840D03*
X275830Y106840D03*
X321830D03*
G54D20*
X364370Y162590D03*
Y154710D03*
Y186210D03*
Y178330D03*
Y170460D03*
Y217700D03*
Y209830D03*
Y201960D03*
Y194080D03*
Y233450D03*
Y225580D03*
G54D21*
G01X106520Y240160D02*
X110830D01*
G01X133760Y26080D02*
Y30000D01*
G01D02*
Y33920D01*
G01X130580Y30000D02*
X133760D01*
G01D02*
X136940D01*
G01X133760Y13580D02*
Y17500D01*
G01D02*
Y21420D01*
G01X130580Y17500D02*
X133760D01*
G01D02*
X136940D01*
G01X110830Y235850D02*
Y240160D01*
G01D02*
Y244470D01*
G01Y240160D02*
X115140D01*
G01X160000Y38080D02*
Y41260D01*
G01X167520Y50530D02*
X170990D01*
G01X160000Y41260D02*
Y44440D01*
G01X156080Y41260D02*
X160000D01*
G01D02*
X163920D01*
G01X198080Y43260D02*
X202000D01*
G01X170990Y50530D02*
X174460D01*
G01X212000Y40080D02*
Y43260D01*
G01X225000Y13080D02*
Y16260D01*
G01D02*
Y19440D01*
G01X221080Y16260D02*
X225000D01*
G01D02*
X228920D01*
G01X202000Y40080D02*
Y43260D01*
G01X212000D02*
Y46440D01*
G01X208080Y43260D02*
X212000D01*
G01D02*
X215920D01*
G01X218000Y65560D02*
Y68740D01*
G01D02*
Y71920D01*
G01X214080Y68740D02*
X218000D01*
G01D02*
X221920D01*
G01X202000Y43260D02*
Y46440D01*
G01Y43260D02*
X205920D01*
G01X317520Y87160D02*
X321830D01*
G01X312000Y156040D02*
Y160000D01*
G01D02*
Y163960D01*
G01X308040Y160000D02*
X312000D01*
G01D02*
X315960D01*
G01X321830Y82850D02*
Y87160D01*
G01D02*
Y91470D01*
G01Y87160D02*
X326140D01*
G01X364370Y198150D02*
Y201960D01*
G01D02*
Y205770D01*
G01X360560Y201960D02*
X364370D01*
G01D02*
X368180D01*
G01X364370Y229640D02*
Y233450D01*
G01D02*
Y237260D01*
G01X360560Y233450D02*
X364370D01*
G01D02*
X368180D01*
G54D12*
X49170Y259840D03*
X70830Y240160D03*
Y259840D03*
X89170Y240160D03*
X110830D03*
X89170Y259840D03*
X206170Y85160D03*
X227830D03*
X206170Y104840D03*
X254170Y87160D03*
Y106840D03*
X275830Y87160D03*
X300170D03*
X321830D03*
X300170Y106840D03*
G54D22*
G01X157500Y23740D02*
X175000D01*
G01X326470Y40850D02*
X305850D01*
X273120Y8120D01*
X187500D01*
G01D02*
X179360Y16260D01*
X175000D01*
G01Y23740D02*
X192500D01*
G01Y16260D02*
X200000D01*
G01D02*
X210000D01*
G01Y23740D02*
X225000D01*
G01D02*
Y30000D01*
X235850Y40850D01*
X251470D01*
G54D13*
X133760Y17500D03*
X141240D03*
Y30000D03*
X133760D03*
X177260Y68000D03*
X184740D03*
X201260Y62000D03*
X208740D03*
G54D23*
G01X170990Y52500D02*
X165500D01*
X161000Y57000D01*
G01X170990Y48560D02*
X164300D01*
X164120Y48740D01*
X160000D01*
G01X170990Y54470D02*
X167280D01*
X164000Y57750D01*
Y62000D01*
G01X172030Y52500D02*
X170990D01*
G01X189010Y54470D02*
X183470D01*
X177560Y48560D01*
X170990D01*
G01X172030Y54470D02*
X170990D01*
G01X187970Y50530D02*
X189010D01*
G01D02*
X197670D01*
X197880Y50740D01*
X202000D01*
G01X189010Y52500D02*
X187970D01*
X188000Y52530D01*
X196530D01*
X201260Y57260D01*
Y62000D01*
G01X177260Y68000D02*
Y60890D01*
X172810Y56440D01*
X170990D01*
G01X184740Y68000D02*
Y58890D01*
X187190Y56440D01*
X189010D01*
G01X212000Y50740D02*
X202000D01*
G54D14*
X138000Y43000D03*
X130000Y110000D03*
X141000Y212000D03*
X161000Y57000D03*
X164000Y62000D03*
X176000Y8120D03*
X200000Y16260D03*
X207000Y29000D03*
X253000Y247000D03*
X235000Y259000D03*
X292000Y162000D03*
X264000Y184000D03*
X268000Y251000D03*
X282940Y255940D03*
X286000Y261000D03*
X297000Y184000D03*
X302000Y169000D03*
X322000Y256000D03*
X303000Y264000D03*
X336000Y113000D03*
X351500Y176500D03*
X339000Y170000D03*
X336000Y194000D03*
X330000Y247000D03*
X353500Y184500D03*
X369000Y271000D03*
G54D24*
G01X141240Y30000D02*
Y17500D01*
G01X157500Y16260D02*
X145860D01*
X144620Y17500D01*
X141240D01*
G01Y30000D02*
Y39760D01*
X138000Y43000D01*
G01X264000Y184000D02*
X204000D01*
X130000Y110000D01*
G01X264000Y184000D02*
X279000Y169000D01*
X302000D01*
G01X322000Y160000D02*
Y112260D01*
X321830Y112090D01*
Y106840D01*
G54D15*
X157500Y16260D03*
Y23740D03*
X160000Y41260D03*
Y48740D03*
X175000Y23740D03*
Y16260D03*
X192500Y23740D03*
Y16260D03*
X202000Y50740D03*
Y43260D03*
X210000Y16260D03*
Y23740D03*
X225000D03*
Y16260D03*
X218000Y61260D03*
Y68740D03*
X212000Y50740D03*
Y43260D03*
G54D25*
G01X297000Y184000D02*
X269000Y212000D01*
X141000D01*
G01X176000Y8120D02*
X187500D01*
G01X189010Y48560D02*
Y36990D01*
X197000Y29000D01*
X207000D01*
G01X218000Y61260D02*
X213880D01*
X213140Y62000D01*
X208740D01*
G01X292000Y162000D02*
Y74000D01*
X279260Y61260D01*
X218000D01*
G01X235000Y259000D02*
X306000Y188000D01*
Y176000D01*
X312000Y170000D01*
G01X253000Y247000D02*
X259000D01*
X317000Y189000D01*
Y175000D01*
X322000Y170000D01*
G01Y180000D02*
Y202000D01*
X273000Y251000D01*
X268000D01*
G01X282940Y255940D02*
X329000Y209880D01*
Y162840D01*
X326160Y160000D01*
X322000D01*
G01X330000Y247000D02*
X300000D01*
X286000Y261000D01*
G01X303000Y264000D02*
X310000Y271000D01*
X369000D01*
G01X353500Y184500D02*
X339000Y170000D01*
G01X336000Y194000D02*
X352000D01*
X359790Y186210D01*
X364370D01*
G01X322000Y256000D02*
X336000D01*
X349000Y243000D01*
X366000D01*
X372000Y237000D01*
Y162340D01*
X364370Y154710D01*
G01Y162590D02*
X360360D01*
X353240Y169710D01*
Y174760D01*
X351500Y176500D01*
G54D16*
X170990Y48560D03*
Y50530D03*
Y52500D03*
Y54470D03*
Y56440D03*
X189010D03*
Y54470D03*
Y52500D03*
Y50530D03*
Y48560D03*
G54D17*
X251470Y30850D03*
Y40850D03*
Y50850D03*
X326470Y30850D03*
Y40850D03*
Y50850D03*
G54D18*
X312000Y160000D03*
X322000D03*
X312000Y180000D03*
Y170000D03*
X322000D03*
G54D19*
Y180000D03*
M02*
