G04 ================== begin FILE IDENTIFICATION RECORD ==================*
G04 Layout Name:  SMARTSLEEVESYSTEM.brd*
G04 Film Name:    SMB*
G04 File Format:  Gerber RS274X*
G04 File Origin:  Cadence Allegro 17.2-P019*
G04 Origin Date:  Sun Mar 05 16:41:40 2017*
G04 *
G04 Layer:  VIA CLASS/SOLDERMASK_BOTTOM*
G04 Layer:  PIN/SOLDERMASK_BOTTOM*
G04 Layer:  PACKAGE GEOMETRY/SOLDERMASK_BOTTOM*
G04 Layer:  DRC ERROR CLASS/SOLDERMASK_BOTTOM*
G04 Layer:  BOARD GEOMETRY/SOLDERMASK_BOTTOM*
G04 *
G04 Offset:    (0.0 0.0)*
G04 Mirror:    No*
G04 Mode:      Positive*
G04 Rotation:  0*
G04 FullContactRelief:  No*
G04 UndefLineWidth:     0.0*
G04 ================== end FILE IDENTIFICATION RECORD ====================*
%FSLAX25Y25*MOIN*%
%IR0*IPPOS*OFA0.00000B0.00000*MIA0B0*SFA1.00000B1.00000*%
%ADD19C,.5*%
%ADD10C,.14*%
%ADD24R,.2126X.0709*%
%ADD12R,.0579X.1171*%
%AMMACRO20*
4,1,5,-.1378,-.1181,
-.1181,-.1378,
.1378,-.1378,
.1378,.1378,
-.1378,.1378,
-.1378,-.1181,
0.0*
%
%ADD20MACRO20*%
%ADD27C,.07*%
%ADD15C,.044*%
%ADD14C,.065*%
%ADD25C,.058*%
%ADD18R,.0571X.0423*%
%ADD16R,.0423X.0571*%
%ADD23O,.0738X.0118*%
%ADD17R,.0394X.0531*%
%ADD13R,.065X.065*%
%ADD21R,.0118X.0738*%
%ADD26R,.058X.058*%
%ADD22R,.0738X.0118*%
%ADD11R,.4181X.3685*%
%LPD*%
G75*
G54D10*
X18850Y132350D03*
Y257350D03*
X357850Y132350D03*
Y257350D03*
G54D11*
X60000Y174730D03*
G54D20*
X297000Y227000D03*
G54D21*
X281250Y205210D03*
X284400D03*
X287550D03*
Y248790D03*
X284400D03*
X281250D03*
X290700Y205210D03*
X293850D03*
X297000D03*
X300150D03*
X303300D03*
X306450D03*
X309600D03*
X312750D03*
Y248790D03*
X309600D03*
X306450D03*
X303300D03*
X300150D03*
X297000D03*
X293850D03*
X290700D03*
G54D12*
X50000Y211850D03*
X70000D03*
X60000D03*
G54D22*
X275210Y217550D03*
Y214400D03*
Y242750D03*
Y239600D03*
Y236450D03*
Y233300D03*
Y230150D03*
Y227000D03*
Y223850D03*
Y220700D03*
X318790Y211250D03*
Y214400D03*
Y217550D03*
Y220700D03*
Y223850D03*
Y227000D03*
Y230150D03*
Y233300D03*
Y236450D03*
Y239600D03*
Y242750D03*
G54D13*
X49170Y240160D03*
X110830Y259840D03*
X227830Y104840D03*
X275830Y106840D03*
X321830D03*
G54D23*
X275210Y211250D03*
G54D14*
X49170Y259840D03*
X70830Y240160D03*
Y259840D03*
X89170Y240160D03*
X110830D03*
X89170Y259840D03*
X206170Y85160D03*
X227830D03*
X206170Y104840D03*
X254170Y87160D03*
Y106840D03*
X275830Y87160D03*
X300170D03*
X321830D03*
X300170Y106840D03*
G54D15*
X92000Y118000D03*
X104000Y226000D03*
X129000Y59000D03*
X128000Y119000D03*
X135000Y121000D03*
X118000Y153000D03*
X141000Y212000D03*
X155000Y61000D03*
X168000Y66000D03*
X162000Y98000D03*
Y239000D03*
X253000Y247000D03*
X235000Y259000D03*
X290700Y135300D03*
X264000Y184000D03*
X268000Y251000D03*
X282940Y255940D03*
X286000Y261000D03*
X297000Y184000D03*
X302000Y169000D03*
X322000Y256000D03*
X304000Y260000D03*
X336000Y113000D03*
X351500Y176500D03*
X339000Y170000D03*
X336000Y194000D03*
X330000Y247000D03*
X353500Y184500D03*
G54D24*
X278580Y275000D03*
X313420D03*
G54D16*
X99740Y164000D03*
X92260D03*
Y175000D03*
X99740D03*
X102260Y212000D03*
X109740D03*
X110260Y200000D03*
X117740D03*
X257740Y222000D03*
X250260D03*
X258740Y208000D03*
X251260D03*
X257740Y232000D03*
X250260D03*
X286740Y192000D03*
X279260D03*
Y290000D03*
X286740D03*
X321740Y149000D03*
X314260D03*
X313740Y290000D03*
X306260D03*
X332260Y240000D03*
X339740D03*
Y267000D03*
X332260D03*
G54D25*
X312000Y160000D03*
X322000D03*
X312000Y180000D03*
Y170000D03*
X322000D03*
G54D26*
Y180000D03*
G54D17*
X109370Y189000D03*
X118630D03*
G54D18*
X89000Y219740D03*
Y212260D03*
X336000Y126260D03*
Y133740D03*
G54D27*
X364370Y162590D03*
Y154710D03*
Y186210D03*
Y178330D03*
Y170460D03*
Y217700D03*
Y209830D03*
Y201960D03*
Y194080D03*
Y233450D03*
Y225580D03*
G54D19*
X251470Y40850D03*
X326470D03*
M02*
