G04 ================== begin FILE IDENTIFICATION RECORD ==================*
G04 Layout Name:  SMARTSLEEVESYSTEM.brd*
G04 Film Name:    SMT*
G04 File Format:  Gerber RS274X*
G04 File Origin:  Cadence Allegro 17.2-P019*
G04 Origin Date:  Sun Mar 05 16:41:40 2017*
G04 *
G04 Layer:  VIA CLASS/SOLDERMASK_TOP*
G04 Layer:  PIN/SOLDERMASK_TOP*
G04 Layer:  PACKAGE GEOMETRY/SOLDERMASK_TOP*
G04 Layer:  DRC ERROR CLASS/SOLDERMASK_TOP*
G04 Layer:  BOARD GEOMETRY/SOLDERMASK_TOP*
G04 *
G04 Offset:    (0.0 0.0)*
G04 Mirror:    No*
G04 Mode:      Positive*
G04 Rotation:  0*
G04 FullContactRelief:  No*
G04 UndefLineWidth:     0.0*
G04 ================== end FILE IDENTIFICATION RECORD ====================*
%FSLAX25Y25*MOIN*%
%IR0*IPPOS*OFA0.00000B0.00000*MIA0B0*SFA1.00000B1.00000*%
%ADD18C,.5*%
%ADD10C,.14*%
%ADD21C,.07*%
%ADD14C,.044*%
%ADD12C,.065*%
%ADD16R,.0571X.0423*%
%ADD15R,.0423X.0571*%
%ADD19C,.0582*%
%ADD17R,.0482X.0118*%
%ADD13R,.0394X.0217*%
%ADD11R,.065X.065*%
%ADD20R,.058X.058*%
%LPD*%
G75*
G54D10*
X18850Y132350D03*
Y257350D03*
X357850Y132350D03*
Y257350D03*
G54D20*
X322000Y180000D03*
G54D11*
X49170Y240160D03*
X110830Y259840D03*
X227830Y104840D03*
X275830Y106840D03*
X321830D03*
G54D12*
X49170Y259840D03*
X70830Y240160D03*
Y259840D03*
X89170Y240160D03*
X110830D03*
X89170Y259840D03*
X206170Y85160D03*
X227830D03*
X206170Y104840D03*
X254170Y87160D03*
Y106840D03*
X275830Y87160D03*
X300170D03*
X321830D03*
X300170Y106840D03*
G54D21*
X364370Y162590D03*
Y154710D03*
Y186210D03*
Y178330D03*
Y170460D03*
Y217700D03*
Y209830D03*
Y201960D03*
Y194080D03*
Y233450D03*
Y225580D03*
G54D13*
X111880Y65260D03*
Y69000D03*
Y72740D03*
X122120Y69000D03*
Y65260D03*
Y72740D03*
G54D14*
X92000Y118000D03*
X104000Y226000D03*
X129000Y59000D03*
X128000Y119000D03*
X135000Y121000D03*
X118000Y153000D03*
X141000Y212000D03*
X155000Y61000D03*
X168000Y66000D03*
X162000Y98000D03*
Y239000D03*
X253000Y247000D03*
X235000Y259000D03*
X290700Y135300D03*
X264000Y184000D03*
X268000Y251000D03*
X282940Y255940D03*
X286000Y261000D03*
X297000Y184000D03*
X302000Y169000D03*
X322000Y256000D03*
X304000Y260000D03*
X336000Y113000D03*
X351500Y176500D03*
X339000Y170000D03*
X336000Y194000D03*
X330000Y247000D03*
X353500Y184500D03*
G54D15*
X120740Y57000D03*
X113260D03*
X112260Y82000D03*
X119740D03*
Y91000D03*
X112260D03*
X151260Y128000D03*
X158740D03*
X182740Y113000D03*
X175260D03*
G54D16*
X133000Y101260D03*
Y73260D03*
Y80740D03*
Y108740D03*
X147000Y80740D03*
Y73260D03*
X161000Y80740D03*
Y73260D03*
X188000Y96260D03*
X175000Y73260D03*
Y80740D03*
X189000D03*
Y73260D03*
X177000Y96260D03*
X183000Y123260D03*
Y130740D03*
X188000Y103740D03*
X177000D03*
G54D17*
X163010Y116940D03*
Y114970D03*
Y113000D03*
Y111030D03*
Y109060D03*
X144990D03*
Y111030D03*
Y113000D03*
Y114970D03*
Y116940D03*
G54D18*
X251470Y40850D03*
X326470D03*
G54D19*
X312000Y160000D03*
X322000D03*
X312000Y180000D03*
Y170000D03*
X322000D03*
M02*
